<?xml version="1.0" encoding="UTF-8"?>
<svg id="Layer_2" data-name="Layer 2" xmlns="http://www.w3.org/2000/svg" viewBox="0 0 39.74 35.61">
  <defs>
    <style>
      .cls-1 {
        stroke-width: .25px;
      }

      .cls-1, .cls-2, .cls-3 {
        stroke-linejoin: round;
      }

      .cls-1, .cls-2, .cls-3, .cls-4 {
        fill: none;
        stroke: #54565a;
        stroke-linecap: round;
      }

      .cls-2, .cls-4 {
        stroke-width: .15px;
      }

      .cls-5 {
        fill: #54565a;
      }

      .cls-3 {
        stroke-width: .5px;
      }

      .cls-4 {
        stroke-miterlimit: 10;
      }
    </style>
  </defs>
  <g id="Camada_1" data-name="Camada 1">
    <g>
      <polygon class="cls-5" points="34.76 10.56 37.25 13.8 39.74 10.56 38.51 10.56 38.51 6.27 35.99 6.27 35.99 10.56 34.76 10.56"/>
      <path class="cls-4" d="M20.63,6.09c-.42,.28-1.13-.02-1.6-.68-.46-.66-.5-1.42-.08-1.7,.42-.28,1.13,.03,1.6,.68,.46,.66,.5,1.42,.08,1.7Z"/>
      <path class="cls-4" d="M6.26,15.78c-.39-.31-.3-1.07,.22-1.69,.52-.62,1.25-.87,1.65-.56,.39,.31,.29,1.07-.22,1.69-.51,.62-1.25,.87-1.64,.56Z"/>
      <path class="cls-4" d="M22.05,10.14c0,.52-.46,.94-1.02,.94s-1.02-.42-1.02-.94,.46-.94,1.02-.94,1.02,.42,1.02,.94Z"/>
      <path class="cls-4" d="M9.41,3.8c0,.52-.46,.94-1.02,.94s-1.02-.42-1.02-.94,.46-.94,1.02-.94,1.02,.42,1.02,.94Z"/>
      <path class="cls-4" d="M16,12.29c0,.5-.61,.91-1.37,.91s-1.37-.41-1.37-.91,.61-.91,1.37-.91,1.37,.41,1.37,.91Z"/>
      <path class="cls-4" d="M7.32,8.22c0,.54-.46,.98-1.02,.98s-1.02-.44-1.02-.98,.46-.98,1.02-.98,1.02,.44,1.02,.98Z"/>
      <path class="cls-4" d="M27.08,3.95c.18,.47-.37,1.11-1.24,1.44-.87,.33-1.72,.22-1.91-.25-.18-.47,.37-1.11,1.24-1.44,.87-.33,1.72-.22,1.91,.25Z"/>
      <path class="cls-4" d="M29,10.41c-.15,.47-.9,.67-1.67,.43-.77-.24-1.27-.81-1.12-1.29,.15-.47,.9-.67,1.67-.43,.77,.24,1.27,.81,1.12,1.29Z"/>
      <path class="cls-4" d="M15.88,8.55c-.39,.19-1.01-.26-1.4-1.01-.38-.75-.38-1.51,.01-1.7,.39-.19,1.01,.26,1.39,1.01,.38,.75,.38,1.51,0,1.7Z"/>
      <polyline class="cls-3" points="4.97 16.46 4.75 17.58 4.58 18.71 4.5 19.31 4.47 19.63 4.44 19.99 4.41 20.4 4.39 20.63 4.37 20.89 4.36 21.02 4.35 21.19 4.34 21.5 4.33 21.77 4.33 22.02 4.33 22.25 4.34 22.45 4.37 22.82 4.5 23.47 4.68 24.1 4.94 24.7 5.09 24.99 5.26 25.27 5.45 25.54 5.66 25.79 5.77 25.91 5.87 26 6.03 26.14 6.12 26.2 6.24 26.27 6.32 26.32 6.42 26.38 6.56 26.44 6.66 26.49 6.78 26.53"/>
      <polyline class="cls-3" points="28.88 .92 29.19 .95 29.34 1 29.49 1.07 29.62 1.17 29.75 1.29 29.96 1.57 30.09 1.9 30.2 2.3 30.39 3.09 30.56 3.9 30.71 4.72 30.83 5.55 30.93 6.38 30.99 7.23 31.03 8.08 31.05 8.93 31.04 9.78 31 10.63 30.93 11.49 30.84 12.34 30.72 13.18"/>
      <path class="cls-1" d="M11.86,1.83c.79-.04,1.57-.08,2.36-.13"/>
      <path class="cls-3" d="M9.37,.96c-.76,.04-1.51,.08-2.27,.11"/>
      <polyline class="cls-1" points="9.39 17.28 9.21 16.3 9.07 15.3 8.97 14.28 8.91 13.25 8.88 12.21 8.9 11.15 8.96 10.1 9.06 9.04 9.2 7.98 9.38 6.93 9.6 5.89 9.86 4.85 10.15 3.84 10.31 3.34 10.48 2.87 10.72 2.46 10.88 2.28 11.06 2.13 11.25 2.01 11.45 1.92 11.66 1.86 11.86 1.83"/>
      <polyline class="cls-3" points="7.1 1.07 6.84 1.11 6.58 1.2 6.33 1.35 6.1 1.55 5.91 1.79 5.77 2.05 5.66 2.33 5.56 2.65 5.18 3.93 4.87 5.23 4.62 6.56 4.44 7.89 4.33 9.23 4.29 10.56 4.32 11.89 4.41 13.19 4.58 14.47 4.8 15.71 5.09 16.92 5.26 17.42 5.5 17.9 5.8 18.33 6.18 18.71 6.6 19.01 7.07 19.23"/>
      <path class="cls-1" d="M23.74,.26c-.06,0-.13,0-.19,0"/>
      <path class="cls-1" d="M14.22,1.71c4.89-.26,9.77-.53,14.66-.79"/>
      <path class="cls-3" d="M23.55,.25c-4.73,.24-9.46,.47-14.18,.71"/>
      <path class="cls-1" d="M6.1,18.65s0,0,.01,0"/>
      <line class="cls-1" x1="6.93" y1="26.59" x2="7.26" y2="26.55"/>
      <path class="cls-1" d="M31.65,13.89c-6.07,.61-12.15,1.22-18.22,1.83"/>
      <path class="cls-1" d="M12.06,33.8c-.17-.18-.33-.37-.45-.59l-.12-.22c-.11-.22-.2-.45-.26-.69"/>
      <path class="cls-1" d="M11.23,32.3c-.04-.16-.08-.33-.12-.49"/>
      <path class="cls-1" d="M11.1,31.81s.05,0,.07-.01"/>
      <path class="cls-1" d="M11.14,31.78s-.06-.05-.06-.09"/>
      <path class="cls-1" d="M11.66,17.98c.07-.23,.14-.47,.22-.7l.04-.11c.02-.06,.04-.13,.06-.19"/>
      <path class="cls-1" d="M13.43,15.71c-.7,.08-1.19,.5-1.45,1.27"/>
      <path class="cls-1" d="M12.1,33.84s.01,0,.02,0"/>
      <path class="cls-1" d="M12.09,33.82s-.02-.01-.03-.02"/>
      <path class="cls-1" d="M11.13,31.93c.09-.02,.18-.03,.26-.04"/>
      <path class="cls-1" d="M11.74,18.18c-.06-.02-.09-.07-.09-.14,0-.02,0-.04,0-.05"/>
      <path class="cls-1" d="M6.78,26.53c.11,.05,.22,.09,.34,.11"/>
      <path class="cls-3" d="M8.74,19.86c-.56-.21-1.11-.42-1.67-.62"/>
      <line class="cls-3" x1="23.74" y1=".26" x2="29.07" y2=".93"/>
      <path class="cls-3" d="M1.09,27.75C-.18,23.32,0,18.31,1.6,13.58"/>
      <path class="cls-3" d="M3.53,11.96c.26-.02,.53-.05,.79-.07"/>
      <path class="cls-3" d="M1.6,13.58c.14-.42,.39-.8,.72-1.09,.35-.3,.77-.49,1.2-.53"/>
      <path class="cls-3" d="M2.82,29.95c-.07-.04-.14-.08-.21-.12-.73-.46-1.27-1.19-1.53-2.08"/>
      <path class="cls-3" d="M8.62,33.01c-1.93-1.02-3.87-2.04-5.8-3.06"/>
      <path class="cls-3" d="M14.64,35.29c-.82,.15-1.63,.03-2.33-.33"/>
      <path class="cls-3" d="M28.27,32.82c-4.54,.82-9.09,1.65-13.63,2.47"/>
      <path class="cls-3" d="M32.01,28.98c-.09,.36-.22,.71-.37,1.05"/>
      <path class="cls-3" d="M31.02,31.01c-.12,.16-.25,.31-.38,.45-.68,.72-1.51,1.2-2.36,1.36"/>
      <path class="cls-3" d="M32.06,14.5c1.3,4.54,1.27,9.6-.05,14.48"/>
      <path class="cls-3" d="M30.8,13.2c.23,.05,.44,.16,.62,.3,.3,.24,.53,.59,.64,1"/>
      <path class="cls-3" d="M11.79,14.45c5.59-.56,11.18-1.13,16.77-1.69"/>
      <path class="cls-3" d="M9.72,16.24c.17-.49,.46-.93,.85-1.25,.36-.3,.79-.49,1.23-.54"/>
      <path class="cls-3" d="M29.09,12.79c.57,.13,1.14,.27,1.71,.4"/>
      <path class="cls-3" d="M28.56,12.76c.18-.02,.35,0,.53,.03"/>
      <path class="cls-1" d="M12.31,33.93c-.08-.04-.15-.08-.23-.12"/>
      <path class="cls-1" d="M31.13,30.86s-.03,.03-.04,.05c-.04,.04-.09,.07-.14,.1-.06,.03-.11,.05-.17,.07-.06,.02-.12,.04-.18,.06-.06,.02-.13,.03-.19,.05-.07,.01-.15,.03-.22,.05"/>
      <path class="cls-1" d="M30.18,31.23c-5.18,.91-10.35,1.83-15.53,2.74"/>
      <path class="cls-1" d="M14.65,33.97c-.06,.01-.12,.02-.18,.03-.06,.01-.11,.02-.17,.03-.05,0-.11,.02-.16,.02s-.11,.01-.16,.02c-.05,0-.11,.01-.17,.02-.06,0-.12,0-.17,.01-.06,0-.12,0-.18,0-.06,0-.12,0-.18,0-.06,0-.12,0-.18,0-.06,0-.12,0-.18-.01-.05,0-.1-.01-.15-.02-.04,0-.09-.01-.13-.02-.04,0-.08-.02-.11-.03-.04-.01-.07-.02-.11-.03-.04-.01-.07-.03-.11-.05"/>
      <path class="cls-3" d="M31.64,30.06s-.04,.08-.07,.13c-.15,.27-.32,.53-.51,.78"/>
      <path class="cls-1" d="M31.35,28.96c-6,1.01-12,2.01-17.99,3.02"/>
      <path class="cls-1" d="M11.19,31.8s-.03-.02-.04-.02"/>
      <path class="cls-1" d="M32.05,28.59s-.03,.09-.07,.12c-.04,.04-.09,.08-.15,.11-.07,.03-.14,.06-.21,.08-.09,.02-.18,.05-.27,.06"/>
      <path class="cls-1" d="M13.36,31.98c-.11,.02-.22,.03-.33,.04-.11,0-.22,.02-.34,.02-.1,0-.21,0-.31,0-.09,0-.18-.01-.27-.02-.08,0-.15-.02-.23-.03-.07-.01-.13-.02-.2-.03-.06-.01-.11-.02-.17-.04-.05-.01-.11-.03-.16-.05-.05-.02-.11-.04-.16-.06"/>
      <path class="cls-1" d="M32.1,24.68c-6.46,.98-12.92,1.95-19.38,2.93"/>
      <path class="cls-1" d="M10.59,27.44s-.03-.01-.04-.02"/>
      <path class="cls-1" d="M32.87,24.16s-.02,.09-.03,.13c-.02,.05-.05,.09-.09,.12,0,0-.01,.01-.02,.02-.04,.03-.08,.06-.12,.08-.04,.02-.09,.04-.13,.06-.05,.02-.11,.04-.16,.05-.07,.02-.14,.03-.21,.05"/>
      <path class="cls-1" d="M12.73,27.61c-.1,.02-.21,.03-.31,.03-.11,0-.22,.01-.33,.01-.1,0-.21,0-.31,0-.09,0-.18-.01-.27-.02-.08,0-.15-.02-.23-.02-.06-.01-.13-.02-.19-.03-.06-.01-.11-.02-.17-.04-.05-.01-.11-.03-.16-.04-.05-.02-.1-.04-.16-.06"/>
      <path class="cls-1" d="M32.13,20.46c-6.4,.86-12.81,1.71-19.21,2.57"/>
      <path class="cls-1" d="M32.92,20.01s0,.08-.02,.12c-.02,.04-.04,.07-.07,.1-.05,.05-.11,.08-.18,.11-.07,.03-.15,.05-.22,.07-.1,.02-.2,.04-.3,.05"/>
      <path class="cls-1" d="M12.93,23.04c-.1,.02-.21,.02-.32,.03-.11,0-.22,.01-.33,.01-.1,0-.21,0-.31,0-.09,0-.18,0-.27-.01-.08,0-.15-.01-.23-.02-.07,0-.13-.02-.2-.03-.06,0-.11-.02-.17-.03-.05-.01-.11-.02-.16-.04-.05-.01-.11-.03-.16-.05"/>
      <path class="cls-2" d="M31.42,16.29c-5.91,.69-11.83,1.38-17.74,2.07"/>
      <path class="cls-1" d="M11.97,18.26c-.08-.03-.15-.05-.23-.08"/>
      <path class="cls-1" d="M32,15.26c.04,.13,.07,.27,.11,.41,.02,.07,.03,.14,.05,.2"/>
      <path class="cls-1" d="M32.16,15.87s0,.05,0,.07c0,.04-.02,.08-.05,.12-.01,.02-.03,.03-.05,.05-.05,.03-.1,.06-.15,.08-.07,.02-.14,.04-.21,.06-.09,.02-.19,.03-.28,.04"/>
      <path class="cls-1" d="M11.97,18.26s.08,.03,.12,.04c.04,.01,.08,.02,.13,.03,.04,0,.09,.01,.13,.02,.05,0,.1,.01,.15,.02,.06,0,.12,.01,.18,.02,.07,0,.14,0,.21,0,.08,0,.16,0,.24,0,.09,0,.18,0,.27,0,.09,0,.18-.01,.27-.02l17.74-2.07"/>
      <path class="cls-3" d="M8.24,23.58c.17-2.46,.66-4.94,1.48-7.34"/>
      <path class="cls-3" d="M12.31,34.96c-1.23-.65-2.46-1.3-3.68-1.94"/>
      <path class="cls-3" d="M7.12,26.64s.04,0,.05-.01c.08-.02,.15-.06,.22-.11,.08-.06,.15-.14,.21-.23,.07-.11,.14-.22,.19-.35,.06-.15,.12-.3,.16-.46,.05-.18,.1-.37,.13-.56,.04-.21,.07-.42,.1-.63,.03-.23,.05-.47,.06-.7"/>
      <path class="cls-1" d="M11.62,18.13s-1.97,7.78-.55,13.56"/>
    </g>
  </g>
</svg>