<?xml version="1.0" encoding="UTF-8"?>
<svg id="Layer_2" data-name="Layer 2" xmlns="http://www.w3.org/2000/svg" viewBox="0 0 48.1 29.61">
  <defs>
    <style>
      .cls-1, .cls-2, .cls-3, .cls-4 {
        fill: none;
        stroke: #54565a;
        stroke-linejoin: round;
      }

      .cls-1, .cls-4 {
        stroke-width: .5px;
      }

      .cls-2 {
        stroke-width: .25px;
      }

      .cls-2, .cls-3, .cls-4 {
        stroke-linecap: round;
      }

      .cls-3 {
        stroke-width: .15px;
      }

      .cls-5 {
        fill: #54565a;
      }
    </style>
  </defs>
  <g id="Camada_1" data-name="Camada 1">
    <g>
      <g id="SPLINE">
        <path class="cls-4" d="M32.86,17.28c.52-.63,1.05-1.25,1.57-1.87,.63-.74,1.26-1.48,1.88-2.2,0,0,0,0,0-.01"/>
      </g>
      <g id="SPLINE-2" data-name="SPLINE">
        <path class="cls-4" d="M37.64,2.36c.32,.03,.64,.07,.96,.1,.3,.03,.59,.06,.89,.1,.27,.03,.55,.06,.82,.09,.25,.03,.5,.06,.76,.09,.21,.02,.41,.05,.62,.07"/>
      </g>
      <g id="SPLINE-3" data-name="SPLINE">
        <path class="cls-2" d="M39.36,8.49c-.25,.11-.47,.19-.57,.23-.06,.02-.24,.1-.43,.17-.13,.05-.27,.1-.41,.16-.35,.14-.74,.28-1.14,.43-.4,.15-.83,.3-1.27,.45-.22,.08-.45,.15-.67,.23-.23,.08-.46,.16-.7,.23-.24,.08-.47,.15-.7,.23-.23,.07-.47,.15-.7,.22-.24,.07-.47,.14-.72,.21-.24,.07-.49,.13-.75,.2-.26,.06-.53,.13-.8,.19-.28,.06-.56,.12-.86,.18-.3,.06-.6,.11-.92,.17-.31,.05-.64,.1-.96,.15-.33,.05-.66,.09-1,.13-.34,.04-.68,.08-1.03,.11-.35,.03-.7,.06-1.05,.09-.35,.02-.7,.04-1.05,.06-.35,.02-.69,.03-1.03,.03-.02,0-.04,0-.06,0,0,0-.45,.12-.27,.53"/>
      </g>
      <g id="SPLINE-4" data-name="SPLINE">
        <path class="cls-4" d="M41.68,2.81c.2,.02,.39,.05,.59,.07,.2,.03,.4,.05,.6,.08,.18,.02,.37,.05,.55,.08,.17,.02,.33,.05,.49,.07,.15,.02,.29,.05,.43,.07,.13,.02,.25,.04,.38,.07,.11,.02,.22,.04,.33,.07,.1,.02,.2,.04,.29,.06,.09,.02,.17,.04,.26,.06,.08,.02,.15,.04,.23,.06,.07,.02,.14,.04,.2,.06,.06,.02,.12,.04,.18,.05,.05,.02,.11,.03,.16,.05,.05,.02,.09,.03,.14,.05,.04,.01,.08,.03,.12,.05,.04,.01,.07,.03,.11,.04,.03,.01,.07,.03,.1,.04,.03,.01,.06,.03,.1,.04,.03,.02,.07,.03,.1,.05,.04,.02,.07,.04,.1,.06,.04,.02,.07,.04,.11,.07,.04,.02,.08,.05,.11,.08,.04,.03,.08,.06,.11,.09,0,0,.01,0,.02,.01,.03,.03,.06,.06,.09,.09,.04,.04,.07,.08,.09,.13,.03,.04,.05,.09,.06,.14,.01,.04,.02,.09,.03,.13,0,.02,0,.04,0,.06"/>
      </g>
      <g id="SPLINE-5" data-name="SPLINE">
        <path class="cls-2" d="M1.13,12.51c0-.32,0-.64-.01-.96"/>
      </g>
      <g id="SPLINE-6" data-name="SPLINE">
        <path class="cls-2" d="M1.29,13.05s-.07-.07-.09-.13c-.02-.05-.04-.12-.06-.19s-.02-.14-.02-.22"/>
      </g>
      <g id="SPLINE-7" data-name="SPLINE">
        <path class="cls-2" d="M1.42,9.83c.14,.04,.29,.08,.45,.12,.92,.23,2.2,.43,3.46,.61"/>
      </g>
      <g id="SPLINE-8" data-name="SPLINE">
        <path class="cls-3" d="M1.37,9.82s.03,0,.05,0"/>
      </g>
      <g id="SPLINE-9" data-name="SPLINE">
        <path class="cls-2" d="M44.43,10.06s-.01,0-.02,0"/>
      </g>
      <g id="SPLINE-10" data-name="SPLINE">
        <path class="cls-3" d="M31.64,1.8s0,0,0,0"/>
      </g>
      <g id="SPLINE-11" data-name="SPLINE">
        <path class="cls-4" d="M13.36,3.65s.03,0,.04-.01"/>
      </g>
      <g id="SPLINE-12" data-name="SPLINE">
        <path class="cls-4" d="M4.88,6.45c.49-.18,.99-.35,1.49-.52,.48-.17,.96-.33,1.44-.49,.44-.15,.88-.29,1.32-.44,.4-.13,.81-.26,1.21-.4,.37-.12,.74-.24,1.12-.36,.34-.11,.69-.22,1.03-.32,.29-.09,.58-.18,.87-.27"/>
      </g>
      <g id="SPLINE-13" data-name="SPLINE">
        <path class="cls-4" d="M.35,9.09s0-.08,.02-.12c.01-.05,.03-.1,.05-.14,.02-.05,.05-.11,.09-.16,.04-.05,.08-.11,.13-.16,0,0,0-.01,.01-.02,.04-.05,.09-.09,.14-.14,.06-.06,.13-.11,.2-.16,.08-.06,.16-.12,.25-.17,.08-.05,.17-.11,.26-.16,.08-.05,.17-.09,.25-.14,.08-.04,.17-.09,.26-.13,.09-.05,.19-.09,.29-.14,.11-.05,.22-.1,.33-.14,.11-.05,.22-.1,.34-.14,.11-.04,.22-.09,.33-.13,.11-.04,.23-.09,.34-.13,.13-.05,.26-.1,.39-.14,.14-.05,.29-.11,.44-.16,.14-.05,.28-.1,.42-.15"/>
      </g>
      <g id="SPLINE-14" data-name="SPLINE">
        <path class="cls-3" d="M30.4,8.36s.03,0,.05,0"/>
      </g>
      <g id="SPLINE-15" data-name="SPLINE">
        <path class="cls-4" d="M13.61,3.58c.06-.02,.13-.04,.19-.06,.1-.03,.19-.06,.29-.09,.11-.03,.22-.07,.33-.1,.13-.04,.25-.07,.38-.11,.14-.04,.29-.08,.44-.13,.17-.05,.33-.09,.51-.14,.19-.05,.39-.1,.58-.15,.19-.05,.39-.1,.58-.14,.18-.04,.36-.09,.55-.13,.17-.04,.34-.07,.51-.11,.16-.03,.32-.06,.48-.1,.14-.03,.29-.06,.44-.08,.13-.02,.26-.05,.4-.07,.12-.02,.25-.04,.37-.06,.12-.02,.25-.04,.37-.06,.13-.02,.25-.04,.38-.06,.13-.02,.26-.04,.4-.06,.14-.02,.28-.04,.42-.05,.15-.02,.3-.04,.44-.05,.16-.02,.32-.04,.48-.05,.17-.02,.35-.03,.52-.05,.19-.02,.39-.03,.58-.05,.22-.02,.44-.03,.66-.04,.24-.01,.48-.03,.71-.04,.24-.01,.48-.02,.72-.03,.24,0,.47-.01,.71-.01,.25,0,.51,0,.75,0,.29,0,.57,0,.84,.01,.28,0,.56,.02,.83,.03,.25,.01,.5,.02,.74,.04,.26,.01,.51,.03,.77,.05,.28,.02,.55,.04,.83,.06,.27,.02,.54,.04,.8,.06"/>
      </g>
      <g id="SPLINE-16" data-name="SPLINE">
        <path class="cls-4" d="M13.4,3.64s.04-.01,.06-.02c.05-.02,.1-.03,.16-.05"/>
      </g>
      <g id="SPLINE-17" data-name="SPLINE">
        <path class="cls-3" d="M1.03,12.91s.02,0,.03,0"/>
      </g>
      <g id="SPLINE-18" data-name="SPLINE">
        <path class="cls-4" d="M.25,11.98c.02-.45,.03-.91,.05-1.37,.02-.5,.03-1,.05-1.51"/>
      </g>
      <g id="SPLINE-19" data-name="SPLINE">
        <path class="cls-4" d="M31.63,1.8c.07,0,.14,.01,.21,.02,.12,0,.23,.02,.35,.03,.12,.01,.25,.02,.37,.03,.13,.01,.27,.02,.4,.03,.14,.01,.29,.03,.43,.04,.16,.01,.31,.03,.47,.04,.17,.02,.32,.03,.48,.05"/>
      </g>
      <g id="SPLINE-20" data-name="SPLINE">
        <path class="cls-2" d="M44.52,10.02s-.03,.01-.05,.02c-.01,0-.03,.01-.04,.02"/>
      </g>
      <g id="SPLINE-21" data-name="SPLINE">
        <path class="cls-4" d="M47.75,4.78c.03,.95,.07,1.89,.1,2.83"/>
      </g>
      <g id="SPLINE-22" data-name="SPLINE">
        <path class="cls-3" d="M22.76,15.84s0,0-.01,0"/>
      </g>
      <g id="SPLINE-23" data-name="SPLINE">
        <path class="cls-2" d="M1.11,11.55c0-.35,0-.71,0-1.06"/>
      </g>
      <g id="SPLINE-24" data-name="SPLINE">
        <path class="cls-3" d="M22.76,15.84s0,0,0,0"/>
      </g>
      <g id="SPLINE-25" data-name="SPLINE">
        <path class="cls-2" d="M21.48,12.43c.41,.01,.77,.25,.77,.53"/>
      </g>
      <g id="SPLINE-26" data-name="SPLINE">
        <path class="cls-2" d="M15.62,11.9c1.48,.17,3.1,.35,4.86,.47,.33,.02,.66,.04,1,.06"/>
      </g>
      <g id="SPLINE-27" data-name="SPLINE">
        <path class="cls-2" d="M15.62,11.9c-3.64-.43-7.07-.87-10.29-1.34"/>
      </g>
      <g id="SPLINE-28" data-name="SPLINE">
        <path class="cls-4" d="M34.25,1.67c-.07-.15-.14-.31-.22-.46"/>
      </g>
      <g id="SPLINE-29" data-name="SPLINE">
        <path class="cls-4" d="M34.03,1.21s-.02-.05-.03-.08c-.01-.03-.02-.06-.03-.09,0-.04-.01-.07-.02-.11,0-.04,0-.07,0-.11,.01-.06,.04-.12,.07-.17,0,0,0-.01,.01-.02"/>
      </g>
      <g id="SPLINE-30" data-name="SPLINE">
        <path class="cls-4" d="M34.04,.64s.07-.09,.11-.14"/>
      </g>
      <g id="SPLINE-31" data-name="SPLINE">
        <path class="cls-4" d="M37.15,1.27c.07,.15,.14,.3,.21,.45"/>
      </g>
      <g id="SPLINE-32" data-name="SPLINE">
        <path class="cls-4" d="M34.15,.5s.07-.07,.11-.1c.12-.08,.26-.12,.41-.14,.09-.01,.19-.02,.29-.02,.1,0,.2,0,.31,.02,.1,0,.21,.02,.32,.04,.11,.02,.22,.04,.33,.08,.09,.03,.18,.05,.27,.09,.09,.04,.18,.08,.27,.12,.15,.08,.29,.17,.41,.29,.07,.06,.13,.13,.17,.2,.04,.06,.07,.12,.1,.17"/>
      </g>
      <g id="SPLINE-33" data-name="SPLINE">
        <path class="cls-4" d="M37.37,1.73c.09,.19,.16,.4,.21,.62"/>
      </g>
      <g id="SPLINE-34" data-name="SPLINE">
        <path class="cls-2" d="M34.52,2.51s-.02,0-.03,0"/>
      </g>
      <g id="SPLINE-35" data-name="SPLINE">
        <path class="cls-4" d="M30.27,15.03s-.1,.02-.15,.02c-.39,.06-.78,.12-1.18,.18-.03,0-.06,0-.09,.01"/>
      </g>
      <g id="SPLINE-36" data-name="SPLINE">
        <path class="cls-2" d="M32.87,14.34c-.09,.03-.19,.05-.28,.08-.13,.04-.27,.08-.41,.11-.15,.04-.31,.08-.46,.12-.17,.04-.34,.08-.51,.13-.17,.04-.34,.08-.51,.12-.14,.03-.28,.06-.42,.09"/>
      </g>
      <g id="SPLINE-37" data-name="SPLINE">
        <path class="cls-4" d="M34.39,2.04c-.04-.13-.09-.26-.14-.37"/>
      </g>
      <g id="SPLINE-38" data-name="SPLINE">
        <path class="cls-2" d="M34.49,2.5c-.02-.16-.06-.31-.1-.46"/>
      </g>
      <g id="SPLINE-39" data-name="SPLINE">
        <path class="cls-2" d="M37.63,2.63s0,.05,.01,.07"/>
      </g>
      <g id="SPLINE-40" data-name="SPLINE">
        <path class="cls-2" d="M37.58,2.35c.02,.09,.04,.19,.05,.28"/>
      </g>
      <g id="SPLINE-41" data-name="SPLINE">
        <path class="cls-4" d="M32.87,14.34c0,2.81,0,5.61,0,8.42"/>
      </g>
      <g id="SPLINE-42" data-name="SPLINE">
        <path class="cls-2" d="M36.33,13.19s-.09,.03-.14,.05"/>
      </g>
      <g id="SPLINE-43" data-name="SPLINE">
        <path class="cls-4" d="M37.59,12.74c-.42,.15-.84,.3-1.27,.46"/>
      </g>
      <g id="SPLINE-44" data-name="SPLINE">
        <path class="cls-1" d="M30.25,22.8c0-2.6,0-5.21,0-7.81"/>
      </g>
      <g id="SPLINE-45" data-name="SPLINE">
        <path class="cls-4" d="M30.21,19.21s-.04,.06-.06,.08c-.33,.46-.67,.95-.96,1.43-.22,.36-.45,.77-.63,1.15-.01,.03-.02,.05-.04,.08"/>
      </g>
      <g id="SPLINE-46" data-name="SPLINE">
        <path class="cls-4" d="M37.59,12.74c-.25,.3-.51,.59-.76,.89-.62,.73-1.25,1.47-1.88,2.2-.54,.63-1.08,1.27-1.61,1.91-.16,.19-.32,.39-.48,.58"/>
      </g>
      <g id="SPLINE-47" data-name="SPLINE">
        <path class="cls-4" d="M29.33,21.83c.02-.06,.04-.13,.07-.19,.07-.18,.16-.37,.25-.54,.11-.22,.24-.45,.37-.66,.06-.09,.11-.19,.17-.28"/>
      </g>
      <g id="SPLINE-48" data-name="SPLINE">
        <path class="cls-2" d="M1.11,10.5c0-.39,.1-.67,.26-.67"/>
      </g>
      <g id="SPLINE-49" data-name="SPLINE">
        <path class="cls-2" d="M22.32,15.79c0-.32,0-.65-.01-.97,0-.32,0-.65-.01-.97,0-.32,0-.63-.01-.95"/>
      </g>
      <g id="SPLINE-50" data-name="SPLINE">
        <path class="cls-3" d="M1,12.86s0,.02,0,.03c0,0,.01,.02,.02,.02"/>
      </g>
      <g id="SPLINE-51" data-name="SPLINE">
        <path class="cls-4" d="M1,12.86s-.05-.03-.08-.04c-.07-.04-.14-.08-.21-.13-.06-.04-.11-.08-.16-.12-.04-.04-.08-.08-.12-.12-.03-.04-.06-.07-.08-.11-.02-.03-.04-.07-.06-.1-.01-.03-.03-.06-.03-.1,0-.03-.01-.06-.02-.09,0-.03,0-.05,0-.08"/>
      </g>
      <g id="SPLINE-52" data-name="SPLINE">
        <path class="cls-4" d="M.54,12.55s.06,.06,.09,.09c.05,.04,.1,.08,.16,.12,.06,.04,.13,.09,.2,.13,.02,.01,.04,.02,.07,.04"/>
      </g>
      <g id="SPLINE-53" data-name="SPLINE">
        <path class="cls-2" d="M37.62,2.72s-.09,.06-.13,.09"/>
      </g>
      <g id="SPLINE-54" data-name="SPLINE">
        <path class="cls-4" d="M35.92,13.34c-.08,.03-.16,.06-.24,.08-.09,.03-.18,.06-.27,.1-.09,.03-.18,.06-.26,.09-.09,.03-.18,.06-.27,.09-.09,.03-.18,.06-.28,.09-.09,.03-.19,.06-.29,.09-.09,.03-.18,.06-.27,.09-.08,.03-.17,.05-.25,.08-.08,.03-.17,.05-.25,.08-.09,.03-.18,.06-.28,.08-.1,.03-.21,.06-.32,.09-.03,0-.05,.02-.08,.02"/>
      </g>
      <g id="SPLINE-55" data-name="SPLINE">
        <path class="cls-2" d="M28.85,15.24c-.11,.02-.21,.04-.32,.06-.11,.02-.21,.04-.32,.05-.09,.02-.19,.03-.29,.05-.09,.01-.17,.03-.26,.04-.08,.01-.16,.02-.24,.04-.08,.01-.16,.02-.24,.03-.08,.01-.16,.02-.23,.03-.08,.01-.16,.02-.24,.03-.08,.01-.16,.02-.25,.03-.09,0-.17,.02-.26,.03-.09,.01-.18,.02-.28,.03-.1,.01-.2,.02-.31,.03-.11,.01-.23,.02-.34,.03-.12,.01-.25,.02-.37,.03-.14,.01-.28,.02-.41,.03-.14,0-.29,.02-.43,.02-.13,0-.27,.01-.4,.02-.12,0-.23,0-.35,.01-.1,0-.21,0-.31,0-.08,0-.17,0-.25,0"/>
      </g>
      <g id="SPLINE-56" data-name="SPLINE">
        <path class="cls-2" d="M22.75,15.84s0,0-.01,0c-.09,0-.19,0-.28,0-.05,0-.11,0-.16,0"/>
      </g>
      <g id="SPLINE-57" data-name="SPLINE">
        <path class="cls-4" d="M36.19,13.24s-.05,.02-.07,.02c-.06,.02-.12,.04-.18,.06,0,0-.02,0-.02,0"/>
      </g>
      <g id="SPLINE-58" data-name="SPLINE">
        <path class="cls-4" d="M44.4,10.07c-.81,.34-1.64,.68-2.5,1.03-.91,.36-1.84,.72-2.8,1.08-.5,.19-1,.37-1.51,.56"/>
      </g>
      <g id="SPLINE-59" data-name="SPLINE">
        <path class="cls-3" d="M30.46,8.37s.06,0,.1,0c.04,0,.09,0,.14,0,.11,0,.23-.01,.37-.03,.14-.02,.29-.05,.44-.08,.15-.04,.31-.08,.45-.13,.14-.05,.28-.1,.41-.16,.12-.05,.23-.11,.32-.16,.09-.05,.16-.1,.2-.13,.04-.03,.06-.05,.06-.05"/>
      </g>
      <g id="SPLINE-60" data-name="SPLINE">
        <path class="cls-4" d="M47.85,7.62s0,.04,0,.06c0,.05-.01,.1-.03,.15-.01,.05-.03,.1-.06,.15-.02,.04-.05,.09-.07,.13-.03,.04-.06,.08-.09,.13-.03,.04-.07,.09-.11,.13-.04,.04-.09,.08-.13,.13-.04,.04-.09,.08-.14,.12-.04,.03-.09,.07-.14,.1-.04,.03-.08,.06-.13,.09-.04,.03-.08,.05-.12,.08-.04,.02-.08,.05-.12,.07-.04,.02-.07,.04-.11,.06-.04,.02-.07,.04-.11,.06-.04,.02-.08,.04-.11,.06-.04,.02-.08,.04-.12,.07-.05,.02-.09,.05-.14,.07-.05,.03-.1,.05-.16,.08-.06,.03-.12,.06-.18,.09-.07,.03-.13,.06-.2,.1-.08,.04-.15,.07-.23,.11-.08,.04-.17,.08-.26,.12-.1,.04-.19,.08-.29,.13-.09,.04-.18,.08-.28,.12"/>
      </g>
      <g id="POLYLINE">
        <line class="cls-2" x1="34.52" y1="2.51" x2="37.48" y2="2.81"/>
      </g>
      <g id="SPLINE-61" data-name="SPLINE">
        <path class="cls-2" d="M1.13,12.51c6.25,1.59,13.28,2.57,21.09,2.95"/>
      </g>
      <g id="SPLINE-62" data-name="SPLINE">
        <path class="cls-2" d="M39.36,8.49c3.96-1.64,8.39-3.06,8.38-3.71"/>
      </g>
      <path class="cls-4" d="M32.84,22.75c0,.18-.58,.32-1.3,.32s-1.3-.14-1.3-.32"/>
      <g>
        <g id="SPLINE-63" data-name="SPLINE">
          <path class="cls-2" d="M24.54,17.15c-.06-.03-.13-.06-.19-.1-.07-.04-.14-.07-.21-.11-.07-.04-.14-.08-.22-.12-.08-.04-.15-.09-.24-.13s-.17-.1-.26-.15-.19-.11-.29-.17-.21-.12-.32-.19c-.11-.07-.23-.14-.36-.22-.04-.02-.07-.05-.11-.07"/>
        </g>
        <g id="SPLINE-64" data-name="SPLINE">
          <path class="cls-2" d="M24.58,17.16s-.02,0-.03-.01"/>
        </g>
        <g id="SPLINE-65" data-name="SPLINE">
          <path class="cls-2" d="M24.59,17.16s0,0-.01,0"/>
        </g>
        <g id="SPLINE-66" data-name="SPLINE">
          <path class="cls-2" d="M24.64,17.17s-.02,0-.03,0c0,0-.01,0-.02,0"/>
        </g>
        <g id="SPLINE-67" data-name="SPLINE">
          <path class="cls-2" d="M24.68,17.16s-.03,0-.05,0"/>
        </g>
        <g id="LINE">
          <line class="cls-2" x1="28.49" y1="16.3" x2="24.68" y2="17.16"/>
        </g>
        <g id="LINE-2" data-name="LINE">
          <line class="cls-2" x1="28.51" y1="16.29" x2="28.49" y2="16.3"/>
        </g>
        <g id="LINE-3" data-name="LINE">
          <line class="cls-2" x1="28.57" y1="16.28" x2="28.51" y2="16.29"/>
        </g>
        <g id="LINE-4" data-name="LINE">
          <line class="cls-2" x1="28.59" y1="16.28" x2="28.57" y2="16.28"/>
        </g>
        <g id="SPLINE-68" data-name="SPLINE">
          <path class="cls-4" d="M28.88,16.1s0,.02,0,.02c-.01,.04-.05,.06-.08,.08-.04,.02-.09,.04-.15,.05-.02,0-.04,.01-.06,.02"/>
        </g>
        <g id="LINE-5" data-name="LINE">
          <line class="cls-4" x1="28.91" y1="15.28" x2="28.88" y2="16.1"/>
        </g>
        <g id="SPLINE-69" data-name="SPLINE">
          <path class="cls-4" d="M3.36,18.69c.02-.65,.04-1.29,.06-1.93,.02-.59,.04-1.17,.06-1.75"/>
        </g>
        <g id="SPLINE-70" data-name="SPLINE">
          <path class="cls-4" d="M3.4,19.5c-.02-.06-.03-.08-.03-.1,0-.02,0-.05-.01-.08,0-.03,0-.07,0-.12,0-.05,0-.1,0-.16s0-.12,0-.18c0-.06,0-.12,0-.17"/>
        </g>
        <g id="SPLINE-71" data-name="SPLINE">
          <path class="cls-4" d="M9.61,21.44c-.09-.02-.18-.03-.27-.05-.19-.03-.37-.07-.55-.1-.17-.03-.33-.06-.5-.09-.15-.03-.3-.06-.45-.09-.14-.03-.28-.06-.42-.08-.15-.03-.3-.06-.45-.09-.15-.03-.3-.06-.45-.1-.15-.03-.29-.06-.43-.1-.13-.03-.25-.06-.38-.09-.11-.03-.22-.06-.33-.08-.1-.03-.2-.05-.29-.08-.09-.03-.17-.05-.26-.08-.08-.02-.15-.05-.22-.08-.07-.02-.13-.05-.2-.07-.06-.02-.11-.05-.16-.07-.05-.02-.09-.04-.14-.07-.04-.02-.08-.04-.12-.07-.04-.02-.08-.05-.11-.07-.04-.02-.08-.05-.11-.08-.01-.01-.03-.02-.04-.03-.02-.02-.05-.04-.07-.06-.04-.03-.07-.07-.11-.11-.04-.04-.07-.08-.1-.13-.02-.03-.03-.05-.05-.08"/>
        </g>
        <g id="SPLINE-72" data-name="SPLINE">
          <path class="cls-4" d="M9.78,21.42s-.02,0-.03,.01c-.05,.02-.09,.02-.14,.01"/>
        </g>
        <g id="SPLINE-73" data-name="SPLINE">
          <path class="cls-4" d="M28.57,16.57c0,.13,0,.27,0,.4"/>
        </g>
        <g id="LINE-6" data-name="LINE">
          <line class="cls-4" x1="28.57" y1="16.28" x2="28.57" y2="16.57"/>
        </g>
        <g id="SPLINE-74" data-name="SPLINE">
          <path class="cls-2" d="M3.69,19.85s0,0,0,0"/>
        </g>
        <g id="SPLINE-75" data-name="SPLINE">
          <path class="cls-2" d="M16.63,20.11s.02-.01,.03-.02c.01,0,.03-.01,.04-.02s.02,0,.04-.01l6.51-2.51"/>
        </g>
        <g id="SPLINE-76" data-name="SPLINE">
          <path class="cls-2" d="M13.85,22.05s.12,.01,.14,.02"/>
        </g>
        <g id="SPLINE-77" data-name="SPLINE">
          <path class="cls-2" d="M6.85,19.87s0-.08,0-.12c0-.04,0-.09,0-.13,0-.05,0-.09,.01-.14s.01-.09,.02-.14c0-.04,.02-.08,.02-.12s.02-.07,.03-.11,.02-.06,.03-.09c.01-.03,.02-.06,.03-.08,.01-.03,.02-.05,.04-.07,.01-.02,.03-.04,.04-.06,.01-.02,.03-.03,.04-.05,.01-.01,.03-.03,.04-.04s.02-.02,.04-.03c0,0,0,0,0,0l.1-.05s.02-.01,.03-.01c.01,0,.02,0,.03-.01,.01,0,.02,0,.03,0l6.39-1.97"/>
        </g>
        <g id="LINE-7" data-name="LINE">
          <line class="cls-2" x1="6.81" y1="20.83" x2="6.85" y2="19.87"/>
        </g>
        <g id="LINE-8" data-name="LINE">
          <line class="cls-2" x1="9.95" y1="19.87" x2="6.88" y2="20.9"/>
        </g>
        <g id="LINE-9" data-name="LINE">
          <line class="cls-2" x1="17.69" y1="17.13" x2="10.05" y2="19.69"/>
        </g>
        <g id="LINE-10" data-name="LINE">
          <line class="cls-2" x1="20.49" y1="17.31" x2="12.86" y2="19.87"/>
        </g>
        <g id="SPLINE-78" data-name="SPLINE">
          <path class="cls-2" d="M24.67,17.17s.02,0,.02,0"/>
        </g>
        <g id="LINE-11" data-name="LINE">
          <line class="cls-2" x1="24.48" y1="17.23" x2="24.67" y2="17.17"/>
        </g>
        <g id="SPLINE-79" data-name="SPLINE">
          <path class="cls-2" d="M24.34,17.28s.02-.01,.03-.02c.04-.02,.08-.03,.11-.04"/>
        </g>
        <g id="SPLINE-80" data-name="SPLINE">
          <path class="cls-2" d="M24.17,17.41s.06-.06,.09-.08c.03-.02,.05-.03,.08-.05"/>
        </g>
        <g id="SPLINE-81" data-name="SPLINE">
          <path class="cls-2" d="M24.16,17.42s0,0,0,0"/>
        </g>
        <g id="SPLINE-82" data-name="SPLINE">
          <path class="cls-2" d="M24.05,17.58s.01-.02,.02-.03c.03-.05,.06-.09,.09-.13,0,0,0,0,0,0"/>
        </g>
        <g id="ARC">
          <path class="cls-2" d="M24.05,17.58s0,0,0,0"/>
        </g>
        <g id="SPLINE-83" data-name="SPLINE">
          <path class="cls-2" d="M23.95,17.84c.01-.05,.03-.1,.05-.14,.02-.04,.03-.08,.05-.12"/>
        </g>
        <g id="SPLINE-84" data-name="SPLINE">
          <path class="cls-2" d="M23.88,18.27c0-.07,.02-.15,.03-.21,.01-.07,.02-.13,.04-.19,0,0,0-.02,0-.02"/>
        </g>
        <g id="SPLINE-85" data-name="SPLINE">
          <path class="cls-2" d="M23.72,20.05c.02-.19,.03-.38,.05-.56,.04-.41,.07-.82,.11-1.22"/>
        </g>
        <g id="ARC-2" data-name="ARC">
          <path class="cls-2" d="M23.71,20.08v-.02"/>
        </g>
        <g id="SPLINE-86" data-name="SPLINE">
          <path class="cls-2" d="M23.71,20.17s0-.06,0-.09"/>
        </g>
        <g id="ARC-3" data-name="ARC">
          <path class="cls-2" d="M23.7,20.18s0,0,0,0"/>
        </g>
        <g id="SPLINE-87" data-name="SPLINE">
          <path class="cls-2" d="M23.54,21.98c.04-.42,.07-.84,.11-1.25,.02-.18,.03-.37,.05-.55"/>
        </g>
        <g id="SPLINE-88" data-name="SPLINE">
          <path class="cls-2" d="M23.4,22.34s.05-.07,.07-.11c.04-.08,.07-.17,.08-.25"/>
        </g>
        <g id="SPLINE-89" data-name="SPLINE">
          <path class="cls-2" d="M23.03,22.64c.09-.04,.18-.1,.25-.17,.05-.04,.09-.09,.12-.13"/>
        </g>
        <g id="SPLINE-90" data-name="SPLINE">
          <path class="cls-2" d="M22.68,22.74c.11-.01,.22-.04,.32-.08,0,0,.02,0,.03-.01"/>
        </g>
        <g id="LINE-12" data-name="LINE">
          <line class="cls-2" x1="23.75" y1="19.39" x2="16.15" y2="22.43"/>
        </g>
        <g id="SPLINE-91" data-name="SPLINE">
          <path class="cls-2" d="M16.32,20.52s0-.01,0-.02c.01-.03,.02-.06,.04-.09,.01-.03,.03-.05,.04-.08,.01-.02,.03-.05,.04-.07,.01-.02,.03-.04,.04-.05,.01-.02,.03-.03,.04-.04,.01-.01,.03-.02,.04-.03,.01,0,.03-.01,.04-.02,.01,0,.02-.01,.04-.01,.01,0,.02,0,.03,0"/>
        </g>
        <g id="SPLINE-92" data-name="SPLINE">
          <path class="cls-2" d="M16.28,20.64s0-.03,.01-.04c0-.03,.02-.06,.03-.08"/>
        </g>
        <g id="SPLINE-93" data-name="SPLINE">
          <path class="cls-2" d="M16.19,21.34c0-.06,0-.12,.01-.18,0-.06,.01-.11,.02-.16,0-.05,.01-.1,.02-.15s.02-.09,.02-.13c0-.03,.01-.05,.02-.08"/>
        </g>
        <g id="LINE-13" data-name="LINE">
          <line class="cls-2" x1="16.14" y1="22.36" x2="16.19" y2="21.34"/>
        </g>
        <g id="LINE-14" data-name="LINE">
          <line class="cls-4" x1="12.69" y1="19.92" x2="12.51" y2="19.89"/>
        </g>
        <g id="SPLINE-94" data-name="SPLINE">
          <path class="cls-4" d="M12.71,19.93s-.02,0-.02,0"/>
        </g>
        <g id="SPLINE-95" data-name="SPLINE">
          <path class="cls-4" d="M12.74,19.94s-.02-.01-.02-.02"/>
        </g>
        <g id="SPLINE-96" data-name="SPLINE">
          <path class="cls-4" d="M12.82,20.09s-.01-.05-.02-.07c-.01-.03-.03-.05-.04-.07,0,0-.01,0-.01-.01"/>
        </g>
        <g id="SPLINE-97" data-name="SPLINE">
          <path class="cls-4" d="M12.83,20.17s0-.05,0-.08"/>
        </g>
        <g id="SPLINE-98" data-name="SPLINE">
          <path class="cls-4" d="M12.83,20.18s0,0,0,0"/>
        </g>
        <g id="SPLINE-99" data-name="SPLINE">
          <path class="cls-4" d="M12.82,21.52c0-.16,0-.33,0-.49,0-.22,0-.43,0-.65,0-.07,0-.13,0-.2"/>
        </g>
        <g id="SPLINE-100" data-name="SPLINE">
          <path class="cls-4" d="M13.16,22.03s-.09-.03-.13-.05c-.03-.02-.06-.05-.09-.08,0,0-.02-.02-.02-.03-.03-.04-.05-.09-.07-.14-.02-.05-.03-.11-.03-.16,0-.01,0-.03,0-.04"/>
        </g>
        <g id="SPLINE-101" data-name="SPLINE">
          <path class="cls-4" d="M23.26,22.74c-.11,.01-.22,.02-.33,.03-.15,.01-.3,.03-.45,.04-.14,0-.27,.02-.41,.02-.12,0-.24,.01-.36,.02-.11,0-.22,0-.33,0-.1,0-.2,0-.3,0s-.2,0-.3,0c-.11,0-.21,0-.31,0-.12,0-.23,0-.35,0-.13,0-.26-.01-.39-.02-.14,0-.27-.02-.41-.02-.14,0-.29-.02-.43-.03-.15-.01-.31-.03-.46-.04-.17-.02-.34-.03-.51-.05-.18-.02-.36-.04-.54-.06-.19-.02-.38-.05-.57-.07-.19-.02-.39-.05-.58-.07-.18-.02-.37-.05-.55-.07-.17-.02-.34-.05-.51-.07-.18-.03-.36-.05-.53-.08-.19-.03-.38-.05-.57-.08-.21-.03-.41-.06-.62-.09-.1-.02-.2-.03-.3-.05"/>
        </g>
        <g id="SPLINE-102" data-name="SPLINE">
          <path class="cls-4" d="M23.69,22.6s-.1,.05-.15,.08c-.07,.03-.15,.05-.23,.06-.01,0-.03,0-.05,0"/>
        </g>
        <g id="LINE-15" data-name="LINE">
          <line class="cls-4" x1="26.2" y1="21.11" x2="23.69" y2="22.6"/>
        </g>
        <g id="LINE-16" data-name="LINE">
          <line class="cls-4" x1="26.82" y1="20.75" x2="26.2" y2="21.11"/>
        </g>
        <g id="LINE-17" data-name="LINE">
          <line class="cls-4" x1="28.35" y1="19.84" x2="26.82" y2="20.75"/>
        </g>
        <g id="SPLINE-103" data-name="SPLINE">
          <path class="cls-4" d="M28.83,19.11c0,.12-.03,.24-.09,.34-.03,.06-.07,.12-.12,.17-.04,.04-.08,.08-.12,.12-.04,.04-.09,.07-.14,.1"/>
        </g>
        <g id="LINE-18" data-name="LINE">
          <line class="cls-4" x1="28.88" y1="17.42" x2="28.83" y2="19.11"/>
        </g>
        <g id="SPLINE-104" data-name="SPLINE">
          <path class="cls-4" d="M28.87,17.34s.01,.06,.01,.08"/>
        </g>
        <g id="SPLINE-105" data-name="SPLINE">
          <path class="cls-4" d="M28.62,17.02s.02,.02,.03,.03c.02,.02,.04,.04,.06,.07,.02,.02,.04,.05,.06,.07,.02,.03,.04,.05,.05,.08,0,.01,.01,.03,.02,.04,0,.01,.01,.03,.02,.04"/>
        </g>
        <g id="SPLINE-106" data-name="SPLINE">
          <path class="cls-2" d="M28.61,17s.01,.01,.02,.02"/>
        </g>
        <g id="LINE-19" data-name="LINE">
          <line class="cls-4" x1="28.57" y1="16.97" x2="28.61" y2="17"/>
        </g>
        <g id="LINE-20" data-name="LINE">
          <line class="cls-2" x1="23.85" y1="17.47" x2="24.17" y2="17.42"/>
        </g>
        <g id="SPLINE-107" data-name="SPLINE">
          <path class="cls-2" d="M22.39,17.48c.55,.05,1.03,.04,1.46-.02"/>
        </g>
        <g id="SPLINE-108" data-name="SPLINE">
          <path class="cls-2" d="M21.52,17.41c.29,.03,.58,.05,.87,.08"/>
        </g>
        <g id="SPLINE-109" data-name="SPLINE">
          <path class="cls-2" d="M16.61,16.98c.16,.02,.32,.04,.47,.05,.15,.02,.3,.03,.44,.05,.14,.02,.28,.03,.42,.04s.28,.03,.42,.04c.14,.01,.28,.03,.42,.04,.14,.01,.28,.03,.42,.04s.28,.02,.43,.04c.14,.01,.29,.02,.44,.03,.15,.01,.3,.02,.46,.03,.15,0,.3,.02,.45,.03,.14,0,.28,.02,.42,.02,.04,0,.09,0,.13,0"/>
        </g>
        <g id="SPLINE-110" data-name="SPLINE">
          <path class="cls-2" d="M11.44,16.35c.23,.03,.47,.06,.72,.09,.26,.03,.53,.07,.8,.1s.56,.07,.83,.1c.27,.03,.54,.07,.79,.1,.25,.03,.49,.06,.73,.09,.23,.03,.45,.05,.67,.08s.43,.05,.63,.07"/>
        </g>
        <g id="SPLINE-111" data-name="SPLINE">
          <path class="cls-2" d="M6.95,15.72c.18,.03,.37,.06,.56,.09,.2,.03,.4,.06,.63,.09,.22,.03,.46,.07,.73,.1,.26,.04,.55,.08,.85,.12,.3,.04,.6,.08,.89,.12,.29,.04,.56,.08,.83,.11"/>
        </g>
        <g id="SPLINE-112" data-name="SPLINE">
          <path class="cls-2" d="M4.38,15.2s.01,0,.02,0c.03,.01,.07,.03,.12,.04,.05,.02,.1,.03,.15,.05,.06,.02,.12,.03,.18,.05,.06,.02,.13,.03,.2,.05s.14,.03,.22,.05c.07,.02,.15,.03,.23,.05,.08,.02,.16,.03,.25,.05,.09,.02,.17,.03,.26,.05,.09,.02,.18,.03,.28,.05s.2,.03,.31,.05c.11,.02,.22,.03,.34,.05"/>
        </g>
        <g id="SPLINE-113" data-name="SPLINE">
          <path class="cls-2" d="M4.37,15.19s.01,0,.02,0"/>
        </g>
        <g id="SPLINE-114" data-name="SPLINE">
          <path class="cls-2" d="M4.24,15.12s0,0,0,0c.02,.01,.04,.03,.07,.04,.02,0,.04,.02,.06,.03"/>
        </g>
        <g id="SPLINE-115" data-name="SPLINE">
          <path class="cls-2" d="M3.84,14.94c.09,.04,.1,.05,.11,.05,.07,.03,.16,.07,.29,.13"/>
        </g>
        <g id="SPLINE-116" data-name="SPLINE">
          <path class="cls-2" d="M3.53,14.89c.08,.01,.17,.03,.25,.04"/>
        </g>
        <g id="SPLINE-117" data-name="SPLINE">
          <path class="cls-4" d="M2.54,14.4s.06,.04,.1,.06c.13,.08,.27,.15,.4,.24,.13,.08,.25,.16,.37,.23"/>
        </g>
        <g id="SPLINE-118" data-name="SPLINE">
          <path class="cls-4" d="M1.16,12.94c.46,.49,.93,.98,1.39,1.47"/>
        </g>
        <g id="SPLINE-119" data-name="SPLINE">
          <path class="cls-4" d="M9.97,21.04c0-.09,.01-.18,.02-.28l.06-.95s.02-.15,.21-.11l2.25,.19"/>
        </g>
        <g id="SPLINE-120" data-name="SPLINE">
          <path class="cls-4" d="M9.89,21.32s0-.01,.01-.02c.02-.03,.04-.07,.05-.12,.01-.04,.02-.09,.02-.14"/>
        </g>
        <g id="SPLINE-121" data-name="SPLINE">
          <path class="cls-4" d="M9.78,21.41s.03-.02,.05-.03c.02-.02,.04-.04,.06-.07"/>
        </g>
        <g id="LINE-21" data-name="LINE">
          <line class="cls-4" x1="12.61" y1="20" x2="9.78" y2="21.41"/>
        </g>
      </g>
      <g id="SPLINE-122" data-name="SPLINE">
        <path class="cls-2" d="M33.96,28.78s-.02-.09-.03-.13"/>
      </g>
      <g id="SPLINE-123" data-name="SPLINE">
        <path class="cls-4" d="M38.02,28.12c-.03,.06-.06,.11-.1,.16-.02,.03-.04,.05-.06,.08-.09,.1-.19,.18-.29,.23-.02,.01-.05,.02-.07,.03"/>
      </g>
      <g id="SPLINE-124" data-name="SPLINE">
        <path class="cls-4" d="M38.02,28.12s1.04-2.6-.12-4.87"/>
      </g>
      <g id="SPLINE-125" data-name="SPLINE">
        <path class="cls-2" d="M38.31,24.57c-1.22,.3-2.45,.61-3.68,.91"/>
      </g>
      <g id="SPLINE-126" data-name="SPLINE">
        <path class="cls-2" d="M38.35,24.56s0,0-.01,0c-.01,0-.02,0-.03,.01"/>
      </g>
      <g id="SPLINE-127" data-name="SPLINE">
        <path class="cls-4" d="M29.37,21.86c.28,.04,.56,.08,.84,.12"/>
      </g>
      <g id="SPLINE-128" data-name="SPLINE">
        <path class="cls-2" d="M30.2,21.99s-.07,0-.11,.01"/>
      </g>
      <g id="SPLINE-129" data-name="SPLINE">
        <path class="cls-4" d="M34.49,29.35c-1.32-.22-2.63-.43-3.93-.64"/>
      </g>
      <g id="SPLINE-130" data-name="SPLINE">
        <path class="cls-2" d="M34.01,28.77s.07,.01,.11,.02"/>
      </g>
      <g id="SPLINE-131" data-name="SPLINE">
        <path class="cls-4" d="M37.5,28.61c-.92,.24-1.85,.48-2.78,.73"/>
      </g>
      <g id="SPLINE-132" data-name="SPLINE">
        <path class="cls-2" d="M34.49,29.35c-.07-.01-.14-.04-.2-.08"/>
      </g>
      <g id="SPLINE-133" data-name="SPLINE">
        <path class="cls-2" d="M30.59,23.36c-.11,.03-.25,.04-.41,.02"/>
      </g>
      <g id="SPLINE-134" data-name="SPLINE">
        <path class="cls-2" d="M26.31,23.28c.06-.23,.16-.39,.32-.47"/>
      </g>
      <g id="SPLINE-135" data-name="SPLINE">
        <path class="cls-2" d="M26.2,27.33c-.11-.52-.16-1.07-.17-1.64"/>
      </g>
      <g id="SPLINE-136" data-name="SPLINE">
        <path class="cls-2" d="M26.73,22.78s-.02,0-.02,0"/>
      </g>
      <g id="SPLINE-137" data-name="SPLINE">
        <path class="cls-4" d="M27.25,28.16c-.43-.05-.86-.09-1.29-.14"/>
      </g>
      <g id="SPLINE-138" data-name="SPLINE">
        <path class="cls-4" d="M25.29,27.25c-.27-1.28-.22-2.72,.12-4.1"/>
      </g>
      <g id="SPLINE-139" data-name="SPLINE">
        <path class="cls-4" d="M25.4,23.15c.02-.1,.06-.19,.12-.27,.03-.04,.06-.08,.1-.11,.06-.06,.13-.1,.21-.12,0,0,.01,0,.02,0"/>
      </g>
      <g id="SPLINE-140" data-name="SPLINE">
        <path class="cls-4" d="M25.84,22.65c.49-.11,.99-.23,1.48-.34"/>
      </g>
      <g id="SPLINE-141" data-name="SPLINE">
        <path class="cls-4" d="M29.21,21.87c.05-.01,.1-.01,.16,0"/>
      </g>
      <g id="SPLINE-142" data-name="SPLINE">
        <path class="cls-4" d="M25.96,28.02s-.06-.01-.09-.02c-.13-.04-.25-.13-.35-.24-.09-.11-.16-.24-.2-.39,0-.01,0-.03-.01-.05,0-.02-.01-.05-.02-.07"/>
      </g>
      <g id="SPLINE-143" data-name="SPLINE">
        <path class="cls-2" d="M30.09,23.9c-.34,1.42-.38,2.78-.12,4.09"/>
      </g>
      <g id="SPLINE-144" data-name="SPLINE">
        <path class="cls-2" d="M30.42,23.42c-.16,.08-.26,.24-.32,.47"/>
      </g>
      <g id="SPLINE-145" data-name="SPLINE">
        <path class="cls-2" d="M26.03,25.69s0-.05,0-.07c0-.78,.09-1.56,.28-2.33"/>
      </g>
      <g id="SPLINE-146" data-name="SPLINE">
        <path class="cls-2" d="M31.84,23.09c-.05,.01-1.38,.31-1.43,.33"/>
      </g>
      <g id="SPLINE-147" data-name="SPLINE">
        <path class="cls-2" d="M33.27,25.71c0,.07-.02,.13-.04,.19-.02,.06-.04,.13-.06,.19-.02,.06-.05,.12-.08,.17-.03,.05-.06,.11-.1,.15-.04,.05-.08,.09-.12,.12-.01,0-.02,.02-.03,.02"/>
      </g>
      <g id="SPLINE-148" data-name="SPLINE">
        <path class="cls-2" d="M31.62,24.15s0-.02,0-.03"/>
      </g>
      <g id="SPLINE-149" data-name="SPLINE">
        <path class="cls-2" d="M31.41,25.4c.04-.42,.12-.84,.21-1.25"/>
      </g>
      <g id="SPLINE-150" data-name="SPLINE">
        <path class="cls-2" d="M34.12,28.78s.04,0,.07,0c.02,0,.05,0,.08,0,.03,0,.05,0,.08,0s.06,0,.09,0c.03,0,.06,0,.09,0,.03,0,.05,0,.08,0,.03,0,.06,0,.09-.02"/>
      </g>
      <g id="SPLINE-151" data-name="SPLINE">
        <path class="cls-2" d="M34.02,28.93s-.04-.1-.05-.15"/>
      </g>
      <g id="SPLINE-152" data-name="SPLINE">
        <path class="cls-2" d="M38.44,25.48s0,0,0,0c0,0,0,0-.01,0"/>
      </g>
      <g id="SPLINE-153" data-name="SPLINE">
        <path class="cls-2" d="M38.42,25.49s-.02,0-.03,0"/>
      </g>
      <g id="SPLINE-154" data-name="SPLINE">
        <path class="cls-2" d="M30.18,23.38s-.05,0-.08,0"/>
      </g>
      <g id="SPLINE-155" data-name="SPLINE">
        <path class="cls-2" d="M34.26,26.5s-.03,0-.04,0c-.04,0-.07,0-.11,0-.04,0-.07,0-.11,0-.04,0-.07,0-.1,0-.03,0-.06,0-.09-.01"/>
      </g>
      <g id="SPLINE-156" data-name="SPLINE">
        <path class="cls-2" d="M33.82,27.65s.06,0,.09,.01c.03,0,.07,0,.1,0,.04,0,.07,0,.11,0,.04,0,.07,0,.11,0,.04,0,.07,0,.1,0,.03,0,.06,0,.09,0s.06,0,.08-.01"/>
      </g>
      <g id="SPLINE-157" data-name="SPLINE">
        <path class="cls-2" d="M34.49,26.47s-.04,0-.06,.01c-.02,0-.05,0-.07,0-.02,0-.03,0-.05,0"/>
      </g>
      <g id="SPLINE-158" data-name="SPLINE">
        <path class="cls-2" d="M31.63,24.12c.05-.2,.17-.37,.31-.44"/>
      </g>
      <g id="SPLINE-159" data-name="SPLINE">
        <path class="cls-4" d="M28.14,22.12c.36-.08,.71-.16,1.07-.25"/>
      </g>
      <g id="SPLINE-160" data-name="SPLINE">
        <path class="cls-4" d="M27.32,22.3c.27-.06,.55-.13,.82-.19"/>
      </g>
      <g id="SPLINE-161" data-name="SPLINE">
        <path class="cls-2" d="M31.63,24.13s0,0,0,0"/>
      </g>
      <g id="SPLINE-162" data-name="SPLINE">
        <path class="cls-2" d="M38.31,26.68s.03,0,.04-.01"/>
      </g>
      <g id="SPLINE-163" data-name="SPLINE">
        <path class="cls-2" d="M33.34,25.28c-.02,.13-.04,.26-.06,.38"/>
      </g>
      <g id="SPLINE-164" data-name="SPLINE">
        <path class="cls-2" d="M31.94,23.68s.04-.02,.07-.02"/>
      </g>
      <g id="SPLINE-165" data-name="SPLINE">
        <path class="cls-1" d="M33.98,22.59c-.24-.05-.48-.09-.72-.14l-.41-.08"/>
      </g>
      <g id="SPLINE-166" data-name="SPLINE">
        <path class="cls-2" d="M37.56,23.32s0,0,0,0"/>
      </g>
      <g id="SPLINE-167" data-name="SPLINE">
        <path class="cls-2" d="M34.42,24.08c-.18,.04-.3,.2-.37,.47"/>
      </g>
      <g id="SPLINE-168" data-name="SPLINE">
        <path class="cls-4" d="M30.3,28.64c.08,.04,.17,.06,.26,.07"/>
      </g>
      <g id="SPLINE-169" data-name="SPLINE">
        <path class="cls-2" d="M34.29,29.27c-.11-.07-.2-.19-.27-.34"/>
      </g>
      <g id="SPLINE-170" data-name="SPLINE">
        <path class="cls-2" d="M34.42,24.08c1.18-.29,2.35-.57,3.51-.85"/>
      </g>
      <g id="SPLINE-171" data-name="SPLINE">
        <path class="cls-2" d="M33.87,23.98c.55-.14,1.1-.27,1.65-.4l2.12-.52"/>
      </g>
      <g id="SPLINE-172" data-name="SPLINE">
        <path class="cls-2" d="M34.52,27.64c1.27-.32,2.53-.65,3.79-.97"/>
      </g>
      <g id="SPLINE-173" data-name="SPLINE">
        <path class="cls-2" d="M34.32,23.11c.36-.09,.72-.17,1.08-.26"/>
      </g>
      <g id="SPLINE-174" data-name="SPLINE">
        <path class="cls-2" d="M34.71,28.77c1.16-.3,2.26-.59,3.4-.89"/>
      </g>
      <g id="SPLINE-175" data-name="SPLINE">
        <path class="cls-2" d="M32,23.66c.78-.19,1.55-.37,2.32-.55"/>
      </g>
      <g id="SPLINE-176" data-name="SPLINE">
        <path class="cls-2" d="M33.89,28.41c-.2-1.24-.15-2.53,.17-3.86"/>
      </g>
      <g id="SPLINE-177" data-name="SPLINE">
        <path class="cls-2" d="M30.1,23.37c-1.12-.2-2.24-.39-3.35-.59"/>
      </g>
      <g id="SPLINE-178" data-name="SPLINE">
        <path class="cls-2" d="M26.84,28.1c-.28-.05-.48-.25-.6-.61"/>
      </g>
      <g id="SPLINE-179" data-name="SPLINE">
        <path class="cls-2" d="M26.24,27.49c-.02-.05-.03-.1-.04-.16"/>
      </g>
      <g id="SPLINE-180" data-name="SPLINE">
        <path class="cls-2" d="M29.97,27.99c.06,.3,.18,.51,.37,.63"/>
      </g>
      <g id="SPLINE-181" data-name="SPLINE">
        <path class="cls-2" d="M32.85,26.56s-.07,.05-.11,.07c-.05,.03-.1,.05-.15,.06-.05,.01-.1,.02-.16,.03-.05,0-.1,0-.16,0"/>
      </g>
      <g id="SPLINE-182" data-name="SPLINE">
        <path class="cls-2" d="M38.39,25.5c-1.29,.32-2.59,.65-3.89,.98"/>
      </g>
      <g id="SPLINE-183" data-name="SPLINE">
        <path class="cls-2" d="M34.6,25.49s-.05,0-.08,.01-.06,0-.09,0-.07,0-.1,0c-.03,0-.07,0-.11,0-.04,0-.07,0-.1,0-.03,0-.07,0-.1,0-.03,0-.06,0-.09,0"/>
      </g>
      <g id="SPLINE-184" data-name="SPLINE">
        <path class="cls-4" d="M34.71,29.34c-.08,.02-.15,.02-.23,.01"/>
      </g>
      <g id="SPLINE-185" data-name="SPLINE">
        <path class="cls-2" d="M34.49,29.35c-.18-.03-.33-.15-.44-.36"/>
      </g>
      <g id="SPLINE-186" data-name="SPLINE">
        <path class="cls-4" d="M33.99,22.59c.48,.07,.96,.15,1.44,.22"/>
      </g>
      <g id="SPLINE-187" data-name="SPLINE">
        <path class="cls-2" d="M33.87,23.98c-.16,.04-.31,.23-.37,.48"/>
      </g>
      <g id="SPLINE-188" data-name="SPLINE">
        <path class="cls-2" d="M33.93,28.65c-.02-.08-.03-.16-.04-.24"/>
      </g>
      <g id="SPLINE-189" data-name="SPLINE">
        <path class="cls-2" d="M33.81,27.84c-.1-1.07-.02-2.16,.24-3.27"/>
      </g>
      <g id="SPLINE-190" data-name="SPLINE">
        <path class="cls-2" d="M33.5,24.46c-.07,.27-.12,.54-.17,.82"/>
      </g>
      <g id="SPLINE-191" data-name="SPLINE">
        <path class="cls-2" d="M33.28,25.66s0,.03,0,.04"/>
      </g>
      <g id="SPLINE-192" data-name="SPLINE">
        <path class="cls-2" d="M32.28,26.71c-.05,0-.1-.02-.16-.04-.05-.02-.1-.05-.16-.08-.05-.03-.1-.07-.15-.11-.05-.04-.09-.09-.13-.14-.04-.05-.08-.1-.11-.16-.03-.06-.06-.12-.09-.18-.02-.06-.04-.13-.06-.2-.01-.07-.02-.13-.03-.2,0-.07,0-.13,0-.2"/>
      </g>
      <g id="SPLINE-193" data-name="SPLINE">
        <path class="cls-2" d="M34.6,25.49s.01,0,.02,0"/>
      </g>
      <g id="SPLINE-194" data-name="SPLINE">
        <path class="cls-2" d="M26.63,22.81s.05-.02,.07-.03"/>
      </g>
      <g id="POLYLINE-2" data-name="POLYLINE">
        <line class="cls-2" x1="26.73" y1="22.78" x2="30.09" y2="22"/>
      </g>
      <line class="cls-4" x1="30.33" y1="28.66" x2="27.17" y2="28.16"/>
      <line class="cls-1" x1="35.42" y1="22.85" x2="35.42" y2="23.64"/>
      <g>
        <polygon class="cls-5" points="40.02 15.98 41.41 17.8 42.81 15.98 42.12 15.98 42.12 13.58 40.71 13.58 40.71 15.98 40.02 15.98"/>
        <polygon class="cls-5" points="42.81 20.81 41.41 18.99 40.02 20.81 40.71 20.81 40.71 23.21 42.12 23.21 42.12 20.81 42.81 20.81"/>
      </g>
    </g>
  </g>
</svg>