<?xml version="1.0" encoding="UTF-8"?>
<svg id="Layer_2" data-name="Layer 2" xmlns="http://www.w3.org/2000/svg" viewBox="0 0 69.27 31.03">
  <defs>
    <style>
      .cls-1, .cls-2, .cls-3, .cls-4 {
        fill: none;
        stroke: #54565a;
        stroke-linejoin: round;
      }

      .cls-1, .cls-4 {
        stroke-width: .5px;
      }

      .cls-2 {
        stroke-width: .25px;
      }

      .cls-2, .cls-3, .cls-4 {
        stroke-linecap: round;
      }

      .cls-3 {
        stroke-width: .15px;
      }

      .cls-5 {
        fill: #54565a;
      }
    </style>
  </defs>
  <g id="Camada_1" data-name="Camada 1">
    <g>
      <line class="cls-3" x1="19.88" y1="24.45" x2="20.32" y2="22.68"/>
      <path class="cls-4" d="M15.2,28.04c-.33,.1-.63,.14-.93,.09"/>
      <line class="cls-3" x1="18.06" y1="24.95" x2="18.72" y2="22.32"/>
      <line class="cls-3" x1="16.34" y1="25.6" x2="17.25" y2="21.97"/>
      <line class="cls-3" x1="14.56" y1="25.91" x2="15.66" y2="21.52"/>
      <line class="cls-3" x1="12.75" y1="25.92" x2="13.95" y2="21.11"/>
      <line class="cls-3" x1="11.18" y1="25.65" x2="12.37" y2="20.87"/>
      <path class="cls-2" d="M6.26,26.34s-.06-.02-.09-.04c-.02,0-.04-.02-.05-.03,0,0-.02,0-.02-.01"/>
      <path class="cls-4" d="M4.54,25.75c-1.76-.68-3.06-1.44-3.91-2.26"/>
      <path class="cls-4" d="M21.71,26.11c-2.13,.63-4.3,1.28-6.51,1.93"/>
      <path class="cls-4" d="M4.85,27.44c-.12-.57-.23-1.15-.35-1.73"/>
      <path class="cls-4" d="M6.83,27.94s0,.01,0,.02c0,.02,0,.03,0,.05,0,0,0,.01,0,.02,0,.02-.02,.04-.04,.05"/>
      <path class="cls-2" d="M6.08,26.26c-.56-.18-1.09-.36-1.57-.55"/>
      <path class="cls-4" d="M6.76,28.07s.07-.09,.05-.14"/>
      <path class="cls-4" d="M14.27,28.13c-3.04-.48-5.63-1.05-7.75-1.7"/>
      <path class="cls-4" d="M6.6,28.13s-.02,0-.03,0c0,0-.02,0-.02,0-.01,0-.03,0-.04,0"/>
      <path class="cls-4" d="M6.73,28.09s-.08,.03-.13,.04"/>
      <path class="cls-4" d="M6.53,26.43c.1,.5,.2,1,.3,1.5"/>
      <path class="cls-4" d="M22.61,25.63c-.21,.24-.53,.37-.9,.48"/>
      <path class="cls-4" d="M22.77,25.13c.01,.08,0,.16-.02,.24-.03,.1-.08,.19-.15,.26"/>
      <path class="cls-4" d="M.63,23.49s-.04-.04-.06-.06c-.04-.05-.06-.11-.07-.17"/>
      <path class="cls-4" d="M22.55,23.63c.08,.5,.15,1,.23,1.49"/>
      <path class="cls-4" d="M.5,23.25c-.08-.43-.16-.86-.25-1.3"/>
      <path class="cls-4" d="M21.96,23.09c.1,.02,.2,.06,.29,.12,.08,.05,.16,.12,.21,.2,.04,.07,.07,.14,.08,.22"/>
      <path class="cls-4" d="M8.53,19.75c4.1,1.02,8.57,2.13,13.43,3.34"/>
      <path class="cls-4" d="M6.75,19.88c.31-.07,.64-.13,.96-.16,.34-.03,.58-.04,.82,.02"/>
      <path class="cls-4" d="M.92,21.31c1.97-.48,3.91-.95,5.83-1.42"/>
      <path class="cls-4" d="M.26,21.96c-.01-.06,0-.12,0-.18,.02-.07,.05-.13,.1-.19,.06-.07,.13-.12,.21-.16,.11-.05,.21-.09,.34-.12"/>
      <path class="cls-4" d="M6.51,28.13c-.56-.19-1.09-.39-1.59-.6"/>
      <path class="cls-4" d="M6.77,28.07s-.02,.01-.04,.02"/>
      <path class="cls-2" d="M6.28,26.35s-.01,0-.02,0"/>
      <path class="cls-2" d="M6.42,26.37s-.09,0-.14-.02"/>
      <path class="cls-4" d="M6.71,28.09s0,0,0,0"/>
      <path class="cls-2" d="M.32,21.69s2.9,3.06,13.84,4.42c.62,.08,5.65-1.48,8.32-2.53"/>
      <line class="cls-3" x1="5.4" y1="20.23" x2="10.28" y2="20.19"/>
      <line class="cls-3" x1="2.44" y1="21.03" x2="13.02" y2="20.87"/>
      <line class="cls-3" x1=".74" y1="22.01" x2="16.62" y2="21.77"/>
      <line class="cls-3" x1="2.4" y1="23.03" x2="20.48" y2="22.75"/>
      <line class="cls-3" x1="5.07" y1="24.15" x2="21.6" y2="23.89"/>
      <line class="cls-3" x1="9.02" y1="25.25" x2="18" y2="25.11"/>
      <line class="cls-3" x1="9.46" y1="25.35" x2="10.78" y2="20.31"/>
      <line class="cls-3" x1="7.89" y1="24.99" x2="9.19" y2="19.98"/>
      <line class="cls-3" x1="6.36" y1="24.55" x2="7.61" y2="19.79"/>
      <line class="cls-3" x1="4.87" y1="24" x2="5.89" y2="20.13"/>
      <line class="cls-3" x1="3.52" y1="23.51" x2="4.3" y2="20.51"/>
      <line class="cls-2" x1="1.98" y1="22.79" x2="2.48" y2="20.92"/>
      <polygon class="cls-5" points="31.7 27.39 32.87 25.62 27.94 25.58 28.87 26.03 24.83 27.16 26.73 28.08 30.77 26.94 31.7 27.39"/>
      <path class="cls-4" d="M53.26,18.15c.55-.66,1.1-1.32,1.65-1.96,.66-.77,1.32-1.55,1.98-2.32,0,0,0,0,0-.01"/>
      <path class="cls-4" d="M58.28,2.46c.34,.04,.67,.07,1.01,.11,.31,.03,.62,.07,.93,.1,.29,.03,.58,.06,.86,.1,.27,.03,.53,.06,.79,.09,.22,.03,.43,.05,.65,.08"/>
      <path class="cls-2" d="M60.1,8.91c-.26,.11-.49,.21-.6,.25-.06,.03-.26,.1-.46,.18-.14,.05-.28,.11-.43,.17-.37,.14-.78,.3-1.2,.45-.42,.16-.87,.32-1.33,.48-.23,.08-.47,.16-.71,.24-.24,.08-.48,.16-.73,.25-.25,.08-.49,.16-.74,.24-.24,.08-.49,.15-.73,.23-.25,.07-.5,.15-.75,.22-.26,.07-.52,.14-.79,.21-.27,.07-.55,.14-.85,.2-.29,.07-.59,.13-.9,.19-.31,.06-.63,.12-.97,.18-.33,.06-.67,.11-1.01,.16-.34,.05-.7,.1-1.05,.14-.36,.04-.72,.08-1.08,.12-.37,.04-.73,.07-1.1,.09-.37,.03-.74,.05-1.1,.06-.37,.02-.73,.03-1.09,.04-.02,0-.04,0-.06,0,0,0-.47,.13-.28,.56"/>
      <path class="cls-4" d="M62.53,2.94c.21,.03,.41,.05,.62,.08,.21,.03,.43,.05,.64,.08,.19,.03,.39,.05,.57,.08,.17,.03,.35,.05,.52,.08,.15,.02,.31,.05,.46,.07,.13,.02,.27,.05,.4,.07,.12,.02,.23,.04,.35,.07,.1,.02,.21,.04,.31,.07,.09,.02,.18,.04,.27,.06,.08,.02,.16,.04,.24,.06,.07,.02,.15,.04,.21,.06,.06,.02,.13,.04,.19,.06,.06,.02,.11,.04,.17,.05,.05,.02,.1,.03,.14,.05,.04,.02,.08,.03,.12,.05,.04,.01,.08,.03,.11,.05,.04,.01,.07,.03,.1,.04,.03,.02,.07,.03,.1,.05,.03,.02,.07,.03,.1,.05,.04,.02,.07,.04,.11,.06,.04,.02,.08,.04,.11,.07,.04,.03,.08,.05,.12,.08,.04,.03,.08,.06,.12,.09,0,0,.01,0,.02,.02,.03,.03,.07,.06,.1,.1,.04,.04,.07,.09,.1,.13,.03,.05,.05,.09,.07,.14,.02,.05,.03,.09,.03,.14,0,.02,0,.04,0,.06"/>
      <path class="cls-2" d="M19.89,13.14c0-.34,0-.67-.01-1.01"/>
      <path class="cls-2" d="M20.06,13.71s-.07-.08-.09-.13c-.03-.06-.05-.12-.06-.2-.01-.07-.02-.15-.02-.24"/>
      <path class="cls-2" d="M20.21,10.32c.14,.04,.3,.09,.47,.13,.96,.24,2.32,.45,3.64,.64"/>
      <path class="cls-3" d="M20.15,10.31s.04,0,.05,0"/>
      <path class="cls-2" d="M65.42,10.56s-.01,0-.02,0"/>
      <path class="cls-3" d="M51.98,1.88s0,0,0,0"/>
      <line class="cls-4" x1="32.75" y1="3.83" x2="32.8" y2="3.81"/>
      <path class="cls-4" d="M23.84,6.77c.52-.18,1.04-.37,1.57-.55,.5-.17,1.01-.35,1.52-.52,.46-.16,.92-.31,1.39-.46,.42-.14,.85-.28,1.27-.42,.39-.13,.78-.25,1.17-.37,.36-.11,.72-.23,1.08-.34,.3-.09,.61-.19,.91-.28"/>
      <path class="cls-4" d="M19.08,9.55s0-.08,.02-.12c.01-.05,.03-.1,.05-.15,.02-.06,.06-.11,.09-.16,.04-.06,.08-.11,.13-.17,0,0,0-.01,.02-.02,.05-.05,.1-.1,.15-.15,.06-.06,.14-.12,.21-.17,.08-.06,.17-.12,.26-.18,.09-.06,.18-.11,.27-.17,.09-.05,.17-.1,.27-.15,.09-.05,.18-.09,.27-.14,.1-.05,.2-.1,.3-.14,.11-.05,.23-.1,.34-.15,.12-.05,.24-.1,.36-.15,.11-.05,.23-.09,.34-.14,.12-.05,.24-.09,.36-.14,.13-.05,.27-.1,.41-.15,.15-.06,.3-.11,.46-.17,.15-.05,.29-.11,.44-.16"/>
      <path class="cls-3" d="M50.68,8.78s.03,0,.06,0"/>
      <path class="cls-4" d="M33.02,3.75c.07-.02,.13-.04,.2-.06,.1-.03,.2-.06,.31-.09,.12-.04,.23-.07,.35-.1,.13-.04,.26-.08,.4-.12,.15-.04,.31-.09,.46-.13,.17-.05,.35-.1,.53-.15,.2-.05,.41-.11,.61-.16,.2-.05,.41-.1,.61-.15,.19-.05,.38-.09,.58-.13,.18-.04,.36-.08,.54-.12,.16-.03,.33-.07,.5-.1,.15-.03,.31-.06,.46-.09,.14-.03,.28-.05,.42-.07,.13-.02,.26-.04,.39-.07,.13-.02,.26-.04,.39-.06,.13-.02,.27-.04,.4-.06,.14-.02,.28-.04,.42-.06,.15-.02,.29-.04,.44-.06,.15-.02,.31-.04,.47-.06,.17-.02,.34-.04,.5-.05,.18-.02,.37-.04,.55-.05,.2-.02,.41-.03,.61-.05,.23-.02,.46-.03,.69-.05,.25-.02,.5-.03,.75-.04,.25-.01,.51-.02,.76-.03,.25,0,.5-.01,.74-.02,.27,0,.53,0,.79,0,.3,0,.6,0,.89,.01,.29,0,.58,.02,.87,.03,.26,.01,.52,.02,.78,.04,.27,.01,.54,.03,.81,.05,.29,.02,.58,.04,.87,.06,.28,.02,.56,.04,.84,.07"/>
      <path class="cls-4" d="M32.8,3.81s.04-.01,.06-.02c.05-.02,.11-.03,.16-.05"/>
      <path class="cls-3" d="M19.79,13.57s.02,0,.03,0"/>
      <path class="cls-4" d="M18.97,12.58c.02-.48,.03-.96,.05-1.44,.02-.52,.04-1.05,.05-1.58"/>
      <path class="cls-4" d="M51.96,1.88c.07,0,.14,.01,.22,.02,.12,.01,.24,.02,.36,.03,.13,.01,.26,.02,.39,.03,.14,.01,.28,.02,.42,.04,.15,.01,.3,.03,.46,.04,.16,.01,.33,.03,.49,.04,.18,.02,.33,.03,.51,.05"/>
      <path class="cls-2" d="M65.52,10.52s-.03,.01-.05,.02c-.01,0-.03,.01-.04,.02"/>
      <path class="cls-4" d="M68.91,5.02c.03,.99,.07,1.99,.11,2.98"/>
      <path class="cls-3" d="M42.64,16.64s-.01,0-.01,0"/>
      <path class="cls-2" d="M19.88,12.13c0-.37,0-.74,0-1.11"/>
      <path class="cls-3" d="M42.64,16.65s0,0,0,0"/>
      <path class="cls-2" d="M41.3,13.06c.43,.02,.81,.26,.81,.56"/>
      <path class="cls-2" d="M35.13,12.5c1.55,.18,3.26,.37,5.11,.49,.34,.02,.69,.04,1.05,.06"/>
      <path class="cls-2" d="M35.13,12.5c-3.83-.45-7.44-.92-10.81-1.41"/>
      <path class="cls-4" d="M54.72,1.74c-.08-.16-.15-.32-.23-.48"/>
      <path class="cls-4" d="M54.49,1.26s-.03-.06-.04-.08c-.01-.03-.02-.07-.03-.1,0-.04-.02-.08-.02-.11,0-.04,0-.08,0-.11,.01-.07,.04-.13,.08-.18,0,0,0-.01,.01-.02"/>
      <path class="cls-4" d="M54.5,.66s.08-.09,.12-.14"/>
      <path class="cls-4" d="M57.77,1.32c.07,.16,.15,.32,.22,.48"/>
      <path class="cls-4" d="M54.62,.52s.07-.08,.12-.1c.12-.08,.27-.12,.43-.14,.1-.01,.2-.02,.31-.02,.1,0,.21,0,.32,.02,.11,.01,.22,.03,.34,.05,.11,.02,.23,.05,.35,.08,.09,.03,.19,.06,.28,.09,.1,.04,.19,.08,.29,.13,.15,.08,.31,.18,.44,.31,.07,.07,.13,.14,.18,.21,.04,.06,.08,.12,.1,.18"/>
      <path class="cls-4" d="M58,1.8c.09,.2,.17,.42,.22,.65"/>
      <path class="cls-2" d="M55,2.63s-.02,0-.03,0"/>
      <path class="cls-4" d="M50.53,15.79c-.05,0-.1,.02-.16,.02-.41,.06-.82,.12-1.24,.18-.03,0-.06,0-.09,.01"/>
      <path class="cls-2" d="M53.27,15.06c-.1,.03-.2,.06-.3,.08-.14,.04-.28,.08-.43,.12-.16,.04-.32,.09-.49,.13-.18,.05-.36,.09-.54,.13-.18,.04-.36,.08-.54,.12-.15,.03-.29,.06-.45,.1"/>
      <path class="cls-4" d="M54.86,2.13c-.04-.14-.09-.27-.15-.39"/>
      <path class="cls-2" d="M54.97,2.62c-.02-.17-.06-.33-.1-.48"/>
      <path class="cls-2" d="M58.28,2.75s0,.05,.01,.08"/>
      <path class="cls-2" d="M58.22,2.46c.02,.1,.04,.19,.06,.29"/>
      <path class="cls-4" d="M53.27,15.06c0,2.95,0,5.9,0,8.85"/>
      <path class="cls-2" d="M56.9,13.86s-.1,.03-.14,.05"/>
      <path class="cls-4" d="M58.23,13.38c-.44,.16-.88,.32-1.33,.48"/>
      <path class="cls-1" d="M50.52,23.96c0-2.73,0-5.47,.01-8.22"/>
      <path class="cls-4" d="M50.52,21.36s-.02,.03-.03,.05c-.18,.27-.35,.56-.5,.82-.11,.2-.22,.41-.29,.6,0,.01-.01,.03-.01,.04"/>
      <path class="cls-4" d="M58.23,13.38c-.27,.31-.53,.62-.8,.94-.65,.76-1.32,1.54-1.98,2.31-.56,.66-1.13,1.34-1.69,2.01-.17,.2-.34,.41-.51,.61"/>
      <path class="cls-4" d="M48.91,23.04c.03-.1,.07-.21,.11-.31,.12-.31,.29-.62,.46-.92,.22-.38,.46-.77,.71-1.13,.11-.16,.22-.32,.33-.48"/>
      <path class="cls-2" d="M19.88,11.02c0-.41,.1-.7,.27-.71"/>
      <path class="cls-2" d="M42.17,16.59c0-.34,0-.68-.01-1.02,0-.34,0-.68-.01-1.02,0-.33,0-.67-.01-1"/>
      <path class="cls-3" d="M19.77,13.51s0,.02,0,.03c0,.01,.01,.02,.02,.02"/>
      <path class="cls-4" d="M19.77,13.51s-.05-.03-.08-.04c-.08-.04-.15-.09-.22-.13-.06-.04-.12-.09-.17-.13-.05-.04-.09-.08-.12-.12-.03-.04-.06-.08-.09-.12-.02-.04-.04-.07-.06-.11-.01-.03-.03-.07-.04-.1,0-.03-.01-.06-.02-.09,0-.03,0-.05,0-.08"/>
      <path class="cls-4" d="M19.28,13.18s.06,.06,.1,.09c.05,.04,.11,.09,.17,.13,.07,.05,.14,.09,.21,.13,.02,.01,.05,.03,.07,.04"/>
      <path class="cls-2" d="M58.26,2.85s-.09,.06-.14,.09"/>
      <path class="cls-4" d="M56.47,14.01c-.08,.03-.17,.06-.25,.09-.1,.03-.19,.07-.29,.1-.09,.03-.18,.06-.28,.1-.09,.03-.19,.06-.28,.1-.1,.03-.19,.07-.29,.1-.1,.03-.2,.07-.3,.1-.09,.03-.19,.06-.28,.09-.09,.03-.18,.06-.26,.08-.09,.03-.18,.06-.27,.08-.1,.03-.19,.06-.29,.09-.11,.03-.22,.07-.33,.1-.03,0-.06,.02-.08,.02"/>
      <path class="cls-2" d="M49.04,16.01c-.11,.02-.22,.04-.34,.06-.11,.02-.22,.04-.33,.06-.1,.02-.2,.03-.3,.05-.09,.01-.18,.03-.27,.04-.08,.01-.17,.02-.26,.04-.08,.01-.16,.02-.25,.03-.08,.01-.16,.02-.25,.03-.08,.01-.17,.02-.25,.03-.09,.01-.17,.02-.26,.03-.09,.01-.18,.02-.27,.03-.1,.01-.19,.02-.29,.03-.11,.01-.21,.02-.32,.03-.12,.01-.24,.02-.36,.03-.13,.01-.26,.02-.39,.03-.14,.01-.29,.02-.43,.03-.15,0-.3,.02-.45,.03-.14,0-.28,.01-.42,.02-.12,0-.24,0-.37,.01-.11,0-.22,0-.32,0-.09,0-.17,0-.26,0"/>
      <path class="cls-2" d="M42.63,16.64h-.01c-.1,0-.2,0-.29,0-.06,0-.11,0-.17,0"/>
      <path class="cls-4" d="M56.76,13.91s-.05,.02-.07,.03c-.06,.02-.12,.04-.19,.07,0,0-.02,0-.03,0"/>
      <path class="cls-4" d="M65.39,10.58c-.85,.36-1.73,.72-2.63,1.08-.95,.38-1.93,.76-2.94,1.14-.52,.2-1.05,.39-1.58,.59"/>
      <path class="cls-3" d="M50.73,8.79s.06,0,.1,0c.04,0,.09,0,.15,0,.11,0,.24-.01,.39-.03,.15-.02,.31-.05,.47-.09,.16-.04,.32-.09,.48-.14,.15-.05,.3-.11,.43-.17,.13-.06,.24-.12,.34-.17,.09-.05,.17-.1,.21-.14,.04-.03,.06-.05,.06-.05"/>
      <path class="cls-4" d="M69.02,8s0,.04,0,.07c0,.05-.01,.11-.03,.16-.01,.05-.03,.1-.06,.15-.02,.05-.05,.09-.08,.14-.03,.04-.06,.09-.1,.13-.04,.05-.08,.09-.12,.13-.04,.04-.09,.09-.14,.13-.05,.04-.1,.08-.15,.12-.05,.04-.09,.07-.14,.11-.04,.03-.09,.06-.14,.09-.04,.03-.08,.06-.13,.08-.04,.03-.08,.05-.12,.08-.04,.02-.08,.05-.11,.07-.04,.02-.07,.04-.11,.06-.04,.02-.08,.04-.12,.07-.04,.02-.09,.05-.13,.07-.05,.03-.1,.05-.15,.08-.05,.03-.11,.06-.17,.08-.06,.03-.13,.06-.19,.09-.07,.03-.14,.07-.21,.1-.08,.04-.16,.07-.24,.11-.09,.04-.18,.08-.27,.12-.1,.04-.2,.09-.3,.13-.1,.04-.19,.08-.29,.13"/>
      <line class="cls-2" x1="55" y1="2.63" x2="58.12" y2="2.94"/>
      <path class="cls-2" d="M19.89,13.14c6.57,1.67,13.96,2.71,22.17,3.1"/>
      <path class="cls-2" d="M60.1,8.91c4.16-1.73,8.82-3.21,8.81-3.9"/>
      <path class="cls-4" d="M53.23,23.91c0,.19-.61,.34-1.36,.34s-1.36-.15-1.36-.34"/>
      <path class="cls-2" d="M44.52,18.02c-.07-.03-.13-.07-.2-.1-.07-.04-.15-.08-.22-.11-.07-.04-.15-.08-.23-.12-.08-.04-.16-.09-.25-.14-.09-.05-.18-.1-.28-.16-.1-.06-.2-.11-.3-.18-.11-.06-.22-.13-.34-.2-.12-.07-.24-.15-.38-.23-.04-.02-.08-.05-.12-.07"/>
      <path class="cls-2" d="M44.55,18.03s-.02,0-.04-.01"/>
      <path class="cls-2" d="M44.56,18.03s0,0-.01,0"/>
      <path class="cls-2" d="M44.61,18.04s-.02,0-.03,0c0,0-.01,0-.02,0"/>
      <path class="cls-2" d="M44.66,18.03s-.03,0-.05,0"/>
      <line class="cls-2" x1="48.66" y1="17.12" x2="44.66" y2="18.03"/>
      <line class="cls-2" x1="48.69" y1="17.12" x2="48.67" y2="17.12"/>
      <line class="cls-2" x1="48.75" y1="17.1" x2="48.69" y2="17.12"/>
      <line class="cls-2" x1="48.76" y1="17.1" x2="48.75" y2="17.1"/>
      <path class="cls-2" d="M49.07,16.92s0,.02,0,.03c-.01,.04-.05,.06-.09,.08-.04,.02-.09,.04-.15,.06-.02,0-.04,.01-.07,.02"/>
      <line class="cls-4" x1="49.1" y1="16.05" x2="49.07" y2="16.92"/>
      <path class="cls-4" d="M22.24,19.64c.02-.68,.04-1.35,.06-2.03,.02-.62,.04-1.23,.06-1.84"/>
      <path class="cls-4" d="M22.28,20.49c-.02-.07-.03-.08-.03-.11,0-.02,0-.05-.01-.08,0-.03,0-.07,0-.12,0-.05,0-.1,0-.16,0-.06,0-.13,0-.19,0-.06,0-.12,0-.18"/>
      <path class="cls-4" d="M28.81,22.53c-.1-.02-.19-.03-.28-.05-.19-.04-.39-.07-.58-.11-.18-.03-.35-.07-.52-.1-.16-.03-.32-.06-.48-.09-.15-.03-.3-.06-.45-.09-.16-.03-.31-.06-.47-.09-.16-.03-.32-.07-.48-.1-.15-.03-.3-.07-.45-.1-.13-.03-.27-.06-.4-.09-.12-.03-.23-.06-.35-.09-.1-.03-.21-.06-.31-.08-.09-.03-.18-.05-.27-.08-.08-.03-.16-.05-.24-.08-.07-.03-.14-.05-.21-.08-.06-.02-.12-.05-.17-.07-.05-.02-.1-.05-.15-.07-.04-.02-.09-.05-.13-.07-.04-.02-.08-.05-.12-.07-.04-.03-.08-.05-.12-.08-.01-.01-.03-.02-.04-.03-.03-.02-.05-.04-.07-.06-.04-.04-.08-.07-.11-.11-.04-.04-.07-.09-.1-.13-.02-.03-.03-.06-.05-.09"/>
      <path class="cls-4" d="M28.99,22.5s-.02,0-.03,.01c-.05,.02-.1,.02-.15,.01"/>
      <line class="cls-4" x1="48.75" y1="17.41" x2="48.74" y2="17.83"/>
      <line class="cls-4" x1="48.75" y1="17.1" x2="48.75" y2="17.41"/>
      <path class="cls-2" d="M22.59,20.85s0,0,0,0"/>
      <path class="cls-2" d="M36.19,21.13s.03-.01,.04-.02c.01,0,.03-.01,.04-.02,.01,0,.03,0,.04-.01l7.54-2.09"/>
      <path class="cls-2" d="M25.91,20.88s0-.08,0-.12c0-.04,0-.09,.01-.13,0-.05,.01-.09,.02-.14,0-.05,.01-.09,.02-.14,0-.04,.02-.08,.03-.12s.02-.07,.03-.11c.01-.03,.02-.07,.03-.1,.01-.03,.02-.06,.04-.08,.01-.03,.03-.05,.04-.07,.01-.02,.03-.04,.04-.06,.01-.02,.03-.03,.04-.05,.01-.01,.03-.03,.04-.04,.01-.01,.03-.02,.04-.03,0,0,0,0,0,0l.12-.05s.02-.01,.03-.01c.01,0,.03,0,.04-.01,.01,0,.03,0,.04,0l7.29-2"/>
      <line class="cls-2" x1="25.87" y1="21.89" x2="25.91" y2="20.88"/>
      <line class="cls-2" x1="29.28" y1="20.91" x2="25.94" y2="21.96"/>
      <line class="cls-2" x1="37.82" y1="18.03" x2="29.35" y2="20.72"/>
      <line class="cls-2" x1="40.73" y1="18.28" x2="32.11" y2="21.04"/>
      <path class="cls-2" d="M44.65,18.04s.02,0,.02,0"/>
      <line class="cls-2" x1="44.45" y1="18.1" x2="44.65" y2="18.04"/>
      <path class="cls-2" d="M44.3,18.16s.02-.01,.03-.02c.04-.02,.08-.03,.12-.04"/>
      <path class="cls-2" d="M44.12,18.29s.06-.06,.1-.09c.03-.02,.06-.04,.08-.05"/>
      <path class="cls-2" d="M44.11,18.3s0,0,0,0"/>
      <path class="cls-2" d="M43.99,18.47s.01-.02,.02-.03c.03-.05,.06-.09,.09-.13,0,0,0,0,0,0"/>
      <path class="cls-2" d="M43.99,18.47s0,0,0,0"/>
      <path class="cls-2" d="M43.89,18.74c.01-.05,.03-.1,.05-.15,.02-.04,.03-.08,.05-.12"/>
      <path class="cls-2" d="M43.81,19.19c0-.08,.02-.15,.03-.22,.01-.07,.03-.14,.04-.2,0,0,0-.02,0-.03"/>
      <path class="cls-2" d="M43.64,21.07c.02-.2,.04-.39,.05-.59,.04-.43,.08-.86,.12-1.29"/>
      <path class="cls-2" d="M43.64,21.1s0-.02,0-.02"/>
      <path class="cls-2" d="M43.63,21.19s0-.06,0-.1"/>
      <path class="cls-2" d="M43.63,21.2s0,0,0,0"/>
      <path class="cls-2" d="M43.46,23.1c.04-.44,.08-.88,.12-1.32,.02-.19,.03-.39,.05-.58"/>
      <path class="cls-2" d="M43.31,23.48s.05-.08,.07-.11c.05-.09,.07-.18,.08-.27"/>
      <path class="cls-2" d="M42.92,23.79c.1-.05,.19-.11,.26-.18,.05-.04,.09-.09,.13-.14"/>
      <path class="cls-2" d="M42.56,23.89c.11-.01,.23-.04,.33-.09,0,0,.02,0,.03-.01"/>
      <line class="cls-2" x1="43.62" y1="20.63" x2="35.64" y2="23.42"/>
      <path class="cls-2" d="M35.86,21.56v-.02s.03-.07,.04-.1c.01-.03,.03-.06,.04-.08,.01-.03,.03-.05,.04-.07,.02-.02,.03-.04,.05-.06,.02-.02,.03-.03,.04-.04,.01-.01,.03-.02,.04-.03,.01,0,.03-.02,.04-.02,.01,0,.03-.01,.04-.01,.01,0,.02,0,.04-.01"/>
      <path class="cls-2" d="M35.82,21.69s0-.03,.01-.04c0-.03,.02-.06,.03-.09"/>
      <path class="cls-2" d="M35.73,22.42c0-.07,0-.13,.01-.19,0-.06,.01-.12,.02-.17,0-.05,.01-.1,.02-.15,0-.05,.02-.09,.03-.14,0-.03,.01-.05,.02-.08"/>
      <line class="cls-2" x1="35.68" y1="23.5" x2="35.73" y2="22.42"/>
      <line class="cls-2" x1="32.05" y1="20.93" x2="31.86" y2="20.9"/>
      <path class="cls-2" d="M32.08,20.94s-.02,0-.02,0"/>
      <path class="cls-2" d="M32.1,20.95s-.02-.01-.03-.02"/>
      <path class="cls-2" d="M32.19,21.11s-.02-.05-.03-.08c-.01-.03-.03-.05-.05-.07,0,0-.01-.01-.02-.01"/>
      <path class="cls-2" d="M32.2,21.2s0-.05-.01-.08"/>
      <path class="cls-2" d="M32.2,21.2s0,0,0,0"/>
      <path class="cls-4" d="M32.19,22.61c0-.17,0-.34,0-.51,0-.23,0-.46,0-.69,0-.07,0-.14,0-.21"/>
      <path class="cls-4" d="M32.55,23.15s-.1-.03-.14-.05c-.03-.02-.06-.05-.09-.08,0-.01-.02-.02-.02-.03-.03-.05-.06-.1-.08-.15-.02-.06-.03-.11-.03-.17,0-.02,0-.03,0-.05"/>
      <path class="cls-4" d="M43.16,23.89c-.12,.01-.23,.02-.34,.03-.16,.01-.32,.03-.48,.04-.14,.01-.29,.02-.43,.03-.13,0-.26,.01-.38,.02-.12,0-.23,0-.34,0-.11,0-.21,0-.32,0-.11,0-.21,0-.32,0-.11,0-.22,0-.33,0-.12,0-.24,0-.36-.01-.14,0-.27-.01-.41-.02-.14,0-.29-.02-.43-.02-.15-.01-.3-.02-.45-.03-.16-.01-.32-.03-.48-.04-.18-.02-.36-.03-.53-.05-.19-.02-.38-.04-.57-.06-.2-.02-.4-.05-.6-.07-.2-.03-.41-.05-.61-.08-.19-.03-.38-.05-.58-.08-.18-.02-.36-.05-.54-.07-.19-.03-.37-.05-.56-.08-.2-.03-.4-.06-.6-.09-.22-.03-.43-.06-.65-.1-.1-.02-.21-.03-.31-.05"/>
      <path class="cls-4" d="M43.61,23.74c-.05,.03-.11,.06-.16,.08-.08,.03-.16,.05-.24,.06-.01,0-.03,0-.05,0"/>
      <line class="cls-4" x1="46.25" y1="22.18" x2="43.61" y2="23.74"/>
      <line class="cls-4" x1="46.91" y1="21.8" x2="46.25" y2="22.18"/>
      <line class="cls-4" x1="48.52" y1="20.85" x2="46.91" y2="21.8"/>
      <path class="cls-4" d="M49.02,20.08c0,.13-.04,.25-.09,.36-.03,.07-.07,.12-.12,.18-.04,.05-.08,.09-.13,.13-.05,.04-.1,.07-.15,.1"/>
      <line class="cls-4" x1="49.07" y1="18.3" x2="49.02" y2="20.08"/>
      <path class="cls-4" d="M49.06,18.22s.01,.06,.01,.08"/>
      <path class="cls-4" d="M48.8,17.88s.02,.02,.03,.03c.02,.02,.05,.05,.07,.07,.02,.02,.04,.05,.06,.07,.02,.03,.04,.05,.05,.08,0,.01,.01,.03,.02,.04,0,.01,.01,.03,.02,.04"/>
      <path class="cls-2" d="M48.78,17.86s.01,.01,.02,.02"/>
      <line class="cls-4" x1="48.74" y1="17.83" x2="48.78" y2="17.86"/>
      <line class="cls-2" x1="43.78" y1="18.35" x2="44.12" y2="18.3"/>
      <path class="cls-2" d="M42.25,18.37c.58,.05,1.09,.04,1.54-.02"/>
      <path class="cls-2" d="M41.33,18.29c.3,.03,.61,.05,.92,.08"/>
      <path class="cls-2" d="M36.17,17.84c.17,.02,.33,.04,.49,.06s.31,.03,.46,.05c.15,.02,.3,.03,.44,.05,.15,.02,.29,.03,.44,.04,.15,.01,.29,.03,.44,.04,.15,.01,.3,.03,.44,.04,.15,.01,.3,.03,.45,.04,.15,.01,.31,.02,.47,.04,.16,.01,.32,.02,.48,.03,.16,.01,.32,.02,.47,.03,.15,0,.3,.02,.44,.02,.05,0,.09,0,.14,0"/>
      <path class="cls-2" d="M30.74,17.18c.24,.03,.49,.06,.76,.1,.27,.03,.55,.07,.84,.11,.29,.04,.58,.07,.87,.11,.29,.04,.57,.07,.83,.1,.27,.03,.52,.06,.76,.09,.24,.03,.48,.06,.71,.08,.23,.03,.45,.05,.66,.08"/>
      <path class="cls-2" d="M26.02,16.52c.19,.03,.39,.06,.59,.09,.21,.03,.43,.06,.66,.1,.24,.03,.49,.07,.77,.11,.28,.04,.58,.08,.89,.12,.31,.04,.63,.09,.94,.13,.3,.04,.59,.08,.87,.12"/>
      <path class="cls-2" d="M23.32,15.97s.01,0,.02,0c.04,.01,.08,.03,.13,.05,.05,.02,.1,.03,.16,.05,.06,.02,.12,.03,.19,.05,.07,.02,.14,.03,.21,.05,.07,.02,.15,.03,.23,.05,.08,.02,.16,.03,.24,.05s.17,.03,.26,.05c.09,.02,.18,.03,.28,.05,.1,.02,.19,.03,.3,.05,.1,.02,.21,.03,.32,.05,.11,.02,.23,.04,.36,.06"/>
      <path class="cls-2" d="M23.3,15.96s.01,0,.02,0"/>
      <path class="cls-2" d="M23.16,15.88h0s.04,.03,.07,.05c.02,0,.04,.02,.06,.03"/>
      <path class="cls-2" d="M22.75,15.7c.1,.04,.11,.05,.12,.05,.07,.03,.17,.07,.3,.14"/>
      <path class="cls-2" d="M22.42,15.64c.09,.01,.18,.03,.27,.04"/>
      <path class="cls-4" d="M21.38,15.13s.07,.04,.1,.06c.14,.08,.28,.16,.42,.25,.13,.08,.27,.17,.39,.24"/>
      <path class="cls-4" d="M19.93,13.59c.49,.51,.97,1.03,1.46,1.54"/>
      <path class="cls-2" d="M29.19,22.11c0-.09,.02-.19,.02-.29l.06-1s.02-.15,.22-.12l2.36,.2"/>
      <path class="cls-2" d="M29.11,22.4s0-.01,.01-.02c.02-.04,.04-.08,.05-.12,.01-.05,.02-.1,.02-.15"/>
      <path class="cls-2" d="M29,22.5s.04-.02,.05-.03c.02-.02,.04-.04,.06-.07"/>
      <line class="cls-4" x1="31.97" y1="21.02" x2="29" y2="22.5"/>
      <path class="cls-2" d="M54.58,30.17s-.02-.09-.03-.14"/>
      <path class="cls-4" d="M58.85,29.47c-.03,.06-.07,.12-.1,.17-.02,.03-.04,.06-.06,.08-.09,.11-.2,.19-.3,.24-.02,.01-.05,.02-.08,.03"/>
      <path class="cls-4" d="M58.85,29.47s1.09-2.74-.13-5.12"/>
      <path class="cls-2" d="M59.15,25.75c-1.28,.32-2.57,.64-3.87,.96"/>
      <path class="cls-2" d="M59.2,25.73s0,0-.01,0c-.01,0-.02,0-.04,.01"/>
      <path class="cls-4" d="M49.75,22.88c.24,.03,.49,.06,.73,.09"/>
      <path class="cls-4" d="M55.13,30.77c-1.39-.23-2.76-.45-4.13-.68"/>
      <path class="cls-2" d="M54.63,30.16s.08,.01,.11,.02"/>
      <path class="cls-4" d="M58.3,29.99c-.97,.25-1.95,.51-2.93,.77"/>
      <path class="cls-2" d="M55.13,30.77c-.07-.01-.14-.04-.21-.08"/>
      <path class="cls-2" d="M51.04,24.48c-.12,.03-.26,.04-.43,.02"/>
      <path class="cls-2" d="M46.54,24.39c.06-.25,.17-.41,.34-.49"/>
      <path class="cls-2" d="M46.42,28.65c-.11-.55-.17-1.13-.18-1.73"/>
      <path class="cls-2" d="M46.98,23.86s-.02,0-.02,0"/>
      <path class="cls-4" d="M47.52,29.52c-.45-.05-.91-.1-1.36-.15"/>
      <path class="cls-4" d="M45.46,28.56c-.28-1.35-.23-2.86,.12-4.31"/>
      <path class="cls-4" d="M45.59,24.25c.03-.1,.07-.2,.12-.28,.03-.04,.06-.08,.1-.12,.06-.06,.14-.1,.22-.12,0,0,.01,0,.02,0"/>
      <path class="cls-4" d="M46.05,23.72c.52-.12,1.04-.24,1.55-.36"/>
      <path class="cls-2" d="M49.59,22.91c.05-.01,.11-.01,.16,0"/>
      <path class="cls-4" d="M46.17,29.37s-.06-.01-.09-.02c-.14-.05-.26-.13-.36-.25-.09-.11-.17-.26-.21-.41,0-.02,0-.03-.01-.05,0-.02-.01-.05-.02-.07"/>
      <path class="cls-2" d="M50.52,25.04c-.36,1.49-.4,2.92-.13,4.3"/>
      <path class="cls-2" d="M50.85,24.54c-.16,.08-.28,.25-.34,.5"/>
      <path class="cls-2" d="M46.24,26.92v-.08c0-.82,.1-1.64,.3-2.45"/>
      <path class="cls-2" d="M51.52,24.35s-.64,.18-.67,.19"/>
      <path class="cls-2" d="M53.86,26.94c0,.07-.02,.14-.04,.2-.02,.07-.04,.13-.06,.2-.02,.06-.05,.13-.09,.18-.03,.06-.07,.11-.11,.16-.04,.05-.08,.09-.13,.13-.01,0-.02,.02-.03,.03"/>
      <path class="cls-2" d="M52.13,25.31s0-.02,0-.03"/>
      <path class="cls-2" d="M51.9,26.62c.05-.44,.12-.88,.22-1.31"/>
      <path class="cls-2" d="M54.75,30.18s.05,0,.07,0c.03,0,.05,0,.08,0,.03,0,.05,0,.08,0s.06,0,.09,0c.03,0,.06,0,.09,0,.03,0,.06,0,.09-.01,.03,0,.06,0,.09-.02"/>
      <path class="cls-2" d="M54.64,30.33s-.04-.1-.06-.16"/>
      <path class="cls-2" d="M59.29,26.7s0,0,0,0c0,0,0,0-.01,0"/>
      <path class="cls-2" d="M59.27,26.71s-.02,0-.03,.01"/>
      <path class="cls-2" d="M50.61,24.49s-.06,0-.08-.01"/>
      <path class="cls-2" d="M54.9,27.77s-.03,0-.04,0c-.04,0-.08,0-.11,0-.04,0-.08,0-.11,0-.04,0-.07,0-.11,0-.03,0-.07,0-.1-.01"/>
      <path class="cls-2" d="M54.44,28.98s.06,0,.1,.01c.03,0,.07,0,.11,0,.04,0,.08,0,.12,0,.04,0,.08,0,.12,0,.04,0,.07,0,.11,0,.04,0,.07,0,.1,0,.03,0,.06,0,.08-.01"/>
      <path class="cls-2" d="M55.14,27.75s-.04,0-.06,.01c-.02,0-.05,0-.07,0-.02,0-.03,0-.05,0"/>
      <path class="cls-2" d="M52.13,25.27c.06-.22,.18-.39,.32-.46"/>
      <path class="cls-4" d="M48.46,23.17c.38-.09,.75-.17,1.13-.26"/>
      <path class="cls-4" d="M47.6,23.36c.29-.07,.57-.13,.86-.2"/>
      <path class="cls-2" d="M52.13,25.28s0,0,0,0"/>
      <path class="cls-2" d="M59.15,27.96s.03,0,.04-.01"/>
      <path class="cls-2" d="M53.92,26.49c-.02,.13-.04,.27-.06,.4"/>
      <path class="cls-2" d="M52.45,24.82s.05-.02,.07-.03"/>
      <path class="cls-1" d="M54.6,23.66c-.29-.05-.57-.09-.85-.14l-.49-.08"/>
      <path class="cls-2" d="M58.37,24.43s0,0,0,0"/>
      <path class="cls-2" d="M55.07,25.23c-.19,.05-.32,.21-.38,.5"/>
      <path class="cls-4" d="M50.73,30.02c.08,.04,.17,.06,.27,.07"/>
      <path class="cls-2" d="M54.93,30.69c-.12-.08-.21-.2-.29-.36"/>
      <path class="cls-2" d="M55.07,25.23c1.24-.3,2.47-.6,3.69-.9"/>
      <path class="cls-2" d="M54.49,25.13c.57-.14,1.15-.27,1.72-.41l2.2-.52"/>
      <path class="cls-2" d="M55.17,28.98c1.34-.34,2.67-.68,3.98-1.02"/>
      <path class="cls-2" d="M54.96,24.21c.38-.09,.75-.18,1.13-.27"/>
      <path class="cls-2" d="M55.37,30.16c1.22-.32,2.38-.62,3.58-.94"/>
      <path class="cls-2" d="M52.52,24.79c.82-.2,1.63-.39,2.44-.58"/>
      <path class="cls-2" d="M54.5,29.78c-.22-1.31-.16-2.66,.18-4.05"/>
      <path class="cls-2" d="M50.53,24.48c-1.18-.21-2.35-.41-3.52-.62"/>
      <path class="cls-2" d="M47.1,29.45c-.29-.05-.5-.26-.63-.64"/>
      <path class="cls-2" d="M46.47,28.82c-.02-.05-.03-.11-.04-.17"/>
      <path class="cls-2" d="M50.39,29.34c.06,.31,.19,.54,.39,.67"/>
      <path class="cls-2" d="M53.41,27.84s-.07,.05-.11,.07c-.05,.03-.1,.05-.16,.06-.05,.02-.11,.02-.16,.03-.06,0-.11,0-.17,0"/>
      <path class="cls-2" d="M59.24,26.72c-1.35,.34-2.72,.68-4.09,1.03"/>
      <path class="cls-2" d="M55.26,26.71s-.05,0-.08,.01c-.03,0-.06,0-.1,.01s-.07,0-.11,0c-.04,0-.07,0-.11,0-.04,0-.07,0-.11,0-.04,0-.07,0-.1,0-.03,0-.06,0-.09,0"/>
      <path class="cls-4" d="M55.37,30.76c-.08,.02-.16,.03-.24,.01"/>
      <path class="cls-2" d="M55.13,30.77c-.19-.03-.35-.16-.46-.38"/>
      <path class="cls-4" d="M54.61,23.66c.5,.08,1.01,.15,1.51,.23"/>
      <path class="cls-2" d="M54.49,25.13c-.17,.04-.33,.24-.39,.5"/>
      <path class="cls-2" d="M54.55,30.03c-.02-.08-.03-.17-.05-.25"/>
      <path class="cls-2" d="M54.43,29.19c-.11-1.13-.03-2.28,.25-3.44"/>
      <path class="cls-2" d="M54.1,25.63c-.07,.28-.13,.57-.18,.86"/>
      <path class="cls-2" d="M53.87,26.89s0,.03,0,.05"/>
      <path class="cls-2" d="M52.81,27.99c-.05,0-.11-.02-.16-.05-.05-.02-.11-.05-.16-.08-.05-.03-.11-.07-.16-.11-.05-.04-.09-.09-.14-.14-.04-.05-.08-.11-.12-.17-.03-.06-.06-.12-.09-.19-.03-.07-.05-.14-.06-.21-.01-.07-.02-.14-.03-.21,0-.07,0-.14,0-.21"/>
      <path class="cls-2" d="M55.26,26.71s.02,0,.02,0"/>
      <path class="cls-2" d="M46.88,23.9s.06-.02,.08-.03"/>
      <line class="cls-2" x1="46.98" y1="23.86" x2="50.52" y2="23.04"/>
      <line class="cls-4" x1="50.77" y1="30.04" x2="47.44" y2="29.52"/>
      <line class="cls-1" x1="56.12" y1="23.94" x2="56.12" y2="24.77"/>
      <line class="cls-2" x1="58.41" y1="24.18" x2="58.7" y2="24.29"/>
    </g>
  </g>
</svg>