<?xml version="1.0" encoding="UTF-8"?>
<svg id="Layer_2" data-name="Layer 2" xmlns="http://www.w3.org/2000/svg" viewBox="0 0 45.64 33.92">
  <defs>
    <style>
      .cls-1 {
        stroke-width: .25px;
      }

      .cls-1, .cls-2 {
        fill: none;
        stroke: #54565a;
        stroke-linecap: round;
        stroke-linejoin: round;
      }

      .cls-2 {
        stroke-width: .5px;
      }
    </style>
  </defs>
  <g id="Camada_1" data-name="Camada 1">
    <g>
      <g id="SPLINE">
        <path class="cls-2" d="M25.97,.61c0,3.53,0,7.07,0,10.6"/>
      </g>
      <g id="SPLINE-2" data-name="SPLINE">
        <path class="cls-2" d="M18.49,11.35c0-3.52,0-7.04-.01-10.57"/>
      </g>
      <g id="SPLINE-3" data-name="SPLINE">
        <path class="cls-2" d="M5.87,28.18c.34,.07,.68,.13,1.02,.2l9.71,1.88"/>
      </g>
      <g id="SPLINE-4" data-name="SPLINE">
        <path class="cls-1" d="M6.52,10.81c3.2,.42,6.41,.83,9.61,1.25"/>
      </g>
      <g id="SPLINE-5" data-name="SPLINE">
        <path class="cls-1" d="M6.33,10.77s0,0,.01,0c.04,0,.08,.02,.12,.02,.02,0,.04,0,.07,0"/>
      </g>
      <g id="SPLINE-6" data-name="SPLINE">
        <path class="cls-1" d="M16.13,12.06s.06,0,.1,.01c.06,0,.11,0,.17,.01,0,0,0,0,0,0"/>
      </g>
      <g id="SPLINE-7" data-name="SPLINE">
        <path class="cls-1" d="M16.41,12.08c.49,.03,1.08-.01,1.42-.1"/>
      </g>
      <g id="SPLINE-8" data-name="SPLINE">
        <path class="cls-1" d="M17.74,12.01c.35-.06,.79-.2,1.14-.26"/>
      </g>
      <g id="SPLINE-9" data-name="SPLINE">
        <path class="cls-1" d="M25.98,9.92c.7-.18,1.4-.35,2.09-.53"/>
      </g>
      <g id="SPLINE-10" data-name="SPLINE">
        <path class="cls-2" d="M3.42,27.64c-.32-.07-.62-.19-.89-.38-.32-.21-.59-.5-.81-.84-.2-.31-.36-.65-.47-1.03"/>
      </g>
      <g id="SPLINE-11" data-name="SPLINE">
        <path class="cls-2" d="M5.99,28.16c-.85-.17-1.71-.35-2.57-.52"/>
      </g>
      <g id="SPLINE-12" data-name="SPLINE">
        <path class="cls-2" d="M1.25,25.4c-.63-2.14-.97-4.48-1-6.92-.03-2.26,.21-4.55,.7-6.79"/>
      </g>
      <g id="SPLINE-13" data-name="SPLINE">
        <path class="cls-2" d="M.95,11.69s.02-.08,.03-.11c.1-.37,.27-.71,.51-.99,.19-.22,.43-.4,.69-.51,.1-.04,.2-.07,.3-.09"/>
      </g>
      <g id="SPLINE-14" data-name="SPLINE">
        <path class="cls-2" d="M2.48,9.98c3.83-.8,7.66-1.6,11.49-2.4"/>
      </g>
      <g id="SPLINE-15" data-name="SPLINE">
        <path class="cls-2" d="M13.97,7.58c.13-.03,.27-.03,.41-.02"/>
      </g>
      <g id="SPLINE-16" data-name="SPLINE">
        <path class="cls-2" d="M14.38,7.56l2.55,.29"/>
      </g>
      <g id="SPLINE-17" data-name="SPLINE">
        <path class="cls-2" d="M33.07,33.65c-1.83-.37-3.65-.74-5.48-1.12"/>
      </g>
      <g id="SPLINE-18" data-name="SPLINE">
        <path class="cls-2" d="M28.52,23.11c.06-2.39,.33-4.83,.81-7.22"/>
      </g>
      <g id="SPLINE-19" data-name="SPLINE">
        <path class="cls-1" d="M33.83,19.73c-.08,.03-.15,.05-.23,.06-.09,.02-.18,.04-.26,.05-.09,.01-.18,.02-.27,.03-.08,0-.17,.01-.25,.02-.08,0-.15,0-.23,0-.07,0-.14,0-.21,0-.06,0-.13,0-.19,0-.06,0-.13,0-.19-.02-.07,0-.13-.02-.2-.03"/>
      </g>
      <g id="SPLINE-20" data-name="SPLINE">
        <path class="cls-1" d="M31.79,19.85s-.04,0-.07-.01"/>
      </g>
      <g id="SPLINE-21" data-name="SPLINE">
        <path class="cls-1" d="M44.92,15.8c-3.7,1.31-7.39,2.62-11.09,3.93"/>
      </g>
      <g id="SPLINE-22" data-name="SPLINE">
        <path class="cls-1" d="M33.52,24.21c-.07,.03-.15,.05-.22,.07-.09,.02-.17,.04-.26,.05-.09,.01-.18,.03-.27,.03-.08,0-.17,.01-.25,.02-.08,0-.15,0-.23,0-.07,0-.14,0-.2,0-.06,0-.13,0-.19,0-.06,0-.13-.01-.19-.02-.07,0-.13-.02-.2-.03"/>
      </g>
      <g id="SPLINE-23" data-name="SPLINE">
        <path class="cls-1" d="M45.18,19.62c-3.89,1.53-7.77,3.06-11.66,4.58"/>
      </g>
      <g id="SPLINE-24" data-name="SPLINE">
        <path class="cls-1" d="M33.73,28.44c-.07,.03-.15,.06-.22,.08-.09,.02-.17,.04-.26,.06-.09,.02-.18,.03-.27,.04-.08,0-.17,.02-.25,.02-.08,0-.15,0-.23,0-.07,0-.14,0-.2,0-.06,0-.13,0-.19-.01-.06,0-.13-.01-.19-.02-.07,0-.13-.02-.2-.03"/>
      </g>
      <g id="SPLINE-25" data-name="SPLINE">
        <path class="cls-1" d="M45.02,23.56c-3.77,1.62-7.53,3.25-11.3,4.87"/>
      </g>
      <g id="SPLINE-26" data-name="SPLINE">
        <path class="cls-1" d="M44.16,26.25s.1,.02,.15,.03c.04,0,.08,.02,.12,.03,.03,0,.07,.02,.1,.03,.03,.01,.07,.02,.1,.04,.03,.01,.06,.03,.09,.05,.03,.02,.06,.05,.09,.07,.01,.01,.03,.03,.04,.05,.01,.02,.03,.05,.03,.07,.02,.05,.02,.1,0,.15,0,0,0,.01,0,.02"/>
      </g>
      <g id="SPLINE-27" data-name="SPLINE">
        <path class="cls-1" d="M34.85,32.17s-.08,.04-.12,.05c-.04,.02-.07,.03-.11,.05-.04,.01-.07,.03-.11,.04-.04,.01-.08,.03-.11,.04-.04,.01-.08,.03-.12,.04-.04,.01-.09,.02-.13,.03-.05,.01-.09,.02-.14,.03-.05,0-.1,.02-.15,.03-.05,0-.1,.02-.16,.02-.05,0-.11,.01-.16,.01-.05,0-.1,0-.15,0-.04,0-.09,0-.13,0-.04,0-.08,0-.12,0-.04,0-.08,0-.12-.01-.04,0-.09-.01-.13-.02"/>
      </g>
      <g id="SPLINE-28" data-name="SPLINE">
        <path class="cls-1" d="M44.14,27.81c-3.09,1.45-6.19,2.9-9.28,4.36"/>
      </g>
      <g id="SPLINE-29" data-name="SPLINE">
        <path class="cls-1" d="M44.59,27.48s-.06,.08-.09,.12c-.03,.03-.07,.05-.1,.08-.04,.02-.08,.05-.11,.07-.05,.02-.09,.05-.14,.07"/>
      </g>
      <g id="SPLINE-30" data-name="SPLINE">
        <path class="cls-1" d="M32.89,32.48c-.11-.02-.22-.04-.33-.07"/>
      </g>
      <g id="SPLINE-31" data-name="SPLINE">
        <path class="cls-2" d="M41.07,10.91c.09-.03,.19-.04,.29-.03"/>
      </g>
      <g id="SPLINE-32" data-name="SPLINE">
        <path class="cls-2" d="M41.35,10.89c.7,.08,1.4,.16,2.11,.24"/>
      </g>
      <g id="SPLINE-33" data-name="SPLINE">
        <path class="cls-2" d="M29.34,15.89c.1-.48,.28-.93,.52-1.27,.23-.33,.51-.56,.8-.64"/>
      </g>
      <g id="SPLINE-34" data-name="SPLINE">
        <path class="cls-2" d="M30.66,13.98c3.47-1.02,6.94-2.04,10.41-3.07"/>
      </g>
      <g id="SPLINE-35" data-name="SPLINE">
        <path class="cls-2" d="M43.46,11.12c.18,.02,.34,.11,.48,.26,.07,.08,.13,.17,.19,.26,.09,.17,.17,.38,.21,.61"/>
      </g>
      <g id="SPLINE-36" data-name="SPLINE">
        <path class="cls-2" d="M44.33,12.25c.04,.16,.07,.32,.11,.48l.17,1.89,.42,.15,.17,.81-.34,.31,.22,2.55,.31,.18-.02,.87-.36,.25-.11,2.52,.39,.26-.13,.94-.45,.3-.31,2.49,.43,.28-.02,.42-.33,.63-.7,.46"/>
      </g>
      <g id="SPLINE-37" data-name="SPLINE">
        <path class="cls-2" d="M43.79,28.06c-.24,.44-.51,.8-.81,1.08-.19,.18-.39,.31-.6,.41"/>
      </g>
      <g id="SPLINE-38" data-name="SPLINE">
        <path class="cls-2" d="M42.39,29.54c-2.75,1.32-5.5,2.63-8.25,3.95"/>
      </g>
      <g id="SPLINE-39" data-name="SPLINE">
        <path class="cls-2" d="M34.14,33.49c-.35,.17-.72,.22-1.06,.15"/>
      </g>
      <g id="SPLINE-40" data-name="SPLINE">
        <path class="cls-2" d="M27.6,32.53c-3.04-.62-6.07-1.24-9.11-1.86l-.37-.12c-.52-.1-1.03-.21-1.55-.31"/>
      </g>
      <g id="SPLINE-41" data-name="SPLINE">
        <path class="cls-2" d="M35.25,10.87c-.08-.2-.19-.38-.33-.51-.14-.14-.31-.22-.49-.24l-8.25-.94"/>
      </g>
      <g id="SPLINE-42" data-name="SPLINE">
        <path class="cls-2" d="M34.47,10.78c1.68,.2,3.36,.39,5.05,.59"/>
      </g>
      <g id="SPLINE-43" data-name="SPLINE">
        <path class="cls-2" d="M20.03,1.06c-1.85-.15-2.04-.35-.56-.6,1.45-.24,3.09-.28,4.92-.13,1.86,.15,2.08,.35,.65,.59-1.46,.25-3.13,.3-5.01,.14Z"/>
      </g>
      <g id="SPLINE-44" data-name="SPLINE">
        <path class="cls-1" d="M16.34,28.2c-.43-1.81-.68-3.72-.75-5.76"/>
      </g>
      <g id="SPLINE-45" data-name="SPLINE">
        <path class="cls-1" d="M15.6,22.45c-.09-2.71,.14-5.43,.69-8.17"/>
      </g>
      <g id="SPLINE-46" data-name="SPLINE">
        <path class="cls-1" d="M16.34,28.2c.02,.07,.03,.14,.05,.21"/>
      </g>
      <g id="SPLINE-47" data-name="SPLINE">
        <path class="cls-1" d="M17.56,30.41c-.57-.43-.97-1.14-1.2-2.13"/>
      </g>
      <g id="SPLINE-48" data-name="SPLINE">
        <path class="cls-1" d="M16.33,14.06c-.02,.07-.03,.15-.05,.22"/>
      </g>
      <g id="SPLINE-49" data-name="SPLINE">
        <path class="cls-1" d="M6.52,10.67c-.12,.03-.2,.05-.25,.09"/>
      </g>
      <g id="SPLINE-50" data-name="SPLINE">
        <path class="cls-1" d="M17.45,8.21c-3.57,.81-7.36,1.64-10.93,2.45"/>
      </g>
      <path class="cls-1" d="M16.33,14.06c.22-1.03,.66-1.64,1.34-1.81"/>
      <g id="SPLINE-51" data-name="SPLINE">
        <path class="cls-1" d="M19.35,11.83c-.57-.12-.86-.27-.86-.44"/>
      </g>
      <g id="SPLINE-52" data-name="SPLINE">
        <path class="cls-1" d="M17.68,12.25c.56-.14,1.12-.28,1.68-.42"/>
      </g>
      <g id="SPLINE-53" data-name="SPLINE">
        <path class="cls-1" d="M5.26,10.32c-.51,.11-.92,.47-1.23,1.08l-.34,.91"/>
      </g>
      <g id="SPLINE-54" data-name="SPLINE">
        <path class="cls-1" d="M16.65,7.86c-3.8,.82-7.6,1.64-11.39,2.45"/>
      </g>
      <g id="SPLINE-55" data-name="SPLINE">
        <path class="cls-2" d="M18.29,8.2l-.86-.09c-.23-.22-.64-.32-.94-.26"/>
      </g>
      <g id="SPLINE-56" data-name="SPLINE">
        <path class="cls-1" d="M3.03,20.28c-.14-2.65,.08-5.31,.66-7.97"/>
      </g>
      <g id="SPLINE-57" data-name="SPLINE">
        <path class="cls-1" d="M3.95,25.97c-.51-1.78-.81-3.68-.92-5.69"/>
      </g>
      <g id="SPLINE-58" data-name="SPLINE">
        <path class="cls-1" d="M5.4,27.98c-.68-.42-1.16-1.09-1.45-2.01"/>
      </g>
      <g id="SPLINE-59" data-name="SPLINE">
        <path class="cls-1" d="M44.64,22.22c-.25-.04-.51-.08-.76-.12l-4.26-.29"/>
      </g>
      <g id="SPLINE-60" data-name="SPLINE">
        <path class="cls-1" d="M44.14,26.24c-.2-.03-.39-.07-.59-.1"/>
      </g>
      <g id="SPLINE-61" data-name="SPLINE">
        <path class="cls-1" d="M32.56,32.41s-.03-.01-.03-.02"/>
      </g>
      <g id="SPLINE-62" data-name="SPLINE">
        <path class="cls-1" d="M32.55,32.42s.01,0,.02-.01"/>
      </g>
      <g id="SPLINE-63" data-name="SPLINE">
        <path class="cls-1" d="M44.72,18.35s-.05,.02-.07,.03l-5.06-.59"/>
      </g>
      <g id="SPLINE-64" data-name="SPLINE">
        <path class="cls-1" d="M33.07,15.01c-.44,.14-.74,.58-.89,1.35l-.06,.3c-.04,.23-.09,.46-.13,.69,0,0-1.23,6.86-.02,13.72"/>
      </g>
      <g id="SPLINE-65" data-name="SPLINE">
        <path class="cls-1" d="M32.53,32.39c-.11-.15-.21-.31-.29-.51l-.08-.2c-.07-.2-.13-.41-.17-.63"/>
      </g>
      <g id="SPLINE-66" data-name="SPLINE">
        <path class="cls-1" d="M37.24,13.69c2.38,.29,4.76,.58,7.15,.87"/>
      </g>
      <g id="SPLINE-67" data-name="SPLINE">
        <path class="cls-1" d="M43.88,11.52c-3.66,1.18-7.33,2.36-10.99,3.54"/>
      </g>
      <g id="SPLINE-68" data-name="SPLINE">
        <path class="cls-2" d="M25.98,11.21c-1.95,1.13-4.19,1.34-6.73,.63"/>
      </g>
      <g id="SPLINE-69" data-name="SPLINE">
        <path class="cls-2" d="M34.29,10.79c-3.08,.85-6.16,1.7-9.24,2.55"/>
      </g>
      <g id="SPLINE-70" data-name="SPLINE">
        <path class="cls-1" d="M34.47,10.78c-.06,0-.12,0-.18,.01"/>
      </g>
      <g id="SPLINE-71" data-name="SPLINE">
        <polyline class="cls-2" points="23.52 13.76 23.37 13.82 23.22 13.92 23.08 14.06 22.94 14.23 22.82 14.44 22.72 14.66 22.65 14.9 22.59 15.15 22.38 16.25 22.21 17.37 22.07 18.49 21.96 19.63 21.89 20.76 21.85 21.89"/>
      </g>
      <g id="SPLINE-72" data-name="SPLINE">
        <path class="cls-2" d="M25.05,13.34c-.51,.14-1.02,.28-1.53,.42"/>
      </g>
      <g id="SPLINE-73" data-name="SPLINE">
        <path class="cls-2" d="M21.85,21.81c0,.56,.02,.96,.18,1.45,.06,.19,.14,.4,.35,.78"/>
      </g>
      <g id="SPLINE-74" data-name="SPLINE">
        <polyline class="cls-2" points="22.38 24.05 22.59 24.4 22.81 24.72 23.05 25.01 23.31 25.28 23.58 25.52 23.86 25.73 24.15 25.92 24.45 26.08 24.76 26.21 25.06 26.31 25.36 26.38 25.66 26.42 25.95 26.43 26.24 26.41 26.51 26.36 26.77 26.28"/>
      </g>
      <g id="SPLINE-75" data-name="SPLINE">
        <path class="cls-2" d="M26.77,26.28c.07-.03,.15-.06,.22-.1,.15-.08,.29-.18,.42-.29,.14-.12,.26-.25,.37-.39,.12-.15,.22-.32,.3-.49,.09-.18,.17-.37,.23-.57,.06-.21,.11-.42,.15-.64,.04-.23,.06-.46,.06-.7"/>
      </g>
      <line class="cls-1" x1="23.37" y1="13.82" x2="30.09" y2="14.28"/>
      <ellipse class="cls-1" cx="28.54" cy="13.32" rx=".91" ry=".47"/>
      <path class="cls-1" d="M25.78,21.68c0,.26-.41,.47-.91,.47s-.91-.21-.91-.47,.41-.47,.91-.47,.91,.21,.91,.47Z"/>
      <ellipse class="cls-1" cx="31.82" cy="12.7" rx="1.09" ry=".49"/>
      <path class="cls-1" d="M35.79,11.51c0,.26-.41,.47-.91,.47s-.91-.21-.91-.47,.41-.47,.91-.47,.91,.21,.91,.47Z"/>
      <path class="cls-1" d="M27.27,17.89c-.41,.16-.9-.13-1.1-.65-.19-.51-.02-1.06,.4-1.21,.41-.16,.9,.13,1.1,.65,.19,.51,.02,1.06-.4,1.21Z"/>
      <path class="cls-1" d="M25.06,18c.23,.26,.16,.7-.15,.97-.31,.27-.75,.28-.98,.01-.23-.26-.16-.7,.15-.97,.31-.27,.75-.28,.98-.01Z"/>
      <path class="cls-1" d="M27.08,24.06c0,.41-.28,.75-.62,.75s-.62-.33-.62-.75,.28-.75,.62-.75,.62,.33,.62,.75Z"/>
      <line class="cls-1" x1="43.48" y1="26.15" x2="40.13" y2="25.73"/>
    </g>
  </g>
</svg>