<?xml version="1.0" encoding="UTF-8"?>
<svg id="Layer_2" data-name="Layer 2" xmlns="http://www.w3.org/2000/svg" xmlns:xlink="http://www.w3.org/1999/xlink" viewBox="0 0 52.04 55.57">
  <defs>
    <style>
      .cls-1, .cls-2 {
        stroke-miterlimit: 2;
      }

      .cls-1, .cls-2, .cls-3 {
        stroke: #54565a;
      }

      .cls-1, .cls-2, .cls-3, .cls-4 {
        fill: none;
      }

      .cls-1, .cls-3 {
        stroke-width: .25px;
      }

      .cls-5 {
        clip-path: url(#clippath);
      }

      .cls-2 {
        stroke-width: .5px;
      }

      .cls-3 {
        stroke-miterlimit: 10;
      }

      .cls-6 {
        fill: #54565a;
      }
    </style>
    <clipPath id="clippath">
      <rect class="cls-4" y="34.28" width="52.04" height="21.3"/>
    </clipPath>
  </defs>
  <g id="Camada_1" data-name="Camada 1">
    <g class="cls-5">
      <g>
        <g>
          <polyline class="cls-1" points="24.18 18.14 25 18.11 25.82 18.1 26.64 18.1 27.46 18.13 28.28 18.18 28.68 18.24 29.08 18.32 29.47 18.44 29.85 18.61 30.19 18.83 30.35 18.96 30.51 19.1 30.65 19.25 30.77 19.41 30.99 19.76 31.16 20.14 31.29 20.53 31.37 20.93 31.43 21.33 31.48 22.15 31.51 22.97 31.51 23.79 31.5 24.61 31.47 25.43"/>
          <polyline class="cls-1" points="31.47 25.43 31.42 26.02 31.33 26.61 31.26 26.9 31.16 27.18 31.04 27.45 30.89 27.71 30.72 27.95 30.53 28.18 30.31 28.38 30.07 28.56 29.81 28.71 29.54 28.83 29.26 28.93 28.97 29.01 28.38 29.11 27.79 29.15 26.6 29.2 25.41 29.2 24.22 29.16 24.1 29.15 23.95 29.14 23.66 29.12 23.07 29.03 22.78 28.97 22.5 28.88 22.22 28.76 21.96 28.62 21.71 28.46 21.48 28.27 21.27 28.05 21.09 27.82 20.94 27.56 20.8 27.29 20.7 27.01 20.62 26.73 20.51 26.15 20.46 25.56 20.43 24.94 20.41 24.35 20.41 23.16 20.45 21.97"/>
          <polyline class="cls-1" points="20.45 21.97 20.47 21.59 20.5 21.21 20.56 20.83 20.6 20.65 20.64 20.46 20.7 20.28 20.77 20.1 20.84 19.92 20.93 19.75 21.03 19.59 21.13 19.43 21.25 19.28 21.38 19.14 21.51 19 21.66 18.88 21.82 18.77 21.98 18.67 22.15 18.58 22.32 18.49 22.5 18.42 22.68 18.36 22.86 18.31 23.05 18.27 23.43 18.21 23.81 18.17 24 18.15 24.18 18.14"/>
          <path class="cls-2" d="M48.92,16.02c.26,4.92,.26,9.86,0,14.78"/>
          <path class="cls-2" d="M18.58,46.36c4.92,.26,9.86,.26,14.78,0"/>
          <path class="cls-2" d="M18.58,.46c2.08-.11,4.36-.19,6.44-.21"/>
          <path class="cls-2" d="M33.36,.46c-2.46-.13-5.13-.21-7.6-.21"/>
          <path class="cls-2" d="M3.02,16.02c-.26,4.92-.26,9.86,0,14.78"/>
          <polyline class="cls-2" points="3.02 16.02 3.07 15.15 3.13 14.32 3.2 13.58 3.28 12.9 3.33 12.57 3.42 11.96 3.53 11.39 3.65 10.84 3.77 10.33 3.91 9.84 3.97 9.66 4.13 9.18 4.31 8.71 4.49 8.25 4.7 7.81 4.91 7.38 5.14 6.96 5.36 6.58 5.62 6.19 5.88 5.82 6.15 5.45 6.43 5.11 6.72 4.78 7.02 4.47 7.34 4.17 7.67 3.88 8.01 3.59 8.37 3.32 8.75 3.06 9.14 2.81 9.52 2.58 9.93 2.35 10.36 2.14 10.81 1.94 11.26 1.75 11.73 1.57 12.21 1.41 12.39 1.36 12.89 1.22 13.4 1.09 13.95 .97 14.52 .86 15.13 .77 15.46 .72 16.14 .64 16.88 .57 17.71 .51 18.58 .46"/>
          <polyline class="cls-2" points="18.58 46.36 17.71 46.31 16.88 46.25 16.14 46.18 15.46 46.1 15.13 46.05 14.52 45.96 13.95 45.85 13.4 45.73 12.89 45.6 12.39 45.46 12.21 45.41 11.73 45.25 11.26 45.07 10.81 44.88 10.36 44.68 9.93 44.47 9.52 44.24 9.14 44.01 8.75 43.76 8.37 43.5 8.01 43.23 7.67 42.94 7.34 42.65 7.03 42.35 6.73 42.04 6.43 41.71 6.15 41.37 5.88 41 5.62 40.63 5.36 40.24 5.14 39.86 4.91 39.44 4.7 39.01 4.49 38.57 4.31 38.11 4.13 37.64 3.97 37.16 3.91 36.98 3.77 36.49 3.65 35.98 3.53 35.43 3.42 34.86 3.33 34.25 3.28 33.92 3.2 33.24 3.13 32.5 3.07 31.67 3.02 30.8"/>
          <polyline class="cls-2" points="48.92 30.8 48.87 31.67 48.81 32.5 48.74 33.24 48.66 33.92 48.61 34.25 48.52 34.86 48.41 35.43 48.29 35.97 48.16 36.49 48.02 36.98 47.97 37.16 47.81 37.64 47.63 38.11 47.44 38.57 47.24 39.01 47.03 39.44 46.8 39.86 46.57 40.24 46.32 40.63 46.06 41 45.79 41.37 45.5 41.71 45.21 42.04 44.91 42.35 44.6 42.65 44.27 42.94 43.93 43.23 43.57 43.5 43.19 43.76 42.8 44.01 42.42 44.24 42.01 44.47 41.58 44.68 41.13 44.88 40.68 45.07 40.21 45.25 39.73 45.41 39.55 45.46 39.05 45.6 38.54 45.73 37.99 45.85 37.42 45.95 36.81 46.05 36.48 46.1 35.8 46.18 35.06 46.25 34.23 46.31 33.36 46.36"/>
          <polyline class="cls-2" points="33.36 .46 34.23 .51 35.06 .57 35.8 .64 36.48 .72 36.81 .77 37.42 .86 37.99 .97 38.53 1.09 39.05 1.22 39.54 1.36 39.73 1.41 40.21 1.57 40.68 1.75 41.13 1.94 41.57 2.14 42 2.35 42.42 2.58 42.8 2.81 43.19 3.06 43.57 3.32 43.93 3.59 44.27 3.87 44.6 4.17 44.91 4.47 45.21 4.78 45.5 5.11 45.79 5.45 46.06 5.81 46.32 6.19 46.57 6.58 46.8 6.96 47.02 7.38 47.24 7.81 47.44 8.25 47.63 8.71 47.81 9.18 47.97 9.65 48.02 9.83 48.16 10.33 48.29 10.84 48.41 11.39 48.52 11.96 48.61 12.57 48.66 12.9 48.74 13.58 48.81 14.32 48.87 15.15 48.92 16.02"/>
          <polyline class="cls-1" points="45.4 35.9 45.3 36.18 45.19 36.49 45.06 36.8 44.93 37.1 44.93 37.11 44.79 37.4 44.65 37.69 44.5 37.96 44.34 38.23 44.27 38.35 44.11 38.62 43.94 38.87 43.76 39.12 43.57 39.36 43.38 39.59 43.19 39.82 42.99 40.04 42.79 40.25 42.57 40.45 42.36 40.65 42.13 40.85 41.89 41.04 41.65 41.22 41.4 41.4 41.15 41.57 40.89 41.73 40.77 41.81 40.5 41.96 40.22 42.11 39.93 42.25 39.64 42.39 39.34 42.52 39.04 42.64 38.73 42.76 38.43 42.86 38.1 42.96 37.77 43.06 37.42 43.15 37.05 43.23 36.9 43.27"/>
          <path class="cls-1" d="M6.88,13.68c.53,.13,1.07-.2,1.21-.73m-1.96-.46c-.11,.54,.22,1.06,.75,1.19"/>
          <path class="cls-1" d="M15.04,3.58c.54-.11,1.06,.22,1.19,.75m0,0c.13,.53-.2,1.07-.72,1.21"/>
          <polyline class="cls-1" points="15.5 5.54 15.5 5.54 15.38 5.57 15.07 5.66 14.77 5.75 14.52 5.84 14.23 5.94 13.95 6.06 13.67 6.18 13.4 6.31 13.13 6.44 12.87 6.58 12.62 6.72 12.5 6.8 12.25 6.95 12.01 7.11 11.78 7.28 11.56 7.45 11.34 7.62 11.13 7.8 10.93 7.99 10.73 8.18 10.55 8.37 10.36 8.57 10.18 8.78 10.01 9 9.83 9.22 9.67 9.46 9.51 9.7 9.35 9.94 9.28 10.06 9.28 10.06 9.13 10.32 8.99 10.58 8.86 10.84 8.73 11.11 8.62 11.38 8.5 11.66 8.4 11.95 8.31 12.21 8.21 12.51 8.12 12.83 8.09 12.96"/>
          <polyline class="cls-1" points="6.13 12.49 6.13 12.49 6.15 12.39 6.18 12.25 6.21 12.11 6.25 11.97 6.28 11.84 6.32 11.7 6.35 11.57 6.39 11.45 6.42 11.32 6.46 11.19 6.5 11.07 6.54 10.95"/>
          <polyline class="cls-1" points="6.54 10.95 6.64 10.66 6.75 10.35 6.88 10.05 7 9.75 7.01 9.73 7.15 9.44 7.29 9.16 7.44 8.88 7.59 8.61 7.67 8.49 7.83 8.23 8 7.97 8.18 7.73 8.36 7.48 8.55 7.25 8.75 7.02 8.95 6.81 9.15 6.59 9.36 6.39 9.58 6.19 9.81 6 10.04 5.81 10.28 5.62 10.53 5.45 10.79 5.28 11.05 5.11 11.17 5.04 11.44 4.88 11.72 4.73 12 4.59 12.3 4.46 12.59 4.33 12.9 4.2 13.21 4.09 13.51 3.99 13.83 3.88 14.17 3.79 14.52 3.7 14.88 3.61 15.04 3.58"/>
          <path class="cls-1" d="M6.88,33.16c-.53,.13-.87,.65-.75,1.19"/>
          <path class="cls-1" d="M15.5,41.3c.53,.14,.85,.67,.73,1.21m0,0c-.13,.53-.65,.87-1.19,.75"/>
          <polyline class="cls-1" points="15.04 43.26 15.04 43.26 14.94 43.24 14.8 43.21 14.66 43.18 14.52 43.15 14.38 43.11 14.25 43.08 14.12 43.04 13.99 43 13.86 42.97 13.74 42.93 13.62 42.89 13.49 42.85"/>
          <line class="cls-1" x1="13.48" y1="3.99" x2="13.49" y2="3.99"/>
          <line class="cls-1" x1="13.48" y1="3.99" x2="13.49" y2="3.99"/>
          <line class="cls-1" x1="13.49" y1="42.86" x2="13.48" y2="42.85"/>
          <line class="cls-1" x1="13.49" y1="42.86" x2="13.48" y2="42.85"/>
          <line class="cls-1" x1="17.81" y1="4.32" x2="17.71" y2="2.1"/>
          <line class="cls-1" x1="15.5" y1="41.3" x2="15.51" y2="41.28"/>
          <line class="cls-1" x1="20.12" y1="1.73" x2="19.78" y2="1.74"/>
          <path class="cls-1" d="M23.25,4.36c-.56,0-1.11,.02-1.67,.04"/>
          <path class="cls-1" d="M21.58,1.68c-.49,.01-.97,.03-1.46,.05"/>
          <path class="cls-1" d="M21.58,4.39c-.35,.01-.69,.02-1.04,.04"/>
          <path class="cls-1" d="M16,42.96s.09-.1,.12-.16"/>
          <path class="cls-1" d="M15.08,43.28c.06,0,.11,.01,.17,.01"/>
          <path class="cls-1" d="M15.98,42.98s.01-.01,.02-.02"/>
          <path class="cls-1" d="M15.24,43.29h.04"/>
          <path class="cls-1" d="M15.43,43.28s.05,0,.08-.02"/>
          <path class="cls-1" d="M15.28,43.29s.04,0,.07,0"/>
          <path class="cls-1" d="M15.35,43.29s.05,0,.08-.01"/>
          <path class="cls-1" d="M15.53,41.29s-.01,0-.02,0"/>
          <path class="cls-1" d="M15.52,41.29s0,0,0,0"/>
          <path class="cls-1" d="M15.04,43.27s.03,0,.04,0"/>
          <path class="cls-1" d="M11.8,32.82c-.1,.12-.12,.28-.07,.43m.47-.58c-.15-.02-.31,.03-.4,.15m.74,.12c-.06-.14-.18-.25-.34-.27"/>
          <path class="cls-1" d="M16.45,36.85c.22,.09,.33,.34,.25,.56m0,0c-.09,.22-.34,.33-.56,.25"/>
          <path class="cls-1" d="M8.95,6.79c-.09,.09-.18,.19-.26,.29"/>
          <path class="cls-1" d="M12.2,14.18c.15-.02,.28-.13,.33-.27m-.74,.12c.1,.12,.25,.18,.4,.15m-.47-.58c-.06,.14-.03,.31,.07,.43"/>
          <path class="cls-1" d="M16.14,9.18c.22-.09,.47,.03,.56,.25m0,0c.09,.22-.03,.47-.25,.56"/>
          <path class="cls-1" d="M15.97,3.85s-.01-.01-.02-.02"/>
          <path class="cls-1" d="M16.27,4.56s0-.04,0-.06"/>
          <path class="cls-1" d="M6.16,34.54c-.01-.06-.03-.12-.04-.18h0s.03,.14,.03,.14l.09,.36,.09,.35,.1,.34,.1,.33,.1,.3,.12,.31,.12,.31,.13,.3,.14,.29,.14,.28,.15,.28,.16,.27,.07,.12,.16,.26,.17,.26,.18,.25,.18,.24,.19,.23,.19,.23,.2,.22,.2,.21,.21,.2,.22,.2,.23,.19,.23,.19,.24,.18,.25,.18,.25,.17,.26,.16,.12,.07,.27,.15,.28,.15,.28,.14,.29,.14h.01s.3,.14,.3,.14l.31,.12,.31,.12,.28,.1"/>
          <path class="cls-1" d="M13.31,42.8c.06,.02,.11,.04,.17,.06"/>
          <path class="cls-1" d="M21.13,3.1c0-.27-.22-.48-.48-.48s-.48,.22-.48,.48,.22,.48,.48,.48,.48-.22,.48-.48"/>
          <path class="cls-1" d="M13.48,3.99c-.1,.03-.2,.07-.3,.1"/>
          <path class="cls-1" d="M17.94,1.84c-.13,0-.24,.12-.23,.26"/>
          <path class="cls-1" d="M17.89,4.49s.11,.07,.18,.06m-.26-.23c0,.07,.03,.13,.08,.17"/>
          <path class="cls-1" d="M36.69,43.29s.1,0,.14-.01"/>
          <path class="cls-1" d="M36.13,43.12s.06,.03,.08,.05"/>
          <path class="cls-1" d="M35.96,42.98s.02,.02,.04,.04"/>
          <path class="cls-1" d="M36.67,43.29h.03"/>
          <path class="cls-1" d="M36,43.02s.08,.07,.13,.1"/>
          <path class="cls-1" d="M35.67,42.28s0,.05,0,.07"/>
          <path class="cls-1" d="M36.61,43.29s.04,0,.05,0"/>
          <path class="cls-1" d="M36.84,43.28s.04,0,.06-.01"/>
          <path class="cls-1" d="M36.21,43.17c.07,.03,.13,.06,.21,.08l.14,.03s.04,0,.06,0"/>
          <path class="cls-1" d="M36.42,41.29s-.01,0-.02,0"/>
          <path class="cls-1" d="M36.43,41.29s0,0,0,0"/>
          <path class="cls-1" d="M35.21,37.42c.08,.22,.33,.34,.56,.25m-.31-.81c-.22,.08-.34,.33-.25,.56"/>
          <path class="cls-1" d="M45.84,34.14s0,.1-.01,.14l-.02,.06-.02,.1-.03,.14-.03,.14-.03,.14-.03,.13-.03,.13-.03,.13-.04,.13-.04,.13-.04,.13-.04,.12-.04,.12"/>
          <path class="cls-1" d="M45.82,33.96s0-.03-.01-.05"/>
          <path class="cls-1" d="M45.84,34.06s0,.05,0,.08"/>
          <path class="cls-1" d="M44.9,33.13s-.05,0-.08,0"/>
          <path class="cls-1" d="M45.84,34.06s0-.07-.01-.11"/>
          <path class="cls-1" d="M35.21,9.42c-.08,.22,.03,.47,.25,.56m.31-.81c-.22-.08-.47,.03-.56,.25"/>
          <polyline class="cls-1" points="20.54 4.43 20.54 4.43 20.3 4.44 20.05 4.45 19.8 4.46 19.55 4.47 19.31 4.48 19.06 4.5 18.81 4.51 18.57 4.52 18.32 4.54 18.07 4.55"/>
          <polyline class="cls-1" points="19.78 1.74 19.78 1.74 19.59 1.75 19.41 1.76 19.23 1.77 19.04 1.78 18.86 1.79 18.67 1.8 18.49 1.81 18.31 1.82 18.12 1.83 17.94 1.84"/>
          <polyline class="cls-1" points="39.4 13.91 39.41 13.93 39.42 13.95 39.43 13.97 39.44 13.99 39.46 14.01 39.47 14.02 39.48 14.04 39.5 14.06 39.52 14.07 39.53 14.09 39.55 14.1 39.57 14.11 39.59 14.13 39.61 14.14 39.63 14.15 39.65 14.16 39.67 14.16 39.7 14.17 39.71 14.17 39.74 14.18 39.76 14.18 39.78 14.18 39.81 14.18 39.83 14.18 39.85 14.18 39.87 14.18 39.9 14.17 39.92 14.17 39.94 14.16 39.96 14.15 39.98 14.15 40 14.14 40.02 14.12 40.04 14.11 40.06 14.1 40.08 14.08 40.1 14.07 40.11 14.05 40.13 14.04 40.14 14.02 40.16 14 40.17 13.98 40.18 13.96 40.19 13.95 40.2 13.92 40.21 13.9 40.22 13.88 40.22 13.86 40.23 13.84 40.23 13.81 40.23 13.79 40.24 13.77 40.24 13.75 40.23 13.72 40.23 13.7 40.23 13.68 40.22 13.65 40.22 13.63 40.21 13.6 40.21 13.59 40.2 13.56 40.18 13.53 40.16 13.47 40.16 13.46 40.14 13.42 40.1 13.34 40.07 13.25 40.05 13.21 40.04 13.18 39.99 13.09 39.95 13 39.91 12.9 39.88 12.84"/>
          <polyline class="cls-1" points="35.46 9.98 35.56 10.02 35.73 10.09 35.9 10.16 36.07 10.24 36.23 10.32 36.39 10.4 36.54 10.49 36.69 10.58 36.84 10.67 36.99 10.77 37.13 10.86 37.26 10.96 37.39 11.07 37.52 11.17 37.64 11.28 37.76 11.39 37.88 11.5 37.99 11.61 38.1 11.73 38.2 11.85 38.31 11.98 38.41 12.11 38.51 12.25 38.61 12.38 38.71 12.53 38.8 12.68 38.89 12.83 38.98 12.98 39.06 13.14 39.14 13.3 39.22 13.47 39.29 13.64 39.36 13.81 39.4 13.91"/>
          <polyline class="cls-1" points="11.73 33.25 11.8 33.42 11.88 33.62 11.97 33.8 12.05 33.99 12.15 34.17 12.24 34.35 12.34 34.52 12.44 34.69 12.47 34.72 12.57 34.88 12.68 35.04 12.79 35.2 12.91 35.35 12.95 35.4 13.07 35.54 13.19 35.68 13.32 35.82 13.44 35.95 13.5 36.01 13.63 36.13 13.77 36.25 13.9 36.37 14.04 36.48 14.19 36.59 14.34 36.7 14.5 36.81 14.68 36.93 14.7 36.94 14.9 37.06 15.05 37.15 15.07 37.16 15.24 37.26 15.4 37.35 15.47 37.38 15.62 37.45 15.76 37.52 15.89 37.57 16.02 37.62 16.14 37.66"/>
          <polyline class="cls-1" points="16.45 36.85 16.3 36.79 16.13 36.72 15.96 36.64 15.79 36.57 15.63 36.48 15.47 36.4 15.32 36.31 15.17 36.22 15.14 36.2 14.99 36.1 14.85 36.01 14.72 35.91 14.59 35.81 14.54 35.77 14.41 35.67 14.29 35.56 14.17 35.45 14.05 35.34 13.94 35.22 13.83 35.1 13.72 34.98 13.62 34.85 13.58 34.8 13.48 34.67 13.38 34.54 13.29 34.4 13.19 34.25 13.17 34.22 13.08 34.07 12.99 33.91 12.9 33.75 12.82 33.59 12.74 33.43 12.67 33.26 12.6 33.09 12.54 32.94"/>
          <polyline class="cls-1" points="16.14 9.18 15.96 9.25 15.77 9.33 15.58 9.42 15.4 9.51 15.22 9.6 15.04 9.69 14.87 9.79 14.7 9.9 14.66 9.92 14.5 10.03 14.34 10.13 14.19 10.25 14.04 10.36 13.99 10.4 13.85 10.52 13.71 10.64 13.58 10.77 13.44 10.89 13.31 11.03 13.19 11.16 13.07 11.3 12.95 11.45 12.91 11.5 12.79 11.64 12.68 11.8 12.58 11.95 12.47 12.12 12.45 12.16 12.34 12.32 12.24 12.5 12.15 12.67 12.05 12.86 11.97 13.04 11.88 13.23 11.8 13.42 11.73 13.6"/>
          <polyline class="cls-1" points="12.54 13.91 12.6 13.75 12.67 13.58 12.74 13.42 12.82 13.25 12.9 13.09 12.99 12.93 13.08 12.78 13.17 12.63 13.19 12.59 13.29 12.44 13.38 12.3 13.48 12.17 13.58 12.04 13.62 11.99 13.72 11.87 13.83 11.74 13.94 11.62 14.05 11.51 14.17 11.39 14.29 11.28 14.41 11.17 14.54 11.07 14.59 11.03 14.72 10.93 14.85 10.83 14.99 10.74 15.14 10.64 15.17 10.62 15.32 10.53 15.48 10.44 15.63 10.36 15.79 10.28 15.96 10.2 16.13 10.12 16.3 10.05 16.45 9.99"/>
          <polyline class="cls-1" points="21.58 1.68 21.8 1.67 21.95 1.67 22.18 1.66 22.33 1.66 22.52 1.65 22.71 1.65 22.89 1.65 23.08 1.64 23.18 1.64 23.27 1.64 23.36 1.64 23.41 1.64 23.46 1.64 23.51 1.64 23.53 1.64 23.55 1.64 23.56 1.64 23.58 1.64 23.58 1.64 23.58 1.64 23.59 1.64 23.63 1.64 23.67 1.63 23.73 1.63 23.79 1.63 23.84 1.63 23.85 1.63 23.93 1.63 23.98 1.63 24.03 1.62 24.08 1.62 24.09 1.61 24.13 1.6 24.17 1.59 24.21 1.58 24.22 1.57 24.26 1.56 24.29 1.54 24.33 1.52 24.34 1.51 24.37 1.49 24.4 1.46 24.43 1.44 24.45 1.41 24.48 1.38 24.5 1.35 24.52 1.32 24.53 1.28 24.55 1.25 24.56 1.21 24.57 1.17 24.58 1.13 24.59 1.08 24.6 1.03 24.6 1.02 24.6 .97 24.61 .9 24.61 .81 24.61 .79"/>
          <polyline class="cls-1" points="39.88 12.84 39.82 12.73 39.73 12.56 39.64 12.4 39.54 12.24 39.45 12.08 39.35 11.93 39.24 11.78 39.14 11.64 39.13 11.63 39.02 11.49 38.91 11.35 38.8 11.22 38.68 11.09 38.56 10.96 38.44 10.84 38.31 10.72 38.19 10.6 38.06 10.49 37.92 10.38 37.78 10.27 37.64 10.17 37.49 10.07 37.34 9.96 37.19 9.87 37.04 9.78 36.88 9.69 36.71 9.6 36.54 9.51 36.37 9.43 36.2 9.35 36.02 9.27 35.84 9.2 35.77 9.17"/>
          <polyline class="cls-1" points="35.77 37.67 35.85 37.64 36.05 37.56 36.24 37.47 36.44 37.38 36.63 37.29 36.74 37.23 36.92 37.13 37.1 37.03 37.27 36.92 37.44 36.81 37.57 36.72 37.73 36.61 37.89 36.49 38.04 36.37 38.18 36.24 38.32 36.12 38.46 35.98 38.52 35.92 38.65 35.78 38.78 35.64 38.84 35.58 38.96 35.43 39.08 35.27 39.13 35.21 39.25 35.05 39.36 34.89 39.4 34.83 39.51 34.66 39.62 34.48 39.65 34.43 39.75 34.24 39.76 34.22 39.86 34.03 39.87 34.01 39.88 33.98 39.97 33.8 40.06 33.61 40.07 33.59 40.11 33.48 40.16 33.37 40.18 33.33 40.2 33.26 40.21 33.24 40.22 33.19 40.23 33.15 40.24 33.1 40.23 33.05 40.23 33.01 40.22 32.96 40.2 32.92 40.18 32.87 40.15 32.83 40.12 32.8 40.09 32.77 40.05 32.74 40.01 32.71 39.97 32.69 39.93 32.68 39.88 32.67 39.83 32.66 39.79 32.66 39.74 32.66 39.7 32.67 39.65 32.69 39.61 32.71 39.59 32.71 39.58 32.72 39.57 32.73 39.55 32.74 39.54 32.75 39.53 32.76 39.52 32.77 39.5 32.78 39.49 32.79 39.48 32.8 39.47 32.82 39.46 32.83 39.45 32.84 39.44 32.85 39.44 32.87 39.43 32.88 39.42 32.89 39.41 32.91 39.41 32.92 39.4 32.94 39.36 33.03 39.29 33.21 39.22 33.37 39.14 33.54 39.06 33.7 38.98 33.86 38.89 34.01 38.8 34.17 38.71 34.31 38.61 34.46 38.51 34.6 38.41 34.73 38.31 34.86 38.2 34.99 38.1 35.11 37.99 35.23 37.88 35.34 37.76 35.46 37.64 35.56 37.52 35.67 37.39 35.78 37.26 35.88 37.13 35.98 36.99 36.08 36.84 36.17 36.69 36.26 36.54 36.35 36.39 36.44 36.23 36.52 36.07 36.6 35.9 36.68 35.73 36.75 35.56 36.82 35.46 36.86"/>
          <polyline class="cls-1" points="25.97 39.47 26.39 39.46 27.7 39.45 29 39.42 29.42 39.4 30 39.38 31.15 39.33 31.54 39.3 32.25 39.25 32.87 39.19 33.06 39.17 33.6 39.1 34.1 39.02 34.57 38.92 34.99 38.82 35.41 38.7 35.42 38.7 35.83 38.57 36.22 38.42 36.33 38.38 36.71 38.21 37.07 38.03 37.42 37.84 37.76 37.64 37.95 37.51 38.26 37.29 38.56 37.05 38.84 36.81 39.11 36.56 39.36 36.29 39.6 36.01 39.84 35.71 40.06 35.4 40.18 35.21 40.39 34.88 40.58 34.52 40.76 34.16 40.92 33.78 40.97 33.68 41.11 33.28 41.25 32.87 41.25 32.86 41.37 32.44 41.47 32.03 41.56 31.56 41.65 31.06 41.72 30.52 41.74 30.32 41.8 29.71 41.85 28.99 41.87 28.6 41.93 27.44 41.95 26.87 41.97 26.46 42 25.15 42.01 23.84 42.01 23.42"/>
          <polyline class="cls-1" points="9.92 23.42 9.92 23.83 9.94 25.15 9.97 26.46 9.99 26.87 10.01 27.44 10.06 28.6 10.09 28.99 10.14 29.71 10.2 30.32 10.22 30.52 10.29 31.06 10.37 31.56 10.47 32.03 10.57 32.44 10.69 32.86 10.69 32.87 10.82 33.28 10.97 33.68 11.01 33.78 11.18 34.16 11.36 34.52 11.55 34.88 11.75 35.21 11.88 35.4 12.1 35.71 12.33 36.01 12.58 36.29 12.83 36.56 13.1 36.81 13.38 37.06 13.68 37.29 13.99 37.51 14.18 37.64 14.51 37.84 14.86 38.03 15.23 38.21 15.61 38.38 15.71 38.42 16.11 38.57 16.51 38.7 16.53 38.7 16.95 38.82 17.36 38.92 17.83 39.02 18.33 39.1 18.88 39.17 19.07 39.19 19.68 39.25 20.4 39.3 20.79 39.33 21.94 39.38 22.52 39.4 22.94 39.42 24.24 39.45 25.54 39.46 25.97 39.47"/>
          <polyline class="cls-1" points="20.54 7.53 20.4 7.54 19.74 7.58 19.16 7.64 18.73 7.69 18.24 7.76 17.79 7.83 17.64 7.86 17.22 7.95 16.82 8.05 16.44 8.17 16.21 8.24 15.85 8.37 15.49 8.51 15.15 8.67 14.88 8.8 14.55 8.98 14.24 9.17 13.94 9.36 13.94 9.37 13.65 9.57 13.38 9.79 13.12 10.01 12.87 10.24 12.64 10.48 12.41 10.74 12.19 11.01 11.98 11.29 11.98 11.3 11.78 11.59 11.59 11.9 11.41 12.22 11.27 12.49 11.11 12.83 10.96 13.19 10.83 13.55 10.75 13.78 10.64 14.15 10.53 14.54 10.44 14.96 10.4 15.12 10.32 15.56 10.25 16.04 10.19 16.56 10.14 17.13 10.09 17.79 10.08 17.87 10.04 18.73 10.01 19.26 10.01 19.46 9.96 20.65 9.94 21.84 9.92 23.04 9.92 23.42"/>
          <polyline class="cls-1" points="31.4 7.53 30.55 7.48 29.69 7.45 28.81 7.42 27.92 7.39 27.01 7.38 26.08 7.38 25.97 7.38 25.87 7.38 24.94 7.38 24.03 7.39 23.14 7.42 22.26 7.45 21.39 7.48 20.54 7.53"/>
          <polyline class="cls-1" points="42.01 23.42 42.01 23.05 42 21.85 41.97 20.65 41.93 19.45 41.92 19.26 41.9 18.74 41.85 17.88 41.85 17.8 41.8 17.14 41.75 16.56 41.68 16.05 41.61 15.57 41.53 15.12 41.5 14.96 41.41 14.55 41.3 14.16 41.19 13.78 41.11 13.55 40.98 13.19 40.83 12.84 40.67 12.5 40.53 12.22 40.35 11.9 40.16 11.6 39.96 11.3 39.96 11.29 39.75 11.01 39.53 10.74 39.3 10.49 39.07 10.24 38.82 10.01 38.56 9.79 38.29 9.57 38 9.37 38 9.36 37.7 9.17 37.39 8.98 37.07 8.81 36.8 8.67 36.45 8.52 36.1 8.37 35.73 8.24 35.5 8.17 35.13 8.06 34.73 7.96 34.31 7.86 34.16 7.84 33.7 7.76 33.21 7.69 32.79 7.64 32.21 7.59 31.55 7.54 31.4 7.53"/>
          <path class="cls-1" d="M38.68,4.06c-.07-.03-.15-.05-.22-.07h-.01s.01,0,.01,0h-.01s.28,.1,.28,.1l.31,.12,.31,.12,.3,.13h.01s.29,.14,.29,.14l.28,.14,.28,.15,.27,.16,.12,.07,.26,.16,.25,.17,.25,.18,.24,.18,.23,.19,.23,.19,.22,.2,.21,.2,.2,.21,.2,.22,.19,.23,.19,.23,.18,.24,.18,.25,.17,.26,.16,.26,.07,.12,.16,.27,.15,.28,.14,.28,.14,.29,.13,.3,.12,.31,.12,.31,.1,.3,.1,.32,.1,.34,.09,.35,.09,.36,.03,.15,.03,.23c0,.05,0,.1-.01,.15,0,.02,0,.04-.01,.06v.02s-.01,.02-.01,.02v.02s-.01,.02-.01,.02v.02s-.01,0-.01,0v.02s-.02,.02-.02,.02v.02s-.02,.02-.02,.02v.02s-.02,.02-.02,.02v.02s-.02,.02-.02,.02v.02s-.03,.02-.03,.02v.02s-.03,.02-.03,.02l-.02,.02v.02s-.03,.02-.03,.02l-.02,.02-.02,.02-.02,.02h0s-.02,.02-.02,.02l-.02,.02-.02,.02-.02,.02-.02,.02h-.02s-.02,.03-.02,.03h-.02s-.02,.02-.02,.02h-.02s-.02,.03-.02,.03h-.02s-.02,.02-.02,.02h-.02s-.02,.02-.02,.02h-.02s0,.01,0,.01h-.02s-.02,.02-.02,.02h-.02s-.02,.02-.02,.02h-.02s-.02,.01-.02,.01h-.02s-.02,.01-.02,.01h-.02s-.02,0-.02,0c-.05,0-.1,.01-.15,.01h-.15s-.03,0-.03,0h-.03s-.03,0-.03,0h-.01s-.03,0-.03,0h-.03s-.03-.01-.03-.01h-.03s-.03-.02-.03-.02h-.03s-.03-.02-.03-.02h-.03s-.03-.03-.03-.03h-.03s-.01-.02-.01-.02h-.03s-.02-.03-.02-.03l-.02-.02-.02-.02-.02-.02-.02-.02-.02-.02-.02-.02-.02-.02-.02-.02-.02-.02-.02-.02-.02-.02h0s-.02-.03-.02-.03l-.02-.03v-.02s-.03-.03-.03-.03v-.03s-.03-.03-.03-.03v-.03s-.03-.03-.03-.03v-.03s-.02-.03-.02-.03v-.03s-.02-.03-.02-.03v-.03s-.01-.03-.01-.03l-.08-.29-.09-.3-.1-.3-.11-.29-.11-.29-.12-.28-.13-.27-.13-.27-.14-.26-.11-.2-.15-.25-.15-.24-.16-.24-.16-.23-.16-.22-.18-.22-.18-.21-.19-.2-.19-.2-.2-.19-.2-.19-.21-.18-.22-.18-.22-.16-.23-.16-.24-.16-.24-.15-.25-.15-.21-.11-.26-.14-.27-.13-.27-.12-.28-.12-.29-.11-.29-.11-.3-.1-.3-.09-.29-.08v-.02s0,.02,0,.02h0s-.02,0-.02,0h-.04s-.04-.02-.04-.02h-.04s-.04-.03-.04-.03l-.04-.02-.04-.02-.04-.02-.04-.02-.03-.02-.03-.03h0s-.03-.04-.03-.04l-.03-.03-.03-.03-.03-.03-.03-.03-.03-.03-.02-.03-.02-.04-.02-.03-.02-.04-.02-.04-.02-.04-.02-.04v-.04s-.01,0-.01,0v-.04s-.02-.04-.02-.04h0s0-.04,0-.04v-.04s-.01-.04-.01-.04v-.04s0-.04,0-.04v-.04s0-.04,0-.04v-.04s0-.04,0-.04v-.04s.02-.04,.02-.04h0s.01-.04,.01-.04v-.04s.03-.04,.03-.04l.02-.04,.02-.04,.02-.04h0s.02-.04,.02-.04l.02-.04,.02-.04,.02-.03,.03-.03,.03-.03,.03-.03,.03-.03,.03-.03h0s.03-.03,.03-.03l.03-.03,.03-.02,.04-.02,.04-.02,.04-.02,.04-.02,.04-.02h0s.04-.02,.04-.02h.04s.04-.03,.04-.03h.04s.04-.02,.04-.02c.04,0,.07-.01,.11-.01,.03,0,.05,0,.08,0,.05,0,.1,0,.14,.01,.02,0,.04,0,.06,.01,0,0,.1,.02,.1,.02l.14,.03,.14,.03,.14,.03,.14,.03,.13,.03,.13,.04,.13,.04,.13,.04,.13,.04,.12,.04,.12,.04h0s-.12-.03-.12-.03l-.12-.04-.13-.04-.13-.04-.13-.04-.13-.04-.13-.03-.13-.03-.14-.03-.14-.03-.14-.03-.1-.02"/>
          <polyline class="cls-1" points="23.25 4.36 23.38 4.35 23.63 4.35 23.82 4.34 23.98 4.33 24.06 4.33 24.2 4.32 24.34 4.3 24.47 4.28 24.59 4.26 24.7 4.23 24.73 4.23 24.85 4.2 24.96 4.16 25.07 4.12 25.18 4.08 25.29 4.04 25.39 3.99 25.5 3.94 25.6 3.88 25.7 3.82 25.8 3.75 25.89 3.69 25.99 3.61 26.01 3.6 26.1 3.52 26.19 3.44 26.28 3.36 26.36 3.27 26.45 3.19 26.45 3.18 26.53 3.09 26.54 3.07 26.62 2.98 26.69 2.88 26.75 2.78 26.82 2.68 26.88 2.58 26.93 2.48 26.98 2.37 27.03 2.27 27.07 2.16 27.11 2.05 27.12 2.02 27.16 1.91 27.19 1.8 27.22 1.68 27.24 1.57 27.26 1.44 27.28 1.31 27.3 1.18 27.3 1.08 27.3 .32"/>
          <polyline class="cls-1" points="36.4 41.29 36.37 41.3 36.34 41.31 36.31 41.32 36.29 41.33 36.27 41.34 36.24 41.35 36.21 41.37 36.19 41.38 36.16 41.4 36.13 41.42 36.11 41.43 36.08 41.45 36.06 41.47 36.03 41.49 36.01 41.51 35.98 41.53 35.96 41.56 35.94 41.58 35.93 41.59 35.91 41.61 35.89 41.64 35.87 41.66 35.85 41.69 35.83 41.72 35.82 41.74 35.8 41.77 35.79 41.78 35.78 41.81 35.77 41.84 35.75 41.87 35.74 41.9 35.73 41.93 35.72 41.96 35.71 41.99 35.7 42.02 35.69 42.05 35.69 42.08 35.68 42.11 35.68 42.14 35.68 42.15 35.67 42.19 35.67 42.22 35.67 42.25 35.67 42.28"/>
          <polyline class="cls-1" points="35.67 42.35 35.67 42.38 35.68 42.4 35.68 42.42 35.68 42.45 35.69 42.47 35.69 42.5 35.7 42.51 35.7 42.53 35.71 42.55 35.72 42.58 35.72 42.6 35.73 42.62 35.74 42.65 35.75 42.67 35.76 42.69 35.77 42.71 35.78 42.74 35.79 42.76 35.8 42.78 35.82 42.8 35.83 42.82 35.84 42.84 35.86 42.86 35.86 42.87 35.88 42.89 35.89 42.91 35.91 42.93 35.93 42.95 35.94 42.97 35.96 42.98"/>
          <polyline class="cls-1" points="36.9 43.27 37 43.25 37.14 43.22"/>
          <polyline class="cls-1" points="45.81 33.91 45.8 33.88 45.79 33.85 45.78 33.82 45.77 33.79 45.76 33.76 45.76 33.75 45.75 33.72 45.73 33.69 45.72 33.66 45.7 33.64 45.69 33.61 45.67 33.58 45.65 33.56 45.64 33.53 45.62 33.51 45.6 33.48 45.58 33.46 45.57 33.45 45.55 33.43 45.53 33.41 45.51 33.39 45.48 33.37 45.46 33.35 45.43 33.33 45.41 33.31 45.38 33.29 45.36 33.28 45.35 33.27 45.32 33.26 45.3 33.24 45.27 33.23 45.24 33.21 45.21 33.2 45.18 33.19 45.15 33.18 45.12 33.17 45.09 33.16 45.06 33.15 45.06 33.15 45.03 33.14 45 33.14 44.97 33.13 44.93 33.13 44.9 33.13"/>
          <polyline class="cls-1" points="44.82 33.12 44.79 33.12 44.76 33.12 44.73 33.13 44.7 33.13 44.68 33.13 44.65 33.14 44.62 33.14 44.59 33.15 44.56 33.16 44.53 33.16 44.5 33.17 44.47 33.18 44.44 33.19 44.41 33.21 44.38 33.22 44.35 33.23 44.33 33.25 44.31 33.26 44.29 33.27 44.26 33.29 44.23 33.31 44.21 33.32 44.18 33.34 44.16 33.36 44.14 33.38 44.11 33.41 44.1 33.42 44.08 33.44 44.06 33.46 44.04 33.48 44.02 33.51 44 33.53 43.98 33.56 43.96 33.59 43.95 33.61 43.93 33.64 43.92 33.67 43.9 33.7 43.89 33.73 43.88 33.74 43.87 33.77 43.86 33.8 43.85 33.83 43.84 33.86 43.83 33.88 43.8 34 43.71 34.31 43.62 34.61 43.52 34.9 43.41 35.19 43.34 35.36 43.22 35.64 43.1 35.91 42.97 36.18 42.83 36.44 42.72 36.65 42.57 36.9 42.42 37.14 42.26 37.38 42.09 37.61 41.93 37.82 41.75 38.04 41.57 38.25 41.39 38.45 41.2 38.65 41 38.84 40.8 39.03 40.59 39.21 40.37 39.38 40.15 39.55 39.92 39.71 39.69 39.87 39.44 40.02 39.2 40.17 38.99 40.28 38.73 40.42 38.46 40.55 38.19 40.68 37.91 40.79 37.74 40.86 37.45 40.97 37.16 41.07 36.85 41.17 36.53 41.26 36.43 41.28"/>
          <polyline class="cls-1" points="15.5 43.26 15.53 43.25 15.55 43.25 15.57 43.24 15.58 43.23 15.61 43.23 15.63 43.22 15.65 43.21 15.67 43.2 15.7 43.19 15.72 43.18 15.74 43.16 15.76 43.15 15.78 43.14 15.8 43.13 15.82 43.11 15.84 43.1 15.86 43.08 15.88 43.07 15.89 43.06 15.91 43.05 15.93 43.03 15.95 43.02 15.96 43 15.98 42.98"/>
          <polyline class="cls-1" points="16.12 42.8 16.14 42.77 16.15 42.74 16.17 42.71 16.18 42.67 16.2 42.64 16.21 42.62 16.22 42.58 16.23 42.54 16.24 42.51 16.25 42.47 16.25 42.44 16.26 42.4 16.26 42.36 16.27 42.33 16.27 42.29 16.27 42.25 16.27 42.22 16.26 42.18 16.26 42.14 16.25 42.11 16.25 42.08 16.24 42.05 16.23 42.01 16.22 41.97 16.21 41.94 16.2 41.9 16.19 41.87 16.17 41.84 16.15 41.8 16.14 41.77 16.12 41.74 16.1 41.72 16.08 41.69 16.06 41.66 16.04 41.63 16.02 41.6 15.99 41.57 15.96 41.55 15.94 41.52 15.91 41.5 15.88 41.47 15.85 41.45 15.82 41.43 15.79 41.41 15.76 41.39 15.74 41.38 15.7 41.36 15.67 41.34 15.64 41.33 15.6 41.31 15.57 41.3 15.53 41.29"/>
          <path class="cls-1" d="M15.51,41.29l-.1-.03-.32-.09-.31-.1-.3-.1-.29-.11-.17-.07-.28-.12-.27-.12-.27-.13-.26-.14-.21-.11-.25-.15-.24-.15-.24-.16-.23-.16-.22-.16-.22-.18-.21-.18-.2-.19-.2-.19-.19-.2-.19-.2-.18-.21-.18-.22-.16-.22-.16-.23-.16-.24-.15-.24-.15-.25-.11-.2-.14-.26-.13-.27-.12-.27-.12-.28-.07-.17-.11-.29-.1-.3-.09-.3-.09-.31-.03-.11h0c-.14-.53-.69-.84-1.23-.72"/>
          <line class="cls-1" x1="24.61" y1=".81" x2="24.61" y2=".28"/>
          <path class="cls-1" d="M25.97,43.53c-.27,0-.48-.22-.48-.48s.22-.48,.48-.48,.48,.22,.48,.48-.22,.48-.48,.48Z"/>
        </g>
        <g>
          <path class="cls-6" d="M25.91,45.15c-.27,0-.48-.22-.48-.48s.22-.48,.48-.48,.48,.22,.48,.48-.22,.48-.48,.48"/>
          <path class="cls-3" d="M25.91,53.86c-.56,0-1.01-.45-1.01-1.01s.45-1.01,1.01-1.01,1.01,.45,1.01,1.01-.45,1.01-1.01,1.01Z"/>
          <line class="cls-3" x1="25.91" y1="44.67" x2="25.91" y2="51.83"/>
        </g>
      </g>
    </g>
  </g>
</svg>