<?xml version="1.0" encoding="UTF-8"?>
<svg id="Layer_2" data-name="Layer 2" xmlns="http://www.w3.org/2000/svg" xmlns:xlink="http://www.w3.org/1999/xlink" viewBox="0 0 61.41 42.99">
  <defs>
    <style>
      .cls-1 {
        fill: #fff;
      }

      .cls-2 {
        stroke-dasharray: 0 0 2.74 2.74;
      }

      .cls-2, .cls-3, .cls-4, .cls-5, .cls-6, .cls-7, .cls-8, .cls-9, .cls-10 {
        fill: none;
      }

      .cls-2, .cls-3, .cls-4, .cls-5, .cls-6, .cls-8, .cls-9 {
        stroke-linejoin: round;
      }

      .cls-2, .cls-3, .cls-4, .cls-5, .cls-6, .cls-8, .cls-9, .cls-10 {
        stroke: #54565a;
        stroke-linecap: round;
      }

      .cls-2, .cls-3, .cls-4, .cls-5, .cls-9 {
        stroke-width: .25px;
      }

      .cls-4 {
        stroke-dasharray: 0 0 2.69 2.69;
      }

      .cls-5 {
        stroke-dasharray: 0 0 3.4 3.4;
      }

      .cls-11 {
        clip-path: url(#clippath);
      }

      .cls-6 {
        stroke-width: .15px;
      }

      .cls-8, .cls-10 {
        stroke-width: .5px;
      }

      .cls-12 {
        fill: #e8e9e8;
      }

      .cls-9 {
        stroke-dasharray: 0 0 2.62 2.62;
      }

      .cls-10 {
        stroke-miterlimit: 10;
      }
    </style>
    <clipPath id="clippath">
      <path class="cls-7" d="M27.83,12.58c-.15,.02-.31,.06-.45,.12-.14,.06-.28,.15-.4,.25-.14,.12-.28,.25-.42,.37-.14,.12-.28,.25-.42,.37-.14,.12-.28,.25-.42,.37-.14,.12-.28,.25-.42,.37-.14,.12-.28,.25-.42,.37-.04,.04-.09,.08-.12,.13-.03,.05-.06,.1-.08,.16-.02,.05-.03,.11-.03,.17,0,.06,0,.11,.02,.17,.01,.06,.03,.11,.06,.16,3.08,5.23,7.09,9.66,12.02,13.28,.27,.2,.54,.18,.81-.05l2.12-1.84c.75-.65,.82-1.32,.18-2.03-3.59-3.97-7.18-7.94-10.78-11.92l-.2-.18-.11-.07s-.06-.04-.09-.05c-.02-.01-.05-.02-.08-.04-.02-.01-.05-.02-.08-.03h0c-.07-.02-.15-.05-.22-.06-.09-.02-.19-.03-.28-.03-.06,0-.12,0-.18,.01"/>
    </clipPath>
  </defs>
  <g id="Camada_1" data-name="Camada 1">
    <g>
      <polyline class="cls-10" points="18.23 20.75 20.84 42.74 34.48 42.74"/>
      <polyline class="cls-10" points="50.06 26.43 48.13 42.74 34.48 42.74"/>
      <path class="cls-12" d="M49.4,32.01s-4.32-.62-13.07,2.17c-8.76,2.79-16.78-2.08-16.78-2.08l1.29,10.63h27.29l1.27-10.73Z"/>
      <path class="cls-3" d="M49.4,32.01s-4.32-.62-13.07,2.17c-8.76,2.79-16.78-2.08-16.78-2.08l1.29,10.63h27.29l1.27-10.73Z"/>
      <path class="cls-10" d="M53.88,25.77V10.36c0-4.14-3.37-7.51-7.51-7.51s-7.51,3.37-7.51,7.51h-2.61c0-5.58,4.54-10.11,10.11-10.11s10.11,4.54,10.11,10.11v15.41"/>
      <rect class="cls-10" x="35.49" y="10.36" width="4.06" height="2.07" rx=".67" ry=".67"/>
      <path class="cls-10" d="M50.06,26.43c0-.36,.31-.65,.68-.65h9.69"/>
      <path class="cls-12" d="M36.33,12.53c-.12,.18-2.72,8.01-2.72,8.01"/>
      <path class="cls-3" d="M36.33,12.53s-.1,.25-.22,.59"/>
      <path class="cls-5" d="M35.64,14.48c-.51,1.49-1.17,3.49-1.6,4.78"/>
      <path class="cls-3" d="M33.8,19.94c-.12,.38-.2,.6-.2,.6"/>
      <path class="cls-12" d="M37.05,12.65c-.09,.21-1.3,8.95-1.3,8.95"/>
      <path class="cls-3" d="M37.05,12.65s-.05,.26-.11,.62"/>
      <path class="cls-9" d="M36.78,14.37c-.26,1.78-.64,4.5-.86,6.05"/>
      <path class="cls-3" d="M35.84,20.98c-.05,.39-.09,.63-.09,.63"/>
      <path class="cls-12" d="M37.89,12.59c-.06,.22-.21,9.37-.21,9.37"/>
      <path class="cls-3" d="M37.89,12.59s-.02,.26-.03,.63"/>
      <path class="cls-2" d="M37.82,14.38c-.05,1.87-.1,4.75-.12,6.37"/>
      <path class="cls-3" d="M37.69,21.33c0,.4-.01,.63-.01,.63"/>
      <path class="cls-12" d="M38.71,12.45c-.02,.24,1.41,9.14,1.41,9.14"/>
      <path class="cls-3" d="M38.71,12.45s.03,.26,.08,.63"/>
      <path class="cls-4" d="M38.95,14.21c.28,1.82,.72,4.62,.97,6.2"/>
      <path class="cls-3" d="M40.01,20.97c.06,.39,.1,.63,.1,.63"/>
      <path class="cls-8" d="M37.67,28.8c-.35,.3-.7,.31-1.07,.04-.41-.31-.81-.62-1.21-.94-.4-.32-.79-.64-1.18-.98-.39-.33-.77-.67-1.14-1.01s-.74-.69-1.11-1.05c-.36-.36-.72-.72-1.07-1.09,0,0-.01-.01-.02-.01,0,0-.01,0-.02,0,0,0-.02,0-.02,0,0,0-.02,0-.02,0,0,0-.01,0-.02,.01,0,0-.02,.02-.03,.03,0,0-.02,.01-.02,.02,0,0-.02,.01-.02,.02,0,0-.02,.01-.02,.02,0,0-.02,.01-.02,.02,0,0-.02,.01-.02,.02,0,0,0,0,0,0h0s0,0,0,0c0,0,0,0,0,0h0s-.01,.01-.02,.02c0,0-.01,0-.01,.01,0,0-.01,0-.02,.01s-.01,0-.02,.01,0,0-.02,.01c0,0,0,0,0,0,0,0,0,0,0,0,0,0,0,0,0,0,0,0,0,0,0,0,0,0,0,0,0,0,0,0-.01,0-.02,.01,0,0-.02,0-.02,0,0,0-.02,0-.02,0,0,0-.02,0-.02,0,0,0-.01,0-.02-.02-.1-.11-.2-.21-.3-.32-.1-.11-.2-.22-.3-.33-.1-.11-.2-.22-.3-.33-.1-.11-.2-.22-.29-.33-.1-.11-.19-.22-.29-.33,0,0,0-.01-.01-.02,0,0,0-.02,0-.02,0,0,0-.02,0-.02,0,0,0-.02,0-.02,0,0,0-.01,.02-.02,0,0,0,0,0,0,0,0,0,0,0,0,0,0,0,0,0,0,0,0,0,0,0,0,0,0,0,0,0,0l.08-.07s0,0,0,0c0,0,0,0,0,0h0s0,0,0,0c0,0,0,0,0,0,0,0,.02-.01,.02-.02,0,0,.02-.01,.02-.02,0,0,.02-.01,.02-.02s.02-.01,.02-.02c0,0,.02-.01,.02-.02,0,0,0,0,0,0,0,0,0,0,0,0,0,0,0,0,0,0,0,0,0,0,0,0,0,0,0,0,0,0,0,0,.01-.01,.02-.02,0,0,0-.01,0-.02,0,0,0-.02,0-.02,0,0,0-.02,0-.02,0,0,0-.01-.01-.02-.33-.39-.65-.78-.97-1.17-.32-.4-.63-.8-.93-1.2-.3-.41-.6-.82-.89-1.23-.29-.42-.57-.84-.85-1.26-.28-.42-.54-.85-.81-1.29-.04-.07-.07-.14-.09-.21-.02-.07-.03-.15-.03-.23,0-.08,.01-.15,.04-.22,.02-.07,.06-.14,.1-.21,.04-.06,.09-.12,.15-.17,.13-.11,.26-.23,.39-.34,.13-.11,.26-.23,.39-.34,.13-.11,.26-.23,.39-.34,.13-.11,.26-.23,.39-.34,.13-.11,.26-.23,.39-.34,.13-.11,.28-.2,.43-.27,.16-.07,.33-.11,.5-.12,.17-.02,.34,0,.51,.03,.17,.04,.33,.1,.48,.19,.15,.09,.28,.19,.4,.32,3.52,3.9,7.05,7.79,10.57,11.69,.72,.82,.68,1.56-.14,2.27l-1.97,1.7Z"/>
      <g class="cls-11">
        <line class="cls-6" x1="43.06" y1="17.89" x2="41.19" y2="39.88"/>
        <line class="cls-6" x1="41.76" y1="17.1" x2="39.92" y2="38.74"/>
        <line class="cls-6" x1="40.46" y1="16.3" x2="38.65" y2="37.6"/>
        <line class="cls-6" x1="39.16" y1="15.51" x2="37.39" y2="36.47"/>
        <line class="cls-6" x1="37.87" y1="14.72" x2="36.12" y2="35.33"/>
        <line class="cls-6" x1="36.57" y1="13.93" x2="34.85" y2="34.19"/>
        <line class="cls-6" x1="35.27" y1="13.14" x2="33.58" y2="33.05"/>
        <line class="cls-6" x1="33.97" y1="12.35" x2="32.31" y2="31.92"/>
        <line class="cls-6" x1="32.67" y1="11.56" x2="31.04" y2="30.78"/>
        <line class="cls-6" x1="31.38" y1="10.77" x2="29.77" y2="29.64"/>
        <line class="cls-6" x1="30.08" y1="9.98" x2="28.51" y2="28.51"/>
        <line class="cls-6" x1="28.78" y1="9.19" x2="27.24" y2="27.37"/>
        <line class="cls-6" x1="27.48" y1="8.4" x2="25.97" y2="26.23"/>
        <line class="cls-6" x1="26.18" y1="7.61" x2="24.7" y2="25.09"/>
        <line class="cls-6" x1="36.5" y1="33.36" x2=".08" y2="18.14"/>
        <line class="cls-6" x1="38.41" y1="32.28" x2="2.56" y2="17.3"/>
        <line class="cls-6" x1="40.32" y1="31.21" x2="5.04" y2="16.46"/>
        <line class="cls-6" x1="42.23" y1="30.13" x2="7.53" y2="15.62"/>
        <line class="cls-6" x1="44.14" y1="29.05" x2="10.01" y2="14.79"/>
        <line class="cls-6" x1="46.05" y1="27.97" x2="12.5" y2="13.95"/>
        <line class="cls-6" x1="47.96" y1="26.89" x2="14.98" y2="13.11"/>
        <line class="cls-6" x1="49.87" y1="25.82" x2="17.47" y2="12.27"/>
        <line class="cls-6" x1="51.78" y1="24.74" x2="19.95" y2="11.43"/>
        <line class="cls-6" x1="53.69" y1="23.66" x2="22.44" y2="10.6"/>
        <line class="cls-6" x1="55.6" y1="22.58" x2="24.92" y2="9.76"/>
        <line class="cls-6" x1="57.51" y1="21.51" x2="27.4" y2="8.92"/>
        <line class="cls-6" x1="59.42" y1="20.43" x2="29.89" y2="8.08"/>
        <line class="cls-6" x1="61.33" y1="19.35" x2="32.37" y2="7.25"/>
      </g>
      <line class="cls-8" x1="29.21" y1="21.94" x2="30.84" y2="23.74"/>
      <line class="cls-10" x1="25.86" y1="18.51" x2="26.3" y2="18.44"/>
      <line class="cls-10" x1="25.5" y1="17.96" x2="25.99" y2="17.89"/>
      <path class="cls-1" d="M25.42,14.01l1.37,.74s1.45,1.34,2.02,1.77c.41,.64,2,1.96,3.14,1.85,1.14-.11,1.89-.92,.29-2.07-.64-.69-.96-1.39-1.37-1.88-.41-.49-1.26-1.07-2.89-2.84-.55-.59-2.05-1.51-2.5-1.69-.46-.18-1.64-1.54-3.77-1.56-.75-.3-1.13-.28-2.62-1.21l-4.49-3.19"/>
      <path class="cls-10" d="M25.42,14.01l1.37,.74s1.45,1.34,2.02,1.77c.41,.64,2,1.96,3.14,1.85,1.14-.11,1.89-.92,.29-2.07-.64-.69-.96-1.39-1.37-1.88-.41-.49-1.26-1.07-2.89-2.84-.55-.59-2.05-1.51-2.5-1.69-.46-.18-1.64-1.54-3.77-1.56-.75-.3-1.13-.28-2.62-1.21l-4.49-3.19"/>
      <path class="cls-1" d="M25.39,17.98c-.1-.26-.19-.41-.33-.6,.13-.54,.15-.66,.23-.86"/>
      <path class="cls-10" d="M25.39,17.98c-.1-.26-.19-.41-.33-.6,.13-.54,.15-.66,.23-.86"/>
      <path class="cls-1" d="M13.39,10.36s2.1,1.45,2.54,1.75,.94,.22,1.49,.67c1.3,1.07,2.5,5.45,2.89,6.14,.51,.92,.74,1.69,1.04,1.96,0,0,1.1,1.24,2.92,.99,1.12-.16,4.37-.52,4.37-.52"/>
      <path class="cls-10" d="M13.39,10.36s2.1,1.45,2.54,1.75,.94,.22,1.49,.67c1.3,1.07,2.5,5.45,2.89,6.14,.51,.92,.74,1.69,1.04,1.96,0,0,1.1,1.24,2.92,.99,1.12-.16,4.37-.52,4.37-.52"/>
      <path class="cls-1" d="M31.98,18.35s-.77-.56-.89-1.02c-.05-.18,.48-.44,.99-1.13"/>
      <path class="cls-10" d="M31.98,18.35s-.77-.56-.89-1.02c-.05-.18,.48-.44,.99-1.13"/>
      <path class="cls-1" d="M29.93,15.26s.59-.27,.79-.73"/>
      <path class="cls-10" d="M29.93,15.26s.59-.27,.79-.73"/>
      <path class="cls-1" d="M29.48,14.9s.32-.54,.78-.84"/>
      <path class="cls-10" d="M29.48,14.9s.32-.54,.78-.84"/>
      <path class="cls-10" d="M25.51,18.06s.72,1.2,.36,1.77"/>
      <path class="cls-10" d="M33.9,18.2s1.32-1.31-.1-1.76c-.22-.07-1.1,.24-1.1,.24"/>
      <path class="cls-10" d="M32.69,16.68s.75-.88-.36-1.02c-.28-.04-.58,.06-.58,.06"/>
    </g>
  </g>
</svg>