<?xml version="1.0" encoding="UTF-8"?>
<svg id="Layer_2" data-name="Layer 2" xmlns="http://www.w3.org/2000/svg" viewBox="0 0 43.69 61.95">
  <defs>
    <style>
      .cls-1 {
        stroke-width: .25px;
      }

      .cls-1, .cls-2 {
        fill: none;
        stroke: #54565a;
        stroke-linecap: round;
        stroke-linejoin: round;
      }

      .cls-3 {
        fill: #54565a;
      }

      .cls-2 {
        stroke-width: .5px;
      }

      .cls-4 {
        fill: #e8e9e8;
      }
    </style>
  </defs>
  <g id="Camada_1" data-name="Camada 1">
    <g>
      <g>
        <path class="cls-2" d="M6.03,9c.08,.38,.19,.77,.34,1.2"/>
        <path class="cls-1" d="M28.94,8.94c-.59,.03-1.24,.06-1.97,.08-.4,.01-.82,.02-1.26,.03-.44,0-.9,.01-1.38,.02-.48,0-.97,0-1.48,.01-.51,0-1.03,0-1.57,0-1.08,0-2.24,0-3.48,0"/>
        <line class="cls-1" x1="16.52" y1="12.18" x2="19.07" y2="12.18"/>
        <path class="cls-2" d="M34.51,7.66s0,.02-.01,.03c0,.01-.01,.02-.02,.03,0,.01-.01,.02-.02,.03,0,.01-.01,.02-.02,.03,0,.01-.01,.02-.02,.03,0,.01-.02,.02-.03,.04,0,.01-.02,.03-.03,.04-.01,.02-.03,.03-.04,.05-.01,.02-.03,.03-.05,.04-.01,.01-.03,.03-.04,.04-.02,.01-.03,.02-.05,.04-.02,.01-.04,.03-.06,.04-.02,.01-.04,.03-.07,.04-.02,.01-.04,.02-.06,.04-.02,.01-.04,.02-.06,.03-.02,.01-.04,.02-.06,.03-.02,.01-.05,.02-.07,.03-.03,.01-.06,.02-.09,.03-.03,.01-.07,.02-.1,.04-.03,.01-.07,.02-.1,.03"/>
        <line class="cls-2" x1="16.18" y1="1.66" x2="16.18" y2="1.17"/>
        <line class="cls-2" x1="19.41" y1="1.66" x2="19.41" y2="1.16"/>
        <path class="cls-1" d="M17.29,41.42s.02,0,.02-.01c.07-.04,.15-.06,.23-.08,.08-.02,.16-.03,.24-.03"/>
        <path class="cls-2" d="M1.13,35.45s.03-.02,.05-.02c.05-.02,.11-.05,.16-.07,.06-.02,.12-.04,.18-.06,.06-.02,.13-.04,.2-.06,.07-.02,.16-.04,.25-.07,.09-.02,.19-.05,.31-.07,.12-.02,.25-.05,.39-.08,.15-.03,.31-.05,.49-.08,.03,0,.06,0,.09-.01"/>
        <path class="cls-2" d="M.55,36.01s.02-.04,.03-.06c.01-.02,.03-.05,.04-.07,.02-.03,.03-.05,.06-.08,.02-.03,.05-.06,.08-.09,.03-.03,.07-.06,.11-.1,.04-.03,.09-.06,.14-.09,.03-.02,.05-.03,.13-.06"/>
        <path class="cls-2" d="M18.9,17.47c.24,0,.49,0,.73,0,.61,0,1.22,0,1.83,0,.61,0,1.22,0,1.83,.01"/>
        <polyline class="cls-2" points="23.29 17.49 23.53 17.49 23.77 17.49 24.03 17.49 24.32 17.5 24.62 17.5 24.94 17.5 25.61 17.51 26.29 17.53 26.61 17.53 26.91 17.54 27.19 17.55 27.45 17.56 27.7 17.56 27.93 17.57"/>
        <path class="cls-2" d="M27.93,17.57c.17,0,.34,.01,.5,.02,.15,0,.3,.01,.45,.02,.13,0,.26,.01,.39,.02,.12,0,.23,.01,.35,.02,.1,0,.21,.01,.31,.02,.09,0,.18,.01,.27,.02,.08,0,.16,.01,.24,.02,.07,0,.14,.01,.21,.02,.06,0,.13,.01,.19,.02,.06,0,.12,.01,.18,.02,.06,0,.12,.01,.18,.02,.06,0,.12,.01,.18,.02,.06,0,.13,.01,.19,.02,.07,0,.14,.02,.21,.02,.08,0,.15,.02,.22,.03,.08,0,.16,.02,.24,.03,.08,.01,.17,.02,.25,.04,.09,.01,.18,.03,.26,.04,.09,.02,.18,.03,.27,.05,.1,.02,.19,.03,.28,.05,.1,.02,.19,.04,.28,.06,.09,.02,.17,.04,.25,.06,.08,.02,.15,.04,.22,.06,.07,.02,.14,.04,.2,.06,.07,.02,.13,.04,.18,.07,.06,.03,.12,.05,.17,.08,.06,.03,.11,.06,.16,.09,.05,.03,.1,.07,.14,.1,.05,.04,.08,.08,.12,.11"/>
        <path class="cls-2" d="M9.56,17.52s.09,0,.13,0c.15,0,.29,0,.42,0,.13,0,.26,0,.39,0,.13,0,.26,0,.39,0,.14,0,.28,0,.42,0,.15,0,.31,0,.47,0s.33,0,.51,0"/>
        <path class="cls-2" d="M.4,19.04s.04-.09,.07-.14c.03-.04,.06-.09,.1-.13,0,0,0,0,0,0,.04-.04,.08-.08,.13-.12,.04-.03,.09-.07,.15-.1,.05-.03,.1-.06,.17-.09,.05-.03,.11-.05,.18-.08,.06-.02,.12-.04,.19-.07,.06-.02,.13-.04,.2-.06,.07-.02,.14-.04,.22-.06,.08-.02,.16-.04,.25-.06,.09-.02,.18-.04,.28-.06,.09-.02,.19-.04,.29-.05,.09-.02,.18-.03,.28-.05,.09-.01,.17-.03,.26-.04,.08-.01,.16-.02,.25-.03,.08,0,.16-.02,.24-.03,.07,0,.14-.02,.22-.03,.07,0,.13-.02,.2-.02,.06,0,.12-.01,.19-.02,.06,0,.12-.01,.18-.02,.06,0,.12-.01,.18-.02,.06,0,.12-.01,.18-.02,.06,0,.13-.01,.2-.02,.07,0,.14-.01,.21-.02,.08,0,.16-.01,.24-.02,.09,0,.18-.01,.27-.02,.1,0,.2-.01,.3-.02,.11,0,.22-.01,.33-.02,.12,0,.25-.01,.37-.02,.14,0,.28-.01,.41-.02,.15,0,.31-.01,.47-.02,.11,0,.23,0,.34-.01"/>
        <polyline class="cls-2" points="7.94 17.56 8.04 17.56 8.09 17.56 8.14 17.55 8.19 17.55 8.25 17.55 8.31 17.55 8.37 17.55 8.43 17.55 8.5 17.54 8.63 17.54 8.9 17.53"/>
        <polyline class="cls-2" points="16.18 2.4 16.18 2.36 16.18 2.25 16.18 2.13 16.18 2.02 16.18 1.91 16.18 1.79 16.18 1.66"/>
        <polyline class="cls-2" points="9.72 61.7 9.26 61.7 8.87 61.7 8.51 61.7 8.16 61.7 7.81 61.7 7.46 61.7 7.13 61.7 6.8 61.7 6.48 61.7 6.17 61.7 5.88 61.7 5.59 61.7 5.32 61.7 5.07 61.7 4.83 61.7 4.61 61.7 4.4 61.7 4.2 61.7 4.03 61.7 3.87 61.7 3.71 61.7 3.55 61.7"/>
        <path class="cls-2" d="M8.92,17.57c-.24-.46-.48-.92-.71-1.38-.29-.58-.57-1.17-.84-1.75l-.05-.1"/>
        <path class="cls-2" d="M9.11,17.93c-.06-.12-.13-.24-.19-.36"/>
        <line class="cls-1" x1="16.42" y1="12.54" x2="6.44" y2="12.54"/>
        <path class="cls-2" d="M16.7,17.47c-.25,0-.49,0-.74,0-.61,0-1.22,0-1.83,0-.61,0-1.22,0-1.83,.01"/>
        <path class="cls-1" d="M16.7,13.76s-.08-.07-.11-.11c-.05-.06-.09-.14-.12-.21-.02-.06-.04-.13-.04-.19"/>
        <line class="cls-1" x1="17.82" y1="13.92" x2="17.15" y2="13.92"/>
        <path class="cls-2" d="M1.15,3.87s.02-.05,.03-.07c.01-.02,.03-.05,.04-.07,.01-.02,.03-.04,.04-.07,.01-.02,.03-.04,.05-.06,.02-.02,.04-.04,.06-.06"/>
        <path class="cls-1" d="M17.79,9.09c-1.24,0-2.4,0-3.48,0-.54,0-1.07,0-1.58,0-.51,0-1,0-1.48-.01-.48,0-.94-.01-1.38-.02-.44,0-.86-.02-1.26-.03-.69-.02-1.32-.05-1.89-.08"/>
        <path class="cls-2" d="M32.33,2.89s.1,.02,.14,.03c.05,0,.1,.02,.15,.03,.05,0,.1,.02,.14,.03,.05,0,.1,.02,.15,.03,.05,.01,.1,.02,.15,.04,.05,.01,.11,.03,.16,.04,.05,.01,.1,.03,.15,.04,.04,.01,.08,.03,.12,.04,.04,.01,.07,.03,.11,.04,.03,.01,.07,.02,.1,.04,.03,.01,.06,.02,.09,.04,.02,.01,.05,.02,.07,.03,.02,0,.04,.02,.06,.03,.02,0,.03,.02,.05,.03,.01,0,.03,.02,.04,.02,.01,0,.02,.01,.04,.02,.01,0,.02,.01,.03,.02l.03,.02s.02,.01,.02,.02c0,0,.01,.01,.02,.02,0,0,0,0,0,0"/>
        <path class="cls-1" d="M19.31,13.18s0-.02-.01-.03"/>
        <path class="cls-2" d="M6.39,12.1c0,.22,.01,.45,.02,.67,0,.29,.01,.59,.02,.89"/>
        <path class="cls-2" d="M32.3,2.89s-.01,0-.02,0c0,0-.02,0-.02,0,0,0-.02,0-.02,0,0,0-.02,0-.02,0,0,0-.02,0-.02,0,0,0-.02,0-.02,0,0,0-.02,0-.02,0,0,0-.02,0-.03,0,0,0-.02,0-.03,0,0,0-.02,0-.03,0-.01,0-.02,0-.03,0-.01,0-.02,0-.04,0-.01,0-.03,0-.04,0-.01,0-.03,0-.05,0-.02,0-.03,0-.05,0-.02,0-.04,0-.06,0-.02,0-.05,0-.07,0s-.05,0-.08-.01c-.03,0-.06,0-.09-.01-.03,0-.07,0-.1-.01-.04,0-.08,0-.12-.01-.04,0-.09,0-.13-.02-.05,0-.1-.01-.15-.02-.05,0-.11-.01-.17-.02-.06,0-.13-.01-.2-.02-.07,0-.15-.01-.24-.02-.08,0-.17-.02-.27-.02-.1,0-.2-.02-.31-.02-.11,0-.23-.02-.36-.03-.13,0-.27-.02-.41-.03-.14,0-.27-.02-.4-.02-.13,0-.25-.01-.37-.02-.12,0-.23-.01-.34-.02-.11,0-.21,0-.3-.01-.09,0-.18,0-.27,0s-.17,0-.24,0c-.08,0-.15,0-.22,0-.07,0-.14,0-.21,0-.07,0-.13,0-.19,0-.06,0-.12,0-.17,0-.06,0-.11,0-.16,0-.05,0-.1,0-.15,0-.05,0-.09,0-.14,0-.04,0-.09,0-.12,0-.04,0-.08,0-.11,0-.04,0-.07,0-.1,0s-.07,0-.1,0c-.03,0-.07,0-.1,0-.03,0-.07,0-.1,0-.04,0-.07,0-.11,0-.04,0-.08,0-.13,0-.04,0-.09,0-.14,0-.05,0-.1,0-.15,0"/>
        <polyline class="cls-1" points="6.41 8.95 6.4 8.96 6.39 8.96 6.38 8.96 6.37 8.96"/>
        <path class="cls-2" d="M34.44,3.87s0,0,0,.01c0,0,0,.01,0,.02"/>
        <path class="cls-2" d="M1,4.56s0-.02,0-.03c0-.03,0-.05,0-.08,0-.03,0-.06,.01-.09,0-.03,0-.07,.02-.1,0-.03,.01-.07,.02-.1,0-.04,.02-.08,.03-.11,.01-.04,.03-.08,.04-.12"/>
        <path class="cls-2" d="M34.3,60.45c-.6,.07-1.2,.14-1.8,.21h-7.39l-.07,.31"/>
        <path class="cls-2" d="M29.16,13.66s0,.04,0,.06c0,.03,0,.06-.02,.09,0,.03-.02,.06-.03,.09-.01,.03-.03,.06-.05,.09-.02,.03-.04,.06-.06,.09-.03,.03-.05,.06-.09,.08-.03,.03-.07,.05-.11,.07-.04,.02-.09,.04-.14,.05,0,0-.02,0-.03,0"/>
        <path class="cls-1" d="M29.1,8.92s-.01,0-.02,0"/>
        <path class="cls-1" d="M29.05,8.93s-.07,0-.1,0"/>
        <path class="cls-2" d="M2.08,8.38s-.07-.02-.1-.03c-.04-.01-.07-.03-.11-.04-.03-.01-.06-.02-.09-.03-.03,0-.05-.02-.07-.03-.02-.01-.04-.02-.07-.03-.02-.01-.04-.02-.06-.03-.02-.01-.04-.02-.06-.03-.02-.01-.04-.03-.06-.04-.02-.01-.04-.03-.06-.04-.02-.01-.03-.02-.05-.04-.02-.01-.03-.03-.04-.04-.02-.01-.03-.03-.04-.04-.01-.02-.03-.03-.04-.05-.01-.01-.02-.03-.03-.04,0-.01-.02-.03-.03-.04,0-.01-.01-.02-.02-.03,0-.01-.01-.02-.02-.03,0-.01-.01-.02-.02-.03,0-.01-.01-.02-.02-.04,0,0,0-.01,0-.02"/>
        <path class="cls-2" d="M5.43,8.89s0,0-.01,0c-.04,0-.08,0-.11,0-.03,0-.07,0-.1,0-.03,0-.06,0-.09,0-.03,0-.06,0-.09,0-.03,0-.06,0-.09,0-.03,0-.06,0-.09,0-.03,0-.06,0-.09,0-.03,0-.06,0-.1,0-.03,0-.07,0-.1-.01-.04,0-.07,0-.11-.01-.04,0-.08,0-.12-.01-.04,0-.09,0-.13-.01-.05,0-.09-.01-.14-.02-.05,0-.1-.01-.15-.02-.05,0-.1-.01-.15-.02-.05,0-.1-.01-.16-.02-.05,0-.1-.02-.16-.02-.05,0-.1-.02-.15-.02-.05,0-.09-.01-.13-.02-.04,0-.08-.01-.12-.02-.03,0-.07-.01-.1-.02-.03,0-.06-.01-.09-.02-.03,0-.05-.01-.08-.02-.02,0-.05-.01-.07-.02-.02,0-.04,0-.06-.01-.02,0-.04,0-.06-.01-.02,0-.03,0-.05-.01-.01,0-.03,0-.04,0-.01,0-.03,0-.04,0-.01,0-.03,0-.04,0-.01,0-.02,0-.04,0-.01,0-.02,0-.03,0-.01,0-.02,0-.03,0,0,0-.02,0-.03,0,0,0-.02,0-.02,0,0,0-.01,0-.02,0,0,0-.01,0-.02,0,0,0-.01,0-.02,0,0,0-.01,0-.02,0,0,0,0,0-.02,0,0,0,0,0-.02,0,0,0,0,0-.01,0,0,0,0,0-.01,0,0,0,0,0-.01,0,0,0,0,0-.01,0,0,0,0,0-.01,0,0,0,0,0-.01,0"/>
        <path class="cls-1" d="M6.25,8.95s-.03,0-.04,0c-.06,0-.12,0-.18-.01"/>
        <path class="cls-1" d="M1.59,5.76s0,0,0,0c-.02-.01-.05-.03-.07-.04-.02-.02-.05-.03-.07-.05-.02-.02-.04-.03-.07-.05,0,0-.02-.01-.03-.02"/>
        <path class="cls-1" d="M29.2,8.96s-.01,0-.02,0c-.02,0-.04,0-.06-.02,0,0-.02-.01-.02-.02"/>
        <path class="cls-2" d="M35.05,36.01c.07,.16,.11,.31,.13,.47,.01,.08,.02,.16,.02,.24"/>
        <path class="cls-2" d="M34.59,4.56s0,.03,0,.04c0,.02,0,.04,0,.06,0,.02,0,.04,0,.06,0,.02,0,.04,0,.05,0,.02,0,.03,0,.05,0,.02,0,.03,0,.04,0,.01,0,.03,0,.04,0,.01,0,.03,0,.04,0,.01,0,.02,0,.03,0,.01,0,.02,0,.03,0,0,0,.02,0,.03,0,0,0,.02,0,.02,0,0,0,.02,0,.02,0,0,0,.01,0,.02,0,0,0,.01,0,.02,0,0,0,.01,0,.02,0,0,0,.01,0,.02,0,0,0,.01,0,.02,0,0,0,0,0,.01,0,0,0,0,0,.01,0,0,0,0,0,.01,0,0,0,0,0,.01,0,0,0,0,0,0,0,0,0,0,0,0,0,0,0,0,0,0,0,0,0,0,0,0,0,0,0,0,0,0s0,0,0,0h0"/>
        <path class="cls-2" d="M34.46,3.92s.03,.08,.04,.12c.01,.04,.02,.08,.03,.11,0,.03,.02,.07,.02,.1,0,.03,.01,.07,.02,.1,0,.03,0,.06,.01,.09,0,.03,0,.06,0,.08,0,.01,0,.02,0,.03"/>
        <path class="cls-1" d="M3.24,2.9s.01,0,.02,0"/>
        <path class="cls-2" d="M.4,36.73c0-.08,0-.16,.02-.24,.02-.16,.07-.31,.13-.47"/>
        <path class="cls-1" d="M23.27,21.96c-.6,0-1.21,0-1.81,.01-.61,0-1.22,0-1.83,0-.61,0-1.22,0-1.83,0"/>
        <path class="cls-2" d="M10.59,61.52s-.02,.09-.05,.13c-.02,.02-.04,.03-.06,.04-.02,0-.05,.01-.07,.01"/>
        <polyline class="cls-2" points="9.72 61.7 10.39 61.7 10.4 61.7"/>
        <path class="cls-2" d="M1.3,60.45c.6,.07,1.21,.13,1.81,.2"/>
        <line class="cls-1" x1="16.7" y1="21.86" x2="16.7" y2="17.47"/>
        <line class="cls-1" x1="18.89" y1="17.47" x2="18.89" y2="21.86"/>
        <polyline class="cls-2" points="19.38 14.26 19.36 13.92 19.34 13.58 19.33 13.24"/>
        <path class="cls-2" d="M2.35,26.46c-.09-.02-.17-.03-.25-.05-.09-.02-.17-.04-.26-.06s-.16-.04-.24-.06c-.07-.02-.14-.04-.21-.06-.06-.02-.13-.04-.18-.07-.06-.02-.11-.04-.15-.07-.05-.02-.09-.04-.12-.06-.03-.02-.06-.04-.09-.05-.03-.02-.05-.03-.07-.05-.02-.01-.04-.03-.05-.04"/>
        <path class="cls-1" d="M12.3,27.03c-.11,0-.22,0-.33,0-.11,0-.21,0-.3,0-.1,0-.19,0-.28,0-.09,0-.17,0-.25,0-.08,0-.16,0-.24,0s-.16,0-.24,0c-.08,0-.16,0-.25,0-.08,0-.17,0-.27,0-.09,0-.19,0-.29,0-.1,0-.21,0-.33,0-.12,0-.24,0-.36,0-.13,0-.26,0-.39-.01-.14,0-.28,0-.43-.01-.15,0-.3-.01-.47-.02-.16,0-.33-.01-.49-.02-.16,0-.32-.01-.47-.02-.15,0-.29-.02-.43-.02-.14,0-.28-.02-.41-.03-.14,0-.28-.02-.41-.03-.14,0-.27-.02-.39-.03-.12,0-.23-.02-.34-.03-.1,0-.2-.02-.29-.03-.09,0-.18-.02-.27-.03-.09,0-.18-.02-.27-.03-.09,0-.19-.02-.29-.03-.1-.01-.2-.02-.31-.04-.11-.01-.22-.03-.33-.04-.11-.02-.23-.03-.35-.05-.12-.02-.24-.04-.35-.06"/>
        <path class="cls-1" d="M.4,20.47s.03,.06,.04,.08,.03,.05,.04,.08c.02,.02,.03,.05,.05,.07,.02,.02,.04,.04,.06,.06,.02,.02,.04,.04,.07,.06,.02,.02,.05,.04,.07,.05,.03,.02,.05,.04,.09,.06,.03,.02,.07,.04,.12,.06,.05,.02,.1,.05,.16,.07,.06,.02,.12,.05,.18,.07,.06,.02,.13,.04,.2,.06,.07,.02,.15,.04,.24,.07,.09,.02,.18,.04,.27,.06,.09,.02,.18,.04,.27,.06,.09,.02,.18,.04,.28,.05,.1,.02,.2,.03,.31,.05,.11,.02,.22,.03,.34,.05,.11,.02,.23,.03,.33,.04,.11,.01,.21,.03,.32,.04,.1,.01,.2,.02,.3,.03,.1,0,.19,.02,.28,.03,.09,0,.18,.02,.26,.02,.09,0,.17,.01,.26,.02,.09,0,.18,.01,.28,.02,.1,0,.2,.02,.32,.02,.11,0,.24,.02,.37,.02,.13,0,.26,.02,.4,.02,.13,0,.27,.01,.41,.02,.14,0,.28,.01,.43,.02,.15,0,.31,.01,.47,.02,.16,0,.33,.01,.49,.02,.16,0,.32,0,.46,.01,.15,0,.29,0,.42,.01,.14,0,.27,0,.39,0,.12,0,.25,0,.36,0s.22,0,.33,0c.1,0,.2,0,.29,0,.09,0,.18,0,.27,0,.09,0,.17,0,.25,0,.08,0,.16,0,.25,0,.08,0,.17,0,.26,0,.09,0,.19,0,.29,0,.1,0,.2,0,.31,0,.11,0,.22,0,.34,0"/>
        <line class="cls-1" x1="16.69" y1="50.45" x2="16.69" y2="42.4"/>
        <path class="cls-2" d="M1.13,3.92s0,0,0,0c0,0,0-.01,0-.02h0"/>
        <path class="cls-1" d="M11.39,12.54c.01,.68,.03,1.37,.04,2.05"/>
        <path class="cls-2" d="M28.63,14.29c-.07,0-.14,.02-.21,.03-.1,.01-.19,.03-.29,.04-.09,.01-.18,.02-.28,.03-.08,0-.17,.02-.25,.03-.08,0-.16,.01-.23,.02-.07,0-.15,.01-.22,.02-.08,0-.15,.01-.23,.02-.08,0-.16,.01-.24,.02-.09,0-.18,.01-.28,.02-.1,0-.21,.01-.32,.02-.11,0-.23,0-.34,.01-.12,0-.25,0-.37,.01-.14,0-.27,0-.41,.01-.15,0-.31,0-.46,.01-.17,0-.34,0-.51,0-.18,0-.36,0-.55,0-.19,0-.37,0-.56,0-.18,0-.36,0-.54,0-.17,0-.34,0-.51,0-.18,0-.36,0-.54,0-.19,0-.39,0-.58,0-.21,0-.43,0-.64,0h-.31"/>
        <path class="cls-1" d="M3.24,61.7s.01,0,.02,0"/>
        <line class="cls-2" x1="35.2" y1="36.73" x2="35.2" y2="60.45"/>
        <path class="cls-1" d="M3.5,27.14c-.17-.09-.35-.19-.52-.28"/>
        <path class="cls-1" d="M32.61,26.85c-.18,.1-.36,.19-.53,.28"/>
        <path class="cls-2" d="M33.4,26.43c-.26,.14-.52,.28-.79,.42"/>
        <path class="cls-1" d="M3.26,2.9s.01,0,.02,0"/>
        <path class="cls-1" d="M2.11,5.97s-.04-.01-.06-.02c-.02,0-.04-.01-.06-.02-.02,0-.04-.02-.06-.02-.02,0-.04-.02-.07-.03-.02,0-.05-.02-.07-.03-.02,0-.05-.02-.07-.03-.02-.01-.05-.02-.07-.03-.02-.01-.04-.02-.06-.03"/>
        <path class="cls-2" d="M33.5,8.38s0,0-.01,0c0,0,0,0-.01,0,0,0,0,0-.01,0,0,0,0,0-.01,0,0,0,0,0-.02,0,0,0-.01,0-.02,0,0,0-.01,0-.02,0,0,0-.01,0-.02,0,0,0-.01,0-.02,0,0,0-.01,0-.02,0,0,0-.01,0-.02,0,0,0-.01,0-.02,0,0,0-.02,0-.02,0,0,0-.02,0-.03,0-.01,0-.02,0-.03,0-.01,0-.02,0-.03,0-.01,0-.02,0-.04,0-.01,0-.03,0-.04,0-.01,0-.03,0-.04,0-.01,0-.03,0-.04,.01-.02,0-.03,0-.05,.01-.02,0-.04,0-.06,.01-.02,0-.04,0-.07,.01-.02,0-.05,.01-.07,.02-.03,0-.05,.01-.08,.02-.03,0-.06,.01-.09,.02-.03,0-.07,.01-.11,.02-.04,0-.08,.01-.12,.02-.04,0-.09,.02-.14,.02-.05,0-.11,.02-.16,.03-.06,0-.11,.02-.17,.03-.06,0-.12,.02-.18,.02-.06,0-.12,.01-.17,.02-.05,0-.11,.01-.16,.02-.05,0-.1,.01-.15,.02-.04,0-.09,0-.13,.01-.04,0-.08,0-.12,.01-.04,0-.07,0-.11,.01-.03,0-.07,0-.1,0-.03,0-.06,0-.09,0-.03,0-.06,0-.09,0-.03,0-.06,0-.09,0-.03,0-.06,0-.09,0-.03,0-.06,0-.1,0-.03,0-.07,0-.11,0-.04,0-.08,0-.12,0-.04,0-.09,0-.13,0-.05,0-.1,0-.15,.01-.05,0-.11,0-.16,.01-.06,0-.12,0-.18,.01-.06,0-.13,0-.2,.01-.01,0-.03,0-.04,0"/>
        <path class="cls-2" d="M34.59,4.56c.02,.79,.04,1.57,.06,2.36"/>
        <line class="cls-1" x1="16.43" y1="12.27" x2="16.43" y2="12.27"/>
        <line class="cls-1" x1="29.15" y1="12.54" x2="19.18" y2="12.54"/>
        <path class="cls-1" d="M32.45,26.59s-.06,0-.09,.01c-.12,.02-.23,.03-.35,.05-.11,.01-.22,.03-.33,.04-.1,.01-.21,.02-.3,.03s-.19,.02-.28,.03c-.09,0-.18,.02-.26,.02-.09,0-.17,.01-.26,.02-.09,0-.18,.01-.27,.02-.09,0-.2,.01-.3,.02-.11,0-.22,.01-.34,.02-.12,0-.25,.01-.37,.02-.13,0-.26,.01-.39,.02-.13,0-.27,.01-.41,.02-.14,0-.28,.01-.43,.02-.15,0-.31,.01-.47,.02-.16,0-.33,.01-.49,.02-.16,0-.31,0-.45,.01s-.27,0-.4,0c-.13,0-.24,0-.36,0-.11,0-.22,0-.32,0-.1,0-.19,0-.28,0-.09,0-.17,0-.25,0-.08,0-.16,0-.23,0-.08,0-.15,0-.22,0-.07,0-.15,0-.23,0-.08,0-.16,0-.24,0-.08,0-.17,0-.27,0-.09,0-.19,0-.29,0-.1,0-.2,0-.31,0"/>
        <path class="cls-1" d="M35.19,20.47s-.03,.06-.04,.08c-.01,.03-.03,.05-.05,.08-.02,.02-.03,.05-.05,.07-.02,.02-.04,.04-.06,.06-.02,.02-.04,.04-.06,.06-.02,.02-.05,.04-.07,.05s-.05,.04-.09,.06c-.03,.02-.07,.04-.11,.06-.04,.02-.09,.04-.15,.07-.05,.02-.11,.04-.17,.07-.06,.02-.12,.04-.19,.06-.07,.02-.15,.04-.23,.07-.09,.02-.18,.05-.28,.07-.09,.02-.18,.04-.28,.06-.09,.02-.18,.04-.28,.05-.1,.02-.2,.03-.31,.05-.11,.02-.23,.03-.34,.05-.12,.02-.24,.03-.35,.05-.11,.01-.22,.03-.33,.04s-.21,.02-.3,.03c-.1,.01-.19,.02-.28,.03-.09,0-.18,.02-.26,.02-.09,0-.17,.01-.26,.02-.09,0-.18,.01-.27,.02-.09,0-.19,.01-.3,.02-.11,0-.22,.02-.34,.02-.12,0-.24,.02-.37,.02-.13,0-.26,.01-.4,.02-.14,0-.28,.01-.42,.02-.14,0-.29,.01-.45,.02-.16,0-.32,.01-.49,.02-.17,0-.34,.01-.51,.02-.16,0-.32,0-.46,.01-.15,0-.28,0-.41,0-.13,0-.25,0-.37,0-.12,0-.22,0-.33,0-.1,0-.2,0-.29,0-.09,0-.18,0-.26,0-.09,0-.17,0-.25,0-.08,0-.16,0-.25,0-.08,0-.17,0-.26,0-.09,0-.19,0-.28,0-.1,0-.2,0-.31,0-.11,0-.22,0-.34,0"/>
        <line class="cls-1" x1="18.9" y1="42.4" x2="18.9" y2="50.45"/>
        <path class="cls-1" d="M18.9,42.4c0-.08,0-.16-.03-.25-.02-.08-.05-.16-.08-.23-.04-.07-.08-.14-.13-.21-.05-.06-.11-.12-.17-.17-.06-.05-.13-.1-.21-.13-.07-.04-.15-.06-.23-.08s-.16-.03-.24-.03"/>
        <polyline class="cls-2" points="32.34 61.7 32.23 61.7 32.12 61.7 32.01 61.7 31.88 61.7 31.74 61.7 31.58 61.7 31.4 61.7 31.21 61.7 31 61.7 30.78 61.7 30.54 61.7 30.29 61.7 30.02 61.7 29.74 61.7 29.45 61.7 29.14 61.7 28.82 61.7 28.49 61.7 28.16 61.7 27.82 61.7 27.44 61.7 26.99 61.7"/>
        <path class="cls-2" d="M32.36,34.93c.18,.03,.35,.05,.51,.08,.14,.03,.28,.05,.41,.08,.11,.02,.22,.05,.32,.07,.09,.02,.18,.04,.26,.07,.07,.02,.15,.04,.21,.06,.07,.02,.13,.04,.18,.06,.06,.02,.12,.05,.17,.07,.06,.03,.11,.05,.16,.08,.05,.03,.1,.06,.15,.09,.05,.03,.09,.07,.12,.1,.03,.03,.06,.06,.09,.1,.02,.03,.04,.06,.06,.08,.01,.02,.03,.05,.04,.07,0,.02,.02,.04,.03,.06"/>
        <path class="cls-1" d="M3.26,35.02s0-.06,0-.09"/>
        <path class="cls-1" d="M3.38,38.36c-.04-1.11-.08-2.22-.12-3.32"/>
        <path class="cls-1" d="M32.33,35.04c-.04,1.11-.08,2.21-.12,3.32"/>
        <path class="cls-1" d="M32.33,34.93s0,.06,0,.08"/>
        <line class="cls-1" x1="19.17" y1="12.62" x2="19.17" y2="13.07"/>
        <line class="cls-1" x1="19.17" y1="12.45" x2="19.17" y2="12.59"/>
        <path class="cls-1" d="M6.35,6.54s.04,1.49,.04,1.49c0,.11,0,.21,.01,.31,0,.1,0,.2,.01,.29,0,.1,0,.19,.01,.29"/>
        <line class="cls-1" x1="16.42" y1="12.59" x2="16.42" y2="12.45"/>
        <line class="cls-1" x1="16.42" y1="13.07" x2="16.42" y2="12.62"/>
        <path class="cls-1" d="M6.45,8.9s0,0,0-.01c0-.01-.01-.04-.01-.05"/>
        <path class="cls-1" d="M12.29,21.96c.61,0,1.22,0,1.83,.01,.61,0,1.22,0,1.83,0,.61,0,1.22,0,1.83,0"/>
        <path class="cls-2" d="M35.07,25.61s0,0,0,.01c-.01,.03-.03,.05-.04,.07-.01,.02-.03,.04-.05,.07-.02,.02-.03,.04-.05,.06-.02,.02-.04,.04-.06,.05-.02,.02-.04,.03-.06,.05-.02,.02-.04,.03-.07,.05-.03,.02-.05,.03-.09,.05-.03,.02-.07,.04-.11,.06-.04,.02-.09,.04-.14,.06-.05,.02-.11,.04-.17,.06-.06,.02-.13,.04-.2,.06s-.15,.04-.24,.07c-.09,.02-.18,.04-.27,.06-.09,.02-.18,.04-.26,.06-.09,.02-.17,.03-.27,.05s-.19,.03-.3,.05c-.03,0-.05,0-.08,.01"/>
        <path class="cls-1" d="M33.48,5.97s.04-.01,.06-.02c.02,0,.04-.01,.06-.02,.02,0,.04-.02,.06-.02,.02,0,.04-.02,.07-.03,.02,0,.05-.02,.07-.03,.02,0,.05-.02,.07-.03,.02-.01,.05-.02,.07-.03,.02-.01,.05-.02,.07-.04,.02-.01,.05-.03,.07-.04,.02-.02,.05-.03,.07-.05,.02-.02,.04-.03,.07-.05,.02-.02,.04-.04,.06-.06,.02-.02,.04-.04,.05-.06,.02-.02,.03-.04,.04-.06,.01-.02,.02-.04,.03-.05,0-.02,.02-.03,.02-.05,0-.02,.01-.03,.02-.05"/>
        <path class="cls-1" d="M16.38,13.07s0,0-.01,0c-.01,0-.02,.01-.03,.02,0,0,0,.01-.01,.02"/>
        <path class="cls-1" d="M19.33,13.24s0-.02,0-.03c0,0,0-.02,0-.03"/>
        <path class="cls-2" d="M9.56,17.52c.04,.09,.09,.17,.13,.26,.31,.59,.63,1.19,.96,1.79,.31,.57,.65,1.17,.99,1.76,.11,.2,.23,.4,.35,.61"/>
        <polyline class="cls-2" points="3.55 61.7 3.68 61.7 4.35 61.7"/>
        <path class="cls-1" d="M12.3,27.03c.61,0,1.22,0,1.83,.01,.61,0,1.22,0,1.83,0,.61,0,1.22,0,1.83,0"/>
        <path class="cls-2" d="M7.34,14.34c-.07,0-.13-.02-.2-.03-.06,0-.12-.02-.18-.03"/>
        <path class="cls-2" d="M8,14.42s0,0-.01,0c-.09,0-.17-.02-.26-.03-.1,0-.19-.02-.28-.03-.03,0-.07,0-.11-.01"/>
        <path class="cls-2" d="M15.84,14.62c-.1,0-.21,0-.31,0-.21,0-.43,0-.64,0-.2,0-.39,0-.59,0h-.54c-.17,0-.34,0-.51,0-.18,0-.37,0-.55,0-.19,0-.38,0-.57,0-.18,0-.37,0-.55,0-.16,0-.33,0-.5,0-.15,0-.3,0-.45-.01-.14,0-.27,0-.41-.01-.12,0-.25,0-.37-.01-.11,0-.23,0-.34-.02-.1,0-.21,0-.31-.02-.09,0-.18-.01-.28-.02-.08,0-.16-.01-.24-.02-.08,0-.15-.01-.23-.02-.08,0-.15-.01-.23-.02-.07,0-.15-.01-.22-.02"/>
        <path class="cls-2" d="M.51,25.61s-.02-.04-.03-.07"/>
        <path class="cls-1" d="M6.43,8.93s0,0,0,.01c0,0,0,0,0,0,0,0,0,0,0,0"/>
        <path class="cls-1" d="M17.11,41.54s0,0,0,0c.06-.05,.12-.09,.19-.12"/>
        <path class="cls-1" d="M16.52,38.82s0-.07,0-.11"/>
        <path class="cls-2" d="M16.6,.47c.05-.03,.11-.05,.18-.08,.07-.03,.16-.05,.24-.07,.09-.02,.18-.04,.28-.05,.1-.01,.21-.02,.32-.02,.11,0,.22,0,.33,0,.11,0,.22,.01,.32,.02,.1,.01,.2,.03,.29,.05,.09,.02,.17,.04,.25,.07,.07,.03,.14,.06,.2,.09,.06,.03,.12,.07,.17,.11,.05,.04,.09,.08,.13,.13,.04,.05,.07,.11,.08,.16,.02,.06,.03,.12,.03,.19"/>
        <polyline class="cls-2" points="25.04 60.97 24.57 60.97 23.05 60.97 21.36 60.97 19.58 60.97 17.79 60.97"/>
        <path class="cls-1" d="M6.28,8.95s-.01,0-.02,0"/>
        <path class="cls-1" d="M1.17,5.36s0-.02-.01-.03c0-.02-.02-.03-.02-.05"/>
        <line class="cls-1" x1="18.89" y1="13.81" x2="18.89" y2="17.47"/>
        <line class="cls-1" x1="16.69" y1="50.45" x2="16.69" y2="50.45"/>
        <path class="cls-1" d="M1.35,5.59s-.03-.02-.04-.04c-.02-.02-.04-.04-.05-.06-.02-.02-.03-.04-.04-.06-.01-.02-.02-.04-.03-.05,0,0,0-.01-.01-.02"/>
        <path class="cls-1" d="M29.34,8.95s-.02,0-.02,0"/>
        <line class="cls-1" x1="16.18" y1="1.17" x2="16.18" y2="1.07"/>
        <line class="cls-1" x1="5.43" y1="8.89" x2="5.43" y2="8.89"/>
        <path class="cls-1" d="M19.31,13.17s0,0,0-.01"/>
        <path class="cls-1" d="M19.3,13.15s0-.01-.01-.02c0,0-.01-.02-.02-.02"/>
        <path class="cls-1" d="M19.26,13.11s0,0,0-.01c0,0-.01-.01-.02-.02,0,0,0,0-.01,0"/>
        <path class="cls-1" d="M35.19,36.79s0-.04,0-.06"/>
        <path class="cls-1" d="M32.33,35.02s0,.01,0,.02"/>
        <path class="cls-2" d="M32.33,2.89s0,0-.01,0"/>
        <path class="cls-2" d="M.73,25.88h0s-.04-.04-.06-.06c-.02-.02-.04-.04-.05-.06-.02-.02-.03-.04-.05-.07-.01-.02-.03-.05-.04-.07,0,0,0,0,0,0"/>
        <path class="cls-1" d="M29.08,8.93s-.03,0-.04,0"/>
        <path class="cls-2" d="M24.74,2.43c-.11,0-.23,0-.35,0-.12,0-.25,0-.38,0s-.28,0-.43,0c-.15,0-.31,0-.48,0-.17,0-.35,0-.54,0-.19,0-.38,0-.58,0-.2,0-.4,0-.61,0-.21,0-.41,0-.63,0-.21,0-.43,0-.66,0-.21,0-.43,0-.66,0"/>
        <path class="cls-2" d="M.94,6.91c.02-.79,.04-1.57,.06-2.36"/>
        <path class="cls-2" d="M34.65,6.91s0,.03,0,.05c0,.02,0,.05,0,.07,0,.02,0,.05,0,.07,0,.02,0,.04,0,.06,0,.02,0,.03,0,.05,0,.02,0,.03,0,.05,0,.01,0,.03,0,.04,0,.01,0,.03,0,.04,0,.01,0,.02,0,.03,0,.01,0,.02,0,.03,0,0,0,.02,0,.03,0,0,0,.02,0,.03,0,0,0,.02,0,.02,0,0,0,.01,0,.02,0,0,0,.01,0,.02,0,0,0,.01,0,.02,0,0,0,.01,0,.02,0,0,0,0,0,.01,0,0,0,0,0,.01,0,0,0,0,0,.01,0,0,0,0,0,.01s0,0,0,0h0s0,.01,0,.02c0,0,0,0,0,0"/>
        <path class="cls-2" d="M35.05,37.42s-.02,.04-.03,.06c-.01,.02-.02,.05-.04,.07-.02,.02-.03,.05-.05,.08-.02,.03-.05,.06-.08,.09-.03,.03-.07,.06-.11,.09-.04,.03-.09,.06-.14,.09-.02,.01-.05,.03-.07,.04"/>
        <line class="cls-1" x1="16.7" y1="17.47" x2="16.7" y2="13.81"/>
        <polyline class="cls-2" points="1.3 60.45 1.2 60.45 .54 60.45"/>
        <path class="cls-2" d="M6.03,8.94s0,0-.01,0c-.06,0-.12,0-.17-.01-.05,0-.11,0-.16-.01-.05,0-.1,0-.14-.01-.04,0-.08,0-.12,0"/>
        <path class="cls-1" d="M30.61,6.44s.1,0,.14-.01c.06,0,.12-.01,.18-.02,.06,0,.12-.01,.19-.02,.06,0,.13-.01,.19-.02,.06,0,.12-.01,.19-.02,.06,0,.13-.02,.19-.02,.06,0,.13-.02,.2-.03,.07,0,.13-.02,.19-.03,.06,0,.12-.02,.18-.03,.05,0,.1-.02,.15-.03,.05,0,.09-.02,.13-.02,.04,0,.08-.01,.11-.02,.04,0,.07-.01,.1-.02s.06-.01,.09-.02c.03,0,.05-.01,.08-.02,.03,0,.05-.01,.07-.02,.02,0,.04,0,.06-.01,.02,0,.04,0,.06-.01,.02,0,.03,0,.05-.01,.02,0,.03,0,.04-.01,.01,0,.03,0,.04-.01,.01,0,.02,0,.04,0,.01,0,.02,0,.03,0,0,0,.02,0,.03,0,0,0,.02,0,.03,0,0,0,.02,0,.02,0,0,0,.01,0,.02,0,0,0,.01,0,.02,0,0,0,.01,0,.02,0h.02"/>
        <path class="cls-1" d="M4.98,6.44s.03,0,.04,0c.07,0,.14,.01,.21,.02,.07,0,.15,.01,.24,.02,.08,0,.17,.01,.27,.02,.09,0,.2,.01,.3,.02,.1,0,.21,.01,.32,.02H29.23"/>
        <path class="cls-2" d="M16.18,2.4c-.23,0-.45,0-.66,0-.23,0-.45,0-.66,0-.21,0-.42,0-.63,0-.21,0-.41,0-.61,0-.2,0-.4,0-.58,0-.19,0-.37,0-.54,0-.17,0-.33,0-.48,0-.15,0-.29,0-.43,0-.13,0-.26,0-.38,0-.12,0-.24,0-.35,0"/>
        <path class="cls-2" d="M5.43,8.89s0,.02,0,.03c.1,.51,.23,1.06,.4,1.62,.14,.48,.31,.98,.5,1.49"/>
        <line class="cls-1" x1="28.94" y1="8.94" x2="28.94" y2="8.94"/>
        <path class="cls-1" d="M1.13,5.27h0s0-.01,0-.01c0,0,0,0,0,0,0,0,0,0,0,0,0,0,0,0,0,0s0,0,0,0c0,0,0,0,0-.01,0,0,0,0,0-.01,0,0,0,0,0-.01,0,0,0,0,0-.01,0,0,0,0,0-.01,0,0,0,0,0-.02,0,0,0-.01,0-.02s0-.01,0-.02c0,0,0-.01,0-.02,0,0,0-.01,0-.02,0,0,0-.01,0-.02,0,0,0-.02,0-.03,0,0,0-.02,0-.03,0,0,0-.02,0-.03,0-.01,0-.02,0-.03,0-.01,0-.02,0-.04,0-.01,0-.03,0-.04s0-.03,0-.04c0-.02,0-.03,0-.05,0-.02,0-.03,0-.05,0-.02,0-.04,0-.06,0-.02,0-.04,0-.06,0-.01,0-.03,0-.04"/>
        <path class="cls-2" d="M11.31,21.92c-.06-.1-.12-.2-.17-.3-.34-.59-.68-1.19-1-1.77-.33-.6-.66-1.21-.97-1.8l-.06-.12"/>
        <path class="cls-2" d="M35.34,19.8c-.03,1.69-.06,3.38-.09,5.08"/>
        <path class="cls-1" d="M35.19,20.47c.07-.15,.11-.31,.13-.46,0-.07,.02-.14,.02-.2"/>
        <path class="cls-2" d="M.34,24.88c-.03-1.69-.06-3.38-.09-5.08"/>
        <path class="cls-2" d="M.49,25.54c-.07-.15-.11-.31-.13-.46,0-.07-.02-.14-.02-.2"/>
        <path class="cls-1" d="M.4,20.47c-.07-.15-.11-.31-.13-.46,0-.07-.02-.14-.02-.2"/>
        <path class="cls-2" d="M35.11,25.55s0,.02-.01,.03"/>
        <path class="cls-2" d="M35.25,24.88c0,.07,0,.14-.02,.2-.02,.15-.07,.31-.13,.46"/>
        <path class="cls-1" d="M16.43,12.27s0-.01,0-.02c0,0,0-.02,.01-.03,0,0,.01-.02,.02-.02,0,0,.02-.01,.03-.02,0,0,.02,0,.03,0"/>
        <line class="cls-1" x1="18.44" y1="13.92" x2="17.82" y2="13.92"/>
        <line class="cls-1" x1="19.41" y1="1.16" x2="19.41" y2="1.07"/>
        <path class="cls-2" d="M1.37,3.54s.04-.04,.06-.05h.01s.01-.02,.02-.02c0,0,.02-.01,.02-.02,0,0,.02-.01,.03-.02,.01,0,.02-.01,.03-.02,.01,0,.02-.02,.04-.02,.01,0,.03-.02,.04-.02,.02,0,.03-.02,.05-.03,.02,0,.04-.02,.06-.03,.02-.01,.05-.02,.07-.03,.03-.01,.06-.02,.09-.04,.03-.01,.06-.02,.1-.04,.03-.01,.07-.03,.11-.04,.04-.01,.08-.03,.12-.04,.05-.01,.1-.03,.15-.04,.05-.01,.1-.03,.16-.04,.05-.01,.1-.02,.15-.04,.05,0,.1-.02,.15-.03,.05,0,.09-.02,.14-.03,.05,0,.1-.02,.15-.03,.05,0,.09-.02,.14-.03"/>
        <polyline class="cls-2" points="32.32 2.89 32.31 2.89 32.3 2.89"/>
        <line class="cls-1" x1="16.18" y1="1.17" x2="16.18" y2="1.07"/>
        <path class="cls-2" d="M6.37,9c0,.83,.01,1.66,.02,2.51,0,.2,0,.4,0,.6"/>
        <path class="cls-2" d="M19.38,14.28s0-.01,0-.02"/>
        <path class="cls-2" d="M19.75,14.62s-.08,0-.12-.02c-.04-.02-.08-.04-.12-.07-.03-.03-.06-.07-.09-.11-.02-.04-.04-.09-.04-.13,0,0,0-.01,0-.02"/>
        <path class="cls-2" d="M10.85,2.43c-.05,0-.1,0-.15,0s-.1,0-.14,0c-.04,0-.09,0-.13,0-.04,0-.08,0-.11,0-.03,0-.07,0-.1,0-.03,0-.07,0-.1,0-.03,0-.07,0-.1,0-.03,0-.07,0-.1,0-.04,0-.07,0-.11,0-.04,0-.08,0-.12,0-.04,0-.09,0-.14,0-.05,0-.1,0-.15,0-.05,0-.1,0-.16,0-.06,0-.11,0-.17,0-.06,0-.12,0-.19,0-.07,0-.14,0-.21,0-.07,0-.15,0-.22,0-.08,0-.16,0-.24,0s-.17,0-.27,0c-.09,0-.2,0-.3,.01-.11,0-.22,0-.34,.02-.12,0-.24,.01-.37,.02-.13,0-.26,.01-.4,.02-.14,0-.28,.02-.41,.03-.13,0-.25,.02-.36,.03-.11,0-.21,.02-.31,.02-.1,0-.19,.02-.27,.02-.08,0-.16,.01-.24,.02-.07,0-.14,.01-.2,.02-.06,0-.12,.01-.17,.02-.05,0-.1,.01-.15,.02-.05,0-.09,.01-.13,.02-.04,0-.08,0-.12,.01-.04,0-.07,0-.1,.01-.03,0-.06,0-.09,.01-.03,0-.05,0-.08,.01s-.05,0-.07,0c-.02,0-.04,0-.06,0-.02,0-.04,0-.05,0-.02,0-.03,0-.05,0-.02,0-.03,0-.04,0-.01,0-.03,0-.04,0-.01,0-.02,0-.03,0-.01,0-.02,0-.03,0,0,0-.02,0-.03,0,0,0-.02,0-.02,0s-.02,0-.02,0c0,0-.02,0-.02,0,0,0-.02,0-.02,0,0,0-.02,0-.02,0,0,0-.02,0-.02,0,0,0-.02,0-.02,0h-.02"/>
        <path class="cls-2" d="M1.07,7.63s0,0,0,0c0,0,0,0,0,0,0,0,0,0,0,0,0,0,0,0,0,0,0,0,0,0,0,0,0,0,0,0,0-.01,0,0,0,0,0-.01,0,0,0,0,0-.01,0,0,0,0,0-.01,0,0,0-.01,0-.02,0,0,0-.01,0-.02,0,0,0-.01,0-.02,0,0,0-.02,0-.02,0,0,0-.02,0-.03,0,0,0-.02,0-.03,0,0,0-.02,0-.03,0-.01,0-.02,0-.03,0-.01,0-.02,0-.04,0-.01,0-.03,0-.04,0-.01,0-.03,0-.04,0-.02,0-.03,0-.05,0-.02,0-.03,0-.05,0-.02,0-.04,0-.06,0-.02,0-.04,0-.06,0-.02,0-.04,0-.06,0-.01,0-.03,0-.04"/>
        <path class="cls-1" d="M30.61,6.44s-.03,0-.04,0c-.07,0-.14,.01-.21,.02-.07,0-.15,.01-.24,.02-.08,0-.17,.01-.27,.02-.09,0-.2,.01-.3,.02-.1,0-.21,.01-.32,.02l-.13,2.38"/>
        <line class="cls-2" x1=".4" y1="60.45" x2=".4" y2="36.79"/>
        <line class="cls-1" x1=".54" y1="60.45" x2=".4" y2="60.45"/>
        <path class="cls-1" d="M6.37,8.96s-.06,0-.09,0"/>
        <path class="cls-2" d="M34.44,3.87s0,0,0,0"/>
        <path class="cls-2" d="M29.16,13.67c0-.53,.01-1.06,.02-1.59,0-.53,.01-1.05,.02-1.57,0-.52,.01-1.04,.02-1.55"/>
        <polyline class="cls-2" points="17.79 60.97 16.01 60.97 14.23 60.97 12.54 60.97 11.02 60.97 10.55 60.97"/>
        <path class="cls-1" d="M23.29,27.03c-.61,0-1.22,0-1.83,.01-.61,0-1.22,0-1.83,0-.61,0-1.22,0-1.83,0"/>
        <path class="cls-2" d="M34.22,3.55s.04,.04,.06,.06c.02,.02,.03,.04,.05,.06,.02,.02,.03,.04,.04,.07,.01,.02,.03,.05,.04,.07,0,.02,.02,.04,.03,.06"/>
        <path class="cls-1" d="M35.05,37.42c.06-.15,.11-.31,.13-.46,0-.06,.01-.11,.02-.17"/>
        <path class="cls-2" d="M34.16,3.49s.04,.04,.06,.05"/>
        <polyline class="cls-1" points="3.29 2.89 3.28 2.89 3.27 2.89"/>
        <polyline class="cls-2" points="35.05 60.45 34.39 60.45 34.29 60.45"/>
        <line class="cls-1" x1="35.2" y1="60.45" x2="35.05" y2="60.45"/>
        <path class="cls-1" d="M.4,36.79c0,.06,0,.11,.02,.17,.02,.15,.07,.31,.13,.46"/>
        <path class="cls-1" d="M12.44,27.88c1.3,0,2.66,.01,4.02,.02"/>
        <path class="cls-2" d="M9.98,61.7s0,0,0,0"/>
        <path class="cls-1" d="M18.9,50.45c0,.08,0,.16-.03,.25-.02,.08-.05,.16-.08,.23-.04,.07-.08,.14-.13,.21-.05,.06-.11,.12-.18,.17-.06,.05-.12,.09-.19,.12"/>
        <path class="cls-1" d="M18.3,51.43s-.02,0-.02,.01c-.07,.04-.15,.06-.23,.08s-.16,.03-.24,.03"/>
        <path class="cls-1" d="M17.79,51.55c-.08,0-.16,0-.24-.03-.08-.02-.16-.05-.23-.08-.07-.04-.15-.08-.21-.13-.06-.05-.12-.11-.17-.17-.05-.06-.1-.13-.13-.21-.04-.07-.06-.15-.08-.23-.02-.08-.03-.16-.03-.24"/>
        <path class="cls-1" d="M16.42,12.43c0-.06,0-.11,0-.16"/>
        <path class="cls-1" d="M19.16,12.27c0,.06,0,.11,0,.17"/>
        <line class="cls-1" x1="16.42" y1="12.45" x2="16.42" y2="12.44"/>
        <path class="cls-1" d="M29.32,8.95s-.06,0-.09,0"/>
        <polyline class="cls-1" points="29.22 8.96 29.22 8.96 29.2 8.96"/>
        <path class="cls-2" d="M2.98,26.85c-.27-.14-.54-.28-.81-.42"/>
        <path class="cls-1" d="M3.27,35.04s0-.01,0-.02"/>
        <line class="cls-1" x1="16.42" y1="12.62" x2="16.42" y2="12.59"/>
        <path class="cls-1" d="M16.32,13.11s-.01,.01-.02,.02c0,0,0,.01-.01,.02"/>
        <path class="cls-2" d="M32.61,26.92c-.09,3.84-.19,7.68-.28,11.52"/>
        <path class="cls-1" d="M32.05,27.15s-.03,.02-.05,.03c-.05,.02-.11,.05-.18,.07-.07,.03-.15,.05-.25,.08-.1,.03-.21,.06-.34,.09-.13,.03-.29,.06-.47,.09-.18,.03-.39,.06-.63,.09-.24,.03-.5,.05-.78,.08-.28,.03-.58,.05-.91,.07-.33,.02-.7,.04-1.08,.06-.38,.02-.79,.03-1.17,.04-.38,0-.74,.02-1.08,.02-.33,0-.64,0-.96,.01-.32,0-.67,0-1,0"/>
        <line class="cls-1" x1="19.17" y1="13.07" x2="19.17" y2="13.19"/>
        <path class="cls-1" d="M18.89,13.76h0s-.08,.06-.13,.08"/>
        <path class="cls-1" d="M16.29,13.15s-.01,.02-.01,.03"/>
        <line class="cls-1" x1="24.15" y1="14.47" x2="24.19" y2="12.58"/>
        <path class="cls-2" d="M15.84,14.62s.08,0,.12-.02c.04-.02,.08-.04,.12-.07,.03-.03,.06-.07,.09-.11,.02-.04,.04-.09,.04-.13,0,0,0-.01,0-.02v-.02c0-.11,.01-.22,.02-.34,0-.11,.01-.23,.02-.34l.02-.34"/>
        <path class="cls-2" d="M10.56,60.97c0,.12,0,.24,.01,.37h.01v.18"/>
        <path class="cls-1" d="M19.07,38.71s0,.07,0,.11"/>
        <path class="cls-1" d="M16.33,13.11h0"/>
        <path class="cls-1" d="M16.28,13.18s0,.02,0,.03,0,.02,0,.03"/>
        <path class="cls-1" d="M16.69,42.4c0-.08,0-.16,.03-.25,.02-.08,.05-.16,.08-.23,.04-.07,.08-.15,.13-.21,.05-.06,.11-.12,.17-.17"/>
        <polyline class="cls-2" points="3.55 61.7 3.43 61.7 3.33 61.7 3.25 61.7"/>
        <path class="cls-2" d="M32.53,61.52s-.02,.09-.05,.13c-.01,.01-.03,.02-.04,.03,0,0-.06,.03-.1,.02"/>
        <line class="cls-1" x1="35.2" y1="60.45" x2="35.05" y2="60.45"/>
        <path class="cls-1" d="M3.5,27.14s.06,.03,.09,.04c.05,.02,.11,.05,.18,.07,.07,.03,.15,.05,.25,.08,.1,.03,.21,.06,.34,.09,.13,.03,.29,.06,.47,.09,.18,.03,.39,.06,.63,.09,.24,.03,.5,.05,.78,.08,.28,.03,.58,.05,.91,.07,.33,.02,.7,.04,1.08,.05,.38,.02,.79,.03,1.17,.04,.38,0,.74,.02,1.08,.02,.33,0,.64,0,.96,.01,.32,0,.67,0,.99,0"/>
        <path class="cls-1" d="M32.09,27.14s-.02,.01-.04,.02"/>
        <path class="cls-2" d="M16.18,1.07c0-.07,0-.13,.03-.19,.02-.06,.05-.11,.08-.16,.04-.05,.08-.09,.13-.13,.05-.04,.1-.07,.16-.11,0,0,.01,0,.02-.01"/>
        <line class="cls-1" x1="28.01" y1="12.54" x2="28.01" y2="12.54"/>
        <path class="cls-1" d="M32.62,26.57c-.05,0-.11,.02-.17,.03"/>
        <path class="cls-1" d="M19.17,13.19c0,.05,0,.11-.02,.16-.02,.08-.05,.16-.09,.23-.03,.05-.06,.09-.1,.13"/>
        <polyline class="cls-2" points="26.99 61.7 26.59 61.7 26.22 61.7 25.87 61.7"/>
        <path class="cls-1" d="M18.77,13.84s-.06,.03-.09,.04c-.08,.03-.16,.04-.24,.04"/>
        <path class="cls-1" d="M28.01,12.54s0,0,0,0"/>
        <path class="cls-2" d="M35.19,19.04c.07,.16,.11,.32,.14,.48,.01,.09,.02,.19,.02,.28"/>
        <path class="cls-1" d="M2.12,5.97h.02s.01,0,.02,0c0,0,.01,0,.02,0,0,0,.01,0,.02,0,0,0,.01,0,.02,0,0,0,.02,0,.03,0,0,0,.02,0,.03,0,.01,0,.02,0,.03,0,.01,0,.02,0,.04,0,.01,0,.03,0,.04,.01,.01,0,.03,0,.04,.01,.02,0,.03,0,.05,.01,.02,0,.04,0,.06,.01,.02,0,.04,0,.06,.02,.02,0,.05,0,.07,.02,.03,0,.05,.01,.08,.02,.03,0,.06,.01,.09,.02,.03,0,.06,.01,.1,.02,.04,0,.07,.01,.11,.02,.04,0,.08,.02,.13,.02,.05,0,.1,.02,.15,.03,.05,0,.11,.02,.17,.03,.06,0,.13,.02,.19,.03,.07,0,.13,.02,.2,.03,.06,0,.13,.02,.19,.02,.06,0,.12,.01,.19,.02,.06,0,.13,.01,.19,.02,.06,0,.13,.01,.19,.02,.06,0,.12,.01,.18,.02,.05,0,.1,0,.15,.01"/>
        <polyline class="cls-2" points="25.87 61.7 25.2 61.7 25.19 61.7"/>
        <path class="cls-2" d="M25.19,61.7s-.05,0-.07-.01c-.02,0-.04-.02-.06-.04-.04-.04-.05-.08-.05-.13"/>
        <line class="cls-2" x1="32.53" y1="61.33" x2="32.53" y2="61.52"/>
        <path class="cls-2" d="M25,61.52v-.18h0c.03-.12,.05-.24,.08-.36"/>
        <line class="cls-2" x1="32.53" y1="61.33" x2="32.55" y2="60.65"/>
        <path class="cls-1" d="M18.95,13.7s-.04,.04-.06,.05"/>
        <line class="cls-1" x1="32.33" y1="34.93" x2="32.33" y2="34.93"/>
        <line class="cls-1" x1="19.17" y1="12.43" x2="19.17" y2="12.45"/>
        <line class="cls-1" x1="16.42" y1="13.19" x2="16.42" y2="13.07"/>
        <path class="cls-2" d="M.49,25.58s0-.02-.01-.03"/>
        <path class="cls-1" d="M19.07,12.18s.01,0,.02,0c0,0,.02,0,.03,.01,0,0,.02,.01,.02,.02,0,0,.01,.02,.02,.03,0,0,0,.02,0,.03"/>
        <path class="cls-1" d="M6.45,8.9s0,0,0,0h.01c.09,.01,.17,.02,.26,.03"/>
        <path class="cls-2" d="M35.19,19.04s0,0,0,0"/>
        <path class="cls-2" d="M35.11,25.54s-.02,.05-.03,.07"/>
        <path class="cls-2" d="M8.01,14.42c.23,.5,.48,1.01,.73,1.51,.26,.52,.54,1.06,.82,1.59"/>
        <path class="cls-2" d="M35.02,18.77s.07,.09,.1,.13c.03,.04,.05,.08,.06,.13"/>
        <path class="cls-1" d="M16.42,13.23s0-.03,0-.05"/>
        <path class="cls-1" d="M17.15,13.92c-.05,0-.11,0-.16-.02-.08-.02-.16-.05-.23-.09-.02-.02-.05-.03-.07-.05"/>
        <path class="cls-1" d="M19.16,27.9c1.35,0,2.7,0,3.99-.02"/>
        <path class="cls-2" d="M.25,19.8c0-.09,0-.19,.02-.28,.02-.16,.07-.32,.14-.48"/>
        <path class="cls-2" d="M6.96,14.29s-.05,0-.07-.02c-.04-.01-.08-.03-.11-.05-.04-.02-.08-.05-.11-.08-.04-.03-.07-.07-.1-.12-.03-.05-.06-.1-.08-.15-.02-.05-.03-.11-.04-.16,0-.02,0-.04,0-.05"/>
        <polyline class="cls-1" points="6.37 10.27 6.37 10.26 6.37 10.25"/>
        <path class="cls-2" d="M3.21,61.69s-.03,0-.03,0c-.02,0-.04-.02-.06-.04-.04-.04-.05-.08-.05-.13v-.17c.02-.23,.03-.45,.04-.68h7.44l.02,.3"/>
        <line class="cls-1" x1="23.3" y1="21.96" x2="23.28" y2="21.96"/>
        <polyline class="cls-2" points="19.41 1.66 19.41 1.77 19.41 1.87 19.41 1.97 19.41 2.08 19.41 2.18 19.41 2.29 19.41 2.4"/>
        <path class="cls-1" d="M18.84,57.28c0,.58-.47,1.05-1.05,1.05s-1.05-.47-1.05-1.05,.47-1.05,1.05-1.05,1.05,.47,1.05,1.05Z"/>
        <path class="cls-1" d="M20.67,57.28c0,.14-.12,.26-.26,.26s-.26-.12-.26-.26,.12-.26,.26-.26,.26,.12,.26,.26Z"/>
        <path class="cls-1" d="M15.44,57.28c0,.14-.12,.26-.26,.26s-.26-.12-.26-.26,.12-.26,.26-.26,.26,.12,.26,.26Z"/>
        <line class="cls-2" x1="16.18" y1="2.4" x2="16.27" y2="2.52"/>
        <polyline class="cls-2" points="16.27 2.52 19.32 2.52 19.41 2.4"/>
        <path class="cls-4" d="M3.07,28.4s3.49,5.3,14.43,2.56c10.95-2.74,14.95-.68,14.95-.68l-.24,8.18s-14.65,1.4-28.87,0l-.28-10.05Z"/>
        <path class="cls-1" d="M3.07,28.4s3.49,5.3,14.43,2.56c10.95-2.74,14.95-.68,14.95-.68l-.24,8.18s-14.65,1.4-28.87,0l-.28-10.05Z"/>
        <path class="cls-1" d="M16.52,38.95c0-1.42-.02-2.79-.03-4.11,0-.03,0-.05,0-.08v-.28"/>
        <path class="cls-1" d="M19.07,38.95c0-1.42,.02-2.79,.03-4.11v-.3s0-.04,0-.06"/>
        <path class="cls-1" d="M19.1,34.48c0-1.28,.02-2.51,.03-3.73,0-1.25,.02-2.5,.03-3.71"/>
        <path class="cls-2" d="M3.26,38.47c-.09-3.84-.19-7.69-.28-11.53"/>
        <path class="cls-1" d="M16.49,34.48c0-1.28-.02-2.51-.03-3.72,0-1.25-.02-2.49-.03-3.71"/>
        <path class="cls-2" d="M34.53,37.93s-.06,.03-.08,.04c-.05,.02-.11,.05-.16,.07-.06,.02-.12,.04-.18,.06-.06,.02-.13,.04-.21,.06-.07,.02-.16,.04-.25,.07-.09,.02-.2,.05-.31,.07-.12,.02-.25,.05-.39,.08-.15,.03-.31,.05-.49,.08-.18,.03-.39,.05-.62,.08-.23,.03-.49,.05-.78,.08-.29,.03-.62,.05-.97,.08-.34,.02-.71,.05-1.05,.07-.35,.02-.68,.03-.99,.05-.32,.01-.61,.02-.9,.03-.28,0-.56,.02-.82,.02-.26,0-.51,0-.74,.01-.23,0-.46,0-.67,0-.21,0-.41,0-.6,0-.19,0-.37,0-.54,0-.17,0-.34,0-.49,0"/>
        <path class="cls-2" d="M12.3,38.9c-.16,0-.32,0-.49,0-.17,0-.35,0-.54,0-.19,0-.38,0-.59,0-.21,0-.43,0-.66,0-.23,0-.48,0-.73-.01-.26,0-.52-.01-.8-.02-.28,0-.57-.02-.88-.03-.31-.01-.63-.03-.96-.04-.34-.02-.68-.04-1.02-.06-.34-.02-.67-.05-.97-.08-.3-.03-.56-.05-.8-.08-.24-.03-.45-.06-.64-.08s-.36-.05-.51-.08c-.15-.03-.28-.05-.4-.08-.12-.02-.23-.05-.32-.07-.09-.02-.18-.04-.25-.07-.08-.02-.14-.04-.21-.06-.06-.02-.12-.04-.18-.06-.06-.02-.11-.04-.16-.07-.05-.02-.1-.05-.15-.08-.05-.03-.1-.06-.14-.09-.04-.03-.08-.06-.12-.09-.03-.03-.06-.06-.08-.09-.02-.03-.04-.05-.06-.08-.02-.02-.03-.05-.04-.07-.01-.02-.02-.04-.03-.06"/>
        <path class="cls-2" d="M17.79,38.92c-.61,0-1.22,0-1.83,0-.61,0-1.22,0-1.83,0-.61,0-1.21,0-1.82,0"/>
        <line class="cls-2" x1="12.31" y1="38.9" x2="12.3" y2="38.9"/>
        <path class="cls-2" d="M17.79,38.92c.61,0,1.22,0,1.83,0,.61,0,1.22,0,1.83,0,.56,0,1.13,0,1.7,0"/>
        <path class="cls-2" d="M23.16,38.91s.09,0,.13,0"/>
        <line class="cls-2" x1="23.29" y1="38.9" x2="23.29" y2="38.9"/>
      </g>
      <polygon class="cls-3" points="37.29 23.95 40.49 28.11 43.69 23.95 42.11 23.95 42.11 18.45 38.87 18.45 38.87 23.95 37.29 23.95"/>
    </g>
  </g>
</svg>